<?xml version="1.0" standalone="no"?>
<!DOCTYPE svg PUBLIC "-//W3C//DTD SVG 20010904//EN"
 "http://www.w3.org/TR/2001/REC-SVG-20010904/DTD/svg10.dtd">
<svg version="1.0" xmlns="http://www.w3.org/2000/svg"
 width="760.000000pt" height="760.000000pt" viewBox="0 0 760.000000 760.000000"
 preserveAspectRatio="xMidYMid meet">
<metadata>
Created by potrace 1.11, written by Peter Selinger 2001-2013
</metadata>
<g transform="translate(0.000000,760.000000) scale(0.100000,-0.100000)"
fill="#000000" stroke="none">
<path d="M3339 6615 c-3 -2 -56 -6 -119 -10 -140 -7 -215 -12 -300 -20 -36 -4
-90 -9 -120 -11 -30 -3 -64 -7 -75 -8 -11 -2 -51 -6 -90 -10 -38 -4 -92 -11
-120 -16 -27 -5 -72 -12 -100 -15 -56 -7 -107 -15 -139 -21 -11 -2 -37 -7 -56
-10 -19 -3 -46 -7 -60 -10 -14 -3 -34 -6 -45 -8 -40 -6 -192 -38 -245 -51 -30
-8 -66 -16 -80 -19 -63 -12 -334 -86 -380 -103 -8 -3 -19 -7 -25 -8 -32 -7
-210 -71 -312 -111 -118 -46 -172 -70 -291 -126 -71 -34 -146 -104 -156 -146
-9 -36 -82 -270 -108 -347 -19 -56 -23 -62 -67 -79 -48 -20 -158 -90 -202
-129 -48 -43 -114 -132 -152 -204 -21 -40 -35 -73 -31 -73 3 0 0 -7 -7 -16 -7
-9 -14 -21 -15 -28 -3 -15 -23 -96 -31 -121 -10 -36 -12 -319 -2 -375 6 -30
12 -68 15 -84 3 -16 19 -70 35 -120 57 -174 156 -340 271 -453 89 -87 97 -94
153 -130 48 -31 52 -36 73 -110 13 -43 31 -100 42 -128 38 -103 72 -189 80
-204 4 -9 12 -27 18 -41 12 -29 88 -181 112 -225 38 -67 84 -142 111 -182 16
-23 29 -46 29 -51 0 -6 3 -12 8 -14 7 -3 13 -11 78 -105 20 -29 40 -53 45 -53
5 0 9 -5 9 -11 0 -11 123 -161 199 -243 141 -150 280 -281 421 -396 30 -25 66
-55 80 -67 14 -13 28 -23 32 -23 3 0 13 -6 20 -12 7 -7 40 -33 73 -57 33 -25
61 -48 63 -53 2 -4 7 -8 11 -8 4 0 63 -37 132 -83 192 -127 409 -257 429 -257
5 0 10 -3 12 -7 3 -8 261 -138 398 -201 82 -38 204 -84 295 -112 39 -12 77
-24 85 -27 18 -7 19 -7 105 -28 139 -33 214 -48 308 -60 15 -2 38 -6 51 -9 61
-15 165 -17 193 -3 15 8 96 31 178 52 83 21 155 40 160 43 6 4 15 7 20 8 14 3
156 53 180 64 11 5 56 23 100 40 44 18 84 35 90 38 5 4 12 7 15 8 41 8 404
194 517 265 34 21 65 39 68 39 3 0 11 5 18 10 7 6 53 36 102 68 50 31 109 71
133 87 109 77 180 128 211 153 18 15 52 42 75 60 225 181 440 387 606 582 30
36 57 67 60 70 3 3 21 25 40 50 19 25 38 50 43 55 4 6 21 28 37 50 16 22 33
45 37 50 9 11 106 159 139 210 23 37 70 121 87 155 6 14 15 28 20 31 5 3 8 9
8 13 0 3 21 52 48 108 26 57 53 119 60 138 7 19 17 44 21 55 5 11 20 54 35 95
40 115 43 120 63 120 23 0 100 50 133 88 62 68 148 219 165 287 3 14 9 25 13
25 4 0 8 6 9 13 0 6 15 57 32 111 17 55 32 111 35 125 9 51 24 126 31 151 4
14 8 117 10 230 3 208 2 217 -40 380 -10 36 -48 115 -77 158 -70 103 -176 178
-301 212 -42 11 -48 16 -48 40 0 15 -3 30 -7 34 -5 4 -8 11 -8 14 -1 9 -25
103 -32 122 -4 8 -7 21 -9 27 -15 72 -83 253 -95 253 -5 0 -9 7 -9 15 0 48
-101 112 -315 199 -178 73 -557 189 -685 210 -14 2 -43 9 -65 14 -22 6 -53 13
-70 16 -16 3 -41 7 -55 11 -14 3 -41 8 -60 11 -19 3 -43 7 -52 10 -10 3 -30 7
-45 10 -28 4 -79 13 -118 20 -26 4 -154 25 -180 29 -11 1 -47 6 -80 9 -33 4
-67 9 -75 11 -8 2 -37 6 -65 9 -27 3 -75 8 -105 12 -72 8 -112 12 -185 19 -33
3 -82 7 -110 10 -27 2 -90 7 -140 10 -49 4 -115 9 -145 12 -71 6 -1076 14
-1081 8z"/>
</g>
</svg>
