<?xml version="1.0" encoding="utf-8"?>
<!-- Generator: Adobe Illustrator 24.3.0, SVG Export Plug-In . SVG Version: 6.00 Build 0)  -->
<svg version="1.1" id="Layer_1" xmlns="http://www.w3.org/2000/svg" xmlns:xlink="http://www.w3.org/1999/xlink" x="0px" y="0px"
	 viewBox="0 0 500 500" style="enable-background:new 0 0 500 500;" xml:space="preserve">
<style type="text/css">
	.st0{fill:#F5F5F5;}
	.st1{fill:#E0E0E0;}
	.st2{fill:#FFA8A7;}
	.st3{fill:#455A64;}
	.st4{fill:#37474F;}
	.st5{fill:#263238;}
	.st6{fill:#F0F0F0;}
	.st7{fill:#EBEBEB;}
	.st8{fill:#F28F8F;}
	.st9{fill:#B16668;}
	.st10{fill:#FF725E;}
	.st11{opacity:0.15;enable-background:new    ;}
	.st12{opacity:0.4;enable-background:new    ;}
	.st13{opacity:0.3;enable-background:new    ;}
	.st14{fill:#FFBDA7;}
	.st15{fill:#FAFAFA;}
	.st16{fill:#F0997A;}
	.st17{opacity:0.7;fill:#FFFFFF;enable-background:new    ;}
	.st18{opacity:0.1;enable-background:new    ;}
	.st19{opacity:0.6;fill:#FFFFFF;enable-background:new    ;}
	.st20{opacity:0.4;fill:#FFFFFF;enable-background:new    ;}
	.st21{opacity:0.3;fill:#FFFFFF;enable-background:new    ;}
</style>
<g id="freepik--Floor--inject-225">
	<ellipse id="freepik--floor--inject-225" class="st0" cx="250" cy="345.7" rx="243.7" ry="139.6"/>
</g>
<g id="freepik--Shadows--inject-225">
	<ellipse id="freepik--shadow--inject-225" class="st1" cx="335.1" cy="310.5" rx="63.5" ry="36.7"/>
	<ellipse id="freepik--shadow--inject-225_1_" class="st1" cx="152.9" cy="350.6" rx="63.5" ry="36.7"/>
	<path id="freepik--shadow--inject-225_2_" class="st1" d="M134.4,388.7l85-48.9c1.6-0.8,3.6-0.8,5.2,0l125.9,72.7
		c1.4,0.8,1.4,2.2,0,3l-155,48.9c-1.6,0.8-3.6,0.8-5.2,0l-55.8-72.7C133,390.9,133,389.5,134.4,388.7z"/>
</g>
<g id="freepik--character-2--inject-225">
	<g id="freepik--character--inject-225">
		<g id="freepik--Bottom--inject-225">
			<path class="st2" d="M368.5,293.7c-2.9-10.1-3.4-28.7-5.1-37.9c-1.9-10.8-10.6-21.1-10.6-21.1s2-27.9,2.6-40.3
				c1.5-28.7-4.2-39.7-7.6-44.1c-8.1,10.9-35.3,14.3-50.5,7.1c-2,8.9-3,31.4-2.3,51.8c0.5,14.9,2.3,28.2,3,35.6
				c0.9,10.4,10.1,55.8,10.3,57.2c0.1,0.6,2.1,3.1,6.1,2.2s5.1-2.4,5.1-2.8c-0.1-1.5,0-3.2,0.1-4.7c0.3-9.8,2.7-31.1,3.2-41.1
				c0.5-9.8-3.7-15.4-3.7-15.4l4.6-27.2c2.4,12.7,6,25,10.8,37c3.6,8.7,13,29,18.6,41.2c0.8,1.6,1.4,3.1,2,4.4
				c1.6,3.4,2.6,5.4,2.6,5.4c1.7,4,10.2,1.5,11-5.6L368.5,293.7z"/>
			<path class="st3" d="M297.9,248.1c-1.5-9.8-2.8-17-3.6-43.3c-0.4-16.2,0.4-32.4,2.5-48.5c0,0,9.3,5.9,26.5,3.8
				c17.2-2.1,24.4-10,24.4-10s5.9,7,7.5,15.9c1.3,7.3,0.7,30-0.2,46.2s-1.3,21.9-1.3,21.9l4.3,6.1c3.3,5,5.2,11.2,6.8,22.2
				c0.9,6.5,1.5,13,1.7,19.5c0,0-3.5,5-14.9,5.2c0,0-14.2-28.9-17.8-38.6c0,0-7.4-17.1-9.8-35.6l-3.5,27.2c1.2,2.4,2.1,4.9,2.6,7.6
				c1.4,9.1-2.4,36.4-2.4,36.4s-8.5,2.8-15.7,0C304.9,284.2,299.4,257.8,297.9,248.1z"/>
			<path class="st4" d="M323.9,213l-3.7-26.9c0,0-9.9-2.8-14.6-7.5c0,0,1.5,6.6,11.4,9.9l3.4,26.9v24.9L323.9,213z"/>
			<path class="st5" d="M283.8,319c-0.3,0-0.3,3.1,1.3,4.2c1.9,1.3,7.2,3.1,13.7,1.4s8.2-3.2,10.6-5.7s4.5-5.1,7.4-6.2
				c2.7-0.9,6.8-2.6,7.6-3.5c0.8-1,0.2-4.8,0.2-4.8L283.8,319z"/>
			<path class="st4" d="M320.3,288.2c0.5,0,1,0.3,1.1,0.8c0.3,1,0.9,4.1,1.6,5.7c1.1,3.6,1.7,7.3,1.8,11.1c-0.1,2-5.7,3.9-8.5,5.4
				c-2.8,1.6-5.4,3.6-7.5,6.1c-3.1,3.2-7.3,5.3-11.7,5.9c-5.1,0.6-11-0.4-12.6-2.6c-2-2.7-2.5-5.5,4.6-9.9c1.3-0.8,5.4-4,7-5.2
				c1.7-1.4,3.3-2.9,4.8-4.6c1-1.1,1.9-2.4,2.7-3.8c0.3-0.8,0.5-1.6,0.7-2.4c0.2-0.9,0.3-1.7,0.4-2.6c0-0.5,0.2-1,0.5-1.3
				c0.3-0.2,0.7-0.2,1-0.2c1.7,0,3.5,0.2,5.2,0.5c0.7,0.1,1.3,0.4,1.8,0.9c0.3,0.4,0.5,0.9,0.5,1.4c0,0.5,0.1,1,0.2,1.5
				c0,0.2,0.1,0.3,0.2,0.5c0.3,0.2,0.7,0,0.9-0.3c0.7-0.8,1.2-1.7,1.7-2.7c0.3-0.5,1.9-1,2.3-1.4c0.4-0.3,0.8-0.6,1.2-1
				C320.5,289.4,320.3,288.8,320.3,288.2z"/>
			<path class="st3" d="M308.7,317.2c1-1.1,2.1-2.1,3.2-3.1l0,0c0,0-7.7,4.1-11.6,2.1c-2.5-1.3-1.6-3.4-1.7-4c0-0.6-6-2.6-8.3-2.6
				l0,0c-0.6,0.4-1.1,0.8-1.4,1c-7.1,4.4-6.6,7.2-4.6,9.9c1.6,2.2,6,3.6,12.6,2.8C301.4,322.6,305.5,320.5,308.7,317.2z"/>
			<path class="st5" d="M299.1,310.4c-4.5,2.4-2.4,3.1-1,3.1s7.5-4.6,11.9-9c4.6-4.6,8.4-9.3,10.1-11c0.6-0.6,1.3-1.4,1.9-2.1
				c-0.2-1-0.5-2-0.6-2.4c-0.1-0.5-0.6-0.8-1.1-0.8l-0.2,1.7c-0.4,0.4-0.8,0.7-1.3,0.9c-0.8,0.3-1.6,0.8-2.2,1.5
				c-0.5,0.9-1.1,1.8-1.7,2.7C311.4,300.6,303.6,307.9,299.1,310.4z"/>
			<path class="st6" d="M298.3,312.8c0.3,0,0.4-0.3,0.4-0.5c0-0.1-0.1-0.2-0.1-0.3c-2.5-2-5.8-2.9-9-2.4c-0.2,0.1-0.4,0.4-0.3,0.6
				c0.1,0.2,0.3,0.3,0.5,0.3c2.9-0.5,5.9,0.3,8.2,2.1C298,312.7,298.2,312.8,298.3,312.8z"/>
			<path class="st6" d="M302.1,310c0.1,0,0.2-0.1,0.3-0.1c0.2-0.2,0.2-0.5,0-0.7c-2.5-2.1-5.8-3.1-9-2.6c-0.3,0.1-0.4,0.3-0.3,0.6
				c0.1,0.2,0.3,0.4,0.5,0.4c2.9-0.4,5.9,0.4,8.1,2.3C301.8,310,302,310,302.1,310z"/>
			<path class="st6" d="M305.6,306.9c0.1,0,0.2-0.1,0.3-0.1c0.2-0.2,0.2-0.5,0-0.7c0,0,0,0,0,0c-2.5-2.1-5.8-2.9-9-2.4
				c-0.3,0.1-0.4,0.3-0.4,0.6c0,0,0,0,0,0c0.1,0.2,0.3,0.4,0.5,0.4c0,0,0,0,0,0c2.9-0.5,5.9,0.3,8.2,2.1
				C305.4,306.8,305.5,306.9,305.6,306.9z"/>
			<path class="st6" d="M308.7,304.1c0.1,0,0.2,0,0.3-0.1c0.2-0.2,0.2-0.5,0-0.7c0,0,0,0,0,0c-2.4-2.2-5.7-3.2-8.9-2.8
				c-0.3,0.1-0.4,0.3-0.4,0.5c0,0.3,0.3,0.4,0.5,0.4c0,0,0,0,0,0c2.9-0.3,5.8,0.6,8.1,2.5C308.4,304.1,308.6,304.1,308.7,304.1z"/>
			<path class="st6" d="M312,300.9c0.1,0,0.2-0.1,0.3-0.1c0.2-0.2,0.2-0.5,0-0.7c-2-2.2-6.3-3.4-9.7-2.7c-0.3,0-0.4,0.3-0.4,0.5
				c0,0,0,0,0,0c0.1,0.3,0.3,0.4,0.5,0.4c3.1-0.6,7.1,0.5,8.9,2.4C311.7,300.8,311.8,300.9,312,300.9z"/>
			<path class="st5" d="M357.6,319.5c0.8,4.3,1.9,7.1,3.7,9.4s4.9,2.8,7.7,1.6s6.3-3.6,6.7-7.4s-0.1-6.4-1.3-10.3L357.6,319.5z"/>
			<path class="st4" d="M367.2,287.7c1.2-0.1,2.5,5.7,3.9,11.4c1.6,6.1,1.8,8,3.1,13.1c1.5,5.7,1.4,7.8-0.2,11.5s-8.4,8.2-12.6,3.6
				c-3.5-3.7-4-7.7-4.5-13.5c-0.4-4.7-1-9.3-1.9-13.9c-0.8-4.3-2.8-8.1-1.8-8.8c0.2,0.6,1.8,5.3,2.5,4.6c0.4-0.1,0.3-0.8,0.1-1.9
				c-0.1-0.5-0.1-1,0.1-1.5c0.3-0.4,0.8-0.7,1.3-0.8c1.2-0.4,2.8-1,3.9-1.2c0.7-0.2,1.4-0.3,2.1-0.4s1.8-0.5,2.6-0.1
				c0.3,0.2,0.6,0.6,0.7,1c0.1,0.4,0.2,0.8,0.4,1.2c0.1,0.2,0.2,0.3,0.3,0.4c0.1,0.1,0.3,0.1,0.5,0.1c0.2-0.1,0.3-0.2,0.3-0.4
				c0-0.3-0.1-0.7-0.2-1c-0.1-0.4-0.2-0.8-0.2-1.2C367.7,289.3,367.5,288.5,367.2,287.7z"/>
			<path class="st3" d="M373.7,310.3c0.2,0.8,1.5,6,0.1,7.2s-3-3-3-3s-4-0.7-9.3,2.5c0.4,0.9-0.1,4-1.7,3.5s-2.9-6.1-2.9-6.2
				c0.5,5.6,1.1,9.4,4.4,13c4.2,4.6,11,0.2,12.6-3.6s1.7-5.8,0.2-11.5C374.1,311.7,373.9,310.8,373.7,310.3z"/>
			<path class="st5" d="M370.5,315c0.3,2.1,2.1,1.1,2-1.9c-0.1-4.5-0.7-8.8-1.4-13.9c-1.5-5.7-2.7-11.5-3.9-11.4
				c0.2,1,0.6,3.1,0.6,3.1c0.1,0.4,0.3,1.5,0.3,1.5c0.6,4.3,1.6,9.4,2,13.9C370.5,310.3,370.2,312.8,370.5,315z"/>
			<path class="st5" d="M362.2,316.9c-0.7-2-1.4-2.5-2.3-6.4s-3.2-10.6-4.5-14.7c-0.4-1.3-2-4.5-2-4.5c-0.7,0.5-0.5,2.8,0.4,5.3
				s1.5,4.1,2.3,6.6c1.7,4.9,2.5,10.2,3.6,13S362.9,318.9,362.2,316.9z"/>
			<path class="st6" d="M361.8,317l0.2-0.1c2.7-1.7,6-2.5,9.2-2.2c0.2,0,0.5-0.1,0.5-0.4c0-0.2-0.1-0.5-0.4-0.5
				c-3.4-0.4-6.9,0.5-9.8,2.3c-0.2,0.1-0.3,0.4-0.1,0.6c0,0,0,0,0,0C361.4,317,361.6,317.1,361.8,317z"/>
			<path class="st6" d="M360,313c0.1,0,0.1,0,0.1-0.1c0,0,5.1-3.2,10.7-2.6c0.2,0,0.5-0.2,0.5-0.4c0-0.2-0.2-0.5-0.4-0.5
				c-4-0.2-7.9,0.8-11.3,2.8c-0.2,0.1-0.3,0.4-0.1,0.6C359.6,313,359.8,313,360,313z"/>
			<path class="st6" d="M371,306.8c0.2,0,0.3-0.2,0.3-0.4c0-0.2-0.1-0.5-0.4-0.5c-5.6-1.1-12.4,2.3-12.6,2.5
				c-0.2,0.1-0.3,0.4-0.1,0.6c0,0,0,0,0,0c0.1,0.2,0.4,0.2,0.6,0.1c0,0,6.7-3.4,12-2.3L371,306.8z"/>
			<path class="st6" d="M370.7,303c0.2,0,0.3-0.2,0.3-0.4c0-0.2-0.1-0.5-0.4-0.5c-6.2-1.4-13,2.9-13.2,3c-0.2,0.2-0.2,0.5,0,0.6
				c0.2,0.2,0.4,0.2,0.6,0.1c0,0,6.7-4.1,12.5-2.9C370.6,303,370.7,303,370.7,303z"/>
			<path class="st7" d="M369.8,298.4c0.2,0,0.3-0.2,0.3-0.3c0.1-0.2-0.1-0.5-0.3-0.5c-5.9-1.4-13.1,3-13.3,3.2
				c-0.2,0.2-0.2,0.4-0.1,0.6c0.1,0.2,0.4,0.2,0.6,0.1c0,0,0,0,0,0c0,0,7.1-4.3,12.5-3C369.6,298.4,369.7,298.4,369.8,298.4z"/>
		</g>
		<g id="freepik--top--inject-225">
			<path class="st2" d="M313.1,97.9c-4-0.1-11.4-0.2-16.6,6.5c-3.7,4.7-13.6,16.1-19.2,23.5c-4-4-13.6-13.5-15.2-16.4
				c-1.5-2.7-2.8-5.5-3.7-8.4c-0.6-1.7-1.1-3.4-1.4-5.2c-0.3-2.2-0.4-4.4-0.3-6.6c0-2-2.9-0.9-4,2.3c-0.5,1.8-0.8,3.6-0.7,5.4
				c-1.1-0.5-4.3-2-4.8-2.2c-1.8-0.8-7.3-2.6-7.8,0.6c-0.1,0.7,0.1,1.4-0.1,2.1c-0.2,0.3-0.4,0.6-0.6,0.8c-0.8,1-0.9,2.4-0.4,3.6
				c0.3,0.5,0.4,1.1,0.3,1.6c-0.1,0.6-0.1,1.2,0,1.8c0.2,0.4,0.4,0.9,0.7,1.3c0.3,0.6,0.5,1.2,0.5,1.8c0.1,0.6,0.2,1.3,0.5,1.8
				c0.6,1.4,2.3,1.6,3.6,2.1c1.7,0.6,4,1.3,5.8,2.1c3.1,1.9,11.8,16.8,20.4,26.2c3,3.2,5.6,5.2,8.3,4.8l0,0c2.2-0.1,4.9-2.2,7.5-4.5
				c8.2-7.4,21.5-21.3,21.5-21.3C312.7,114.7,313.8,102.4,313.1,97.9z"/>
			<path class="st3" d="M313.1,97.9c-3.8-0.5-7.7,0-11.2,1.7c-3.5,1.7-4.2,2.9-7.6,6.8s-8,9.9-8,9.9s2.6,11.2,13.5,14l14.4-16.7
				L313.1,97.9z"/>
			<path class="st8" d="M249.7,99.4c1.7,0.6,2.2,1.7,2.1,4.2c0,1.5,0.4,4.2,2,5.3c-0.8-0.1-1.5-0.4-2.1-0.9
				c-0.8-0.8-0.9-0.9-1.4-0.4c-0.3,0.3-0.7,0.5-1.1,0.6c0.6,0.6,0.6,1.6,0.2,2.3c-0.8,1.3-4.2,1.3-7-0.2c0,0,4.6,1.5,5.6,0
				s-1.3-3.3-3.1-3.8c0,0,4.4,1.1,5.1-0.4s-1.1-2.6-3.7-3.2c0,0,3.7,0.7,4.3-0.6C251.2,100.8,250.1,99.9,249.7,99.4z"/>
			<path class="st5" d="M315.6,80.6c-0.2-0.6-0.5-1.1-0.9-1.6c-0.6-0.5-1.2-1-1.9-1.3c-1.3-0.6-2.7-1.2-4.1-1.6
				c-2.4-0.8-5-1.8-6.2-4c-0.4-0.6-0.5-1.4-0.3-2.1c0.2-0.7,0.9-1.2,1.6-1.1c-0.9-0.6-1.7-1.3-2.3-2.2c-0.6-0.9-0.7-2-0.3-3.1
				c0.4-1,1.5-1.6,2.6-1.4c-1.2-1.2-2.7-2.3-3.3-4c-0.6-1.4-0.3-3,0.9-4c0.8-0.7,3.2-0.8,4.2-0.9c3.9-0.4,6.8-1.5,10.6-2.5
				c4.3-0.9,8.7-1.1,13.1-0.5c3.6,0.7,6.8,2.2,8.5,5.6c0.4,1,1.3,1.7,2.3,2c1.3,0.6,2.3,1.5,3,2.7c0.8,1.5,1.3,3.1,1.5,4.8
				c0.4,4.4-1,8.8-2.9,12.7s-3.3,5.6-5.1,9.6c-0.6,1.5-1.6,2.7-3,3.5c-1.1,0.6-12.4-1.3-14.1-3.9C318.1,85.2,316.8,82.9,315.6,80.6z
				"/>
			<path class="st2" d="M312.4,58.1c-2.5,1.3-8,6.9-7.1,19.9c0.6,9.7,2.8,12.1,5.4,14c2,1.4,4.5,1.6,7.9,1.2l0.1,4.8
				c0,0-9.6,8.3-2.1,9.7c4.2,0.6,8.4-0.4,11.8-2.8c1.9-1.2,3.5-2.7,4.7-4.6l0.8-14.6c0,0,1.8,2,5.3-0.7c2.9-2.2,4-6.2,2-8.4
				c-1.9-1.9-5-2-6.9-0.1c-0.3,0.3-0.6,0.7-0.9,1.1c0,0-1.9-0.5-3.6-4.2c-2.8-0.1-5.5-0.8-8-2.1C316.1,68.4,313.9,64.2,312.4,58.1z"
				/>
			<path class="st9" d="M321.3,83.8l-5.9,1.7c0.4,1.6,2,2.6,3.6,2.2c0,0,0.1,0,0.1,0C320.8,87.1,321.8,85.4,321.3,83.8z"/>
			<path class="st8" d="M317.8,87.7c0.1-1.6,1.4-2.7,3-2.7c0.2,0,0.4,0,0.6,0.1c-0.2,1.2-1,2.2-2.2,2.5
				C318.7,87.8,318.3,87.8,317.8,87.7z"/>
			<path class="st5" d="M307.3,70.9l3-1.5c-0.4-0.8-1.3-1.2-2.1-0.8c0,0-0.1,0-0.1,0C307.3,69,306.9,70.1,307.3,70.9z"/>
			<polygon class="st8" points="316.1,72.3 316,81.5 311,80.8 			"/>
			<path class="st8" d="M318.6,93.3c3.5-0.2,11.2-3.5,12.5-6.2c-0.3,1.9-1.4,3.5-2.9,4.6c-3.4,2.1-9.5,3.4-9.5,3.4L318.6,93.3z"/>
			<path class="st5" d="M333.6,75.1l-0.4,5.7l0,0c-2.1-0.1-3.8-2-3.6-4.1c0,0,0,0,0,0l0.3-5.2L333.6,75.1z"/>
			<path class="st5" d="M311,73.8c0.1,0.8-0.5,1.6-1.4,1.7c-0.8,0.1-1.5-0.4-1.6-1.2c0,0,0,0,0-0.1c-0.1-0.8,0.5-1.6,1.4-1.7
				c0.8-0.1,1.5,0.4,1.6,1.2C311,73.7,311,73.7,311,73.8z"/>
			<path class="st5" d="M322.9,74.2c0.1,0.8-0.5,1.6-1.3,1.7c-0.8,0.1-1.5-0.4-1.6-1.2c0,0,0,0,0-0.1c-0.1-0.8,0.5-1.6,1.4-1.7
				C322.1,72.8,322.8,73.3,322.9,74.2C322.9,74.1,322.9,74.2,322.9,74.2z"/>
			<path class="st10" d="M318.7,98.1c0,0-4.3,5.9-1.2,9.2c7.7-2.5,12.8-5.7,15.8-8.6c0,0,10.4,2,12.6,2.6s3.5,7.4,2.1,15.4
				s-5.8,21.9-5.8,21.9c4.8,6.7,8.7,13.9,11.7,21.5c0,0-8.1,12.6-36.2,14.9c-16.9,1.4-22.2-7.4-22.2-7.4c-0.1-6.3,1.8-19.9,4.1-26.1
				c0,0-1.6-5-0.9-9.3c0,0-4.5-3.5-4.8-8.7c-0.4-5.5,2.3-9.3,7.4-15.4c4.4-5.3,11.8-10.3,11.8-10.3L318.7,98.1z"/>
			<path class="st11" d="M314.4,130.4c2.3,4,6.6,6.3,11.2,5.8c4.4-0.3,8.3-2.9,10.2-6.8c0,0-0.1,8.6-10.2,8.9
				S314.4,130.4,314.4,130.4z"/>
			<path class="st3" d="M317.4,107.3c1,0,5.1-1,7.4,1.4s2.1,3.1,3.6,2.6s7.9-4.1,10-6.4c1.2-1.2,1.9-2.9,1.7-4.6c0,0-2-1.5-3.5-2.9
				s-1.9-1.8-3.1-1.9l-0.1,2.4c0,0-0.8,1.8-4.5,4.3S320.4,105.4,317.4,107.3z"/>
			<path class="st3" d="M317.4,107.3c-1.2-1.1-2.5-1.2-4.5-0.7s-2.9,1.8-2.9,0.7c0-1.1,1.7-4.9,3.2-7.1c1.5-2.2,4-4.5,5.3-4.7
				l0.1,2.6c0,0-2.4,3.7-2.1,5.4S317.2,105.6,317.4,107.3z"/>
			<path class="st3" d="M354.5,160.8l4,2.2c0.5,0.3,0.9,0.9,0.9,1.5c0.1,3.6,0.4,15.8-0.2,22.5c-0.1,0.6-0.5,1.2-1,1.5
				c-2.3,1.3-8.4,4.6-11.2,5.4c-0.6,0.1-1.3,0-1.9-0.2l-2.8-1.1c-0.5-0.2-0.9-0.8-0.9-1.4c0-7.1-1.3-14.9-2.4-22.7
				c-0.1-0.6,0.2-1.1,0.8-1.4l13.1-6.3C353.3,160.5,353.9,160.5,354.5,160.8z"/>
			<path class="st4" d="M359.2,187c0.6-6.7,0.3-18.9,0.2-22.5c0-0.3-0.2-0.6-0.5-0.7c-0.1,0-0.3,0-0.4,0.1l-12.1,6
				c-0.5,0.3-0.8,0.8-0.8,1.4c0.6,7.2,0.8,14.4,0.6,21.6c-0.1,0.4,0.2,0.8,0.6,0.9c0.1,0,0.2,0,0.3,0c2.8-0.8,8.9-4.1,11.2-5.4
				C358.7,188.1,359.1,187.6,359.2,187z"/>
			<path class="st5" d="M346.9,193.9c-0.6,0.1-1.2,0-1.8-0.2l-2.8-1.1c-0.5-0.3-0.9-0.8-0.9-1.4c-0.5-7.3-1.2-14.9-2.4-22.7
				c0-0.3,0-0.5,0.1-0.8l6.6,3c-0.1,0.2-0.2,0.5-0.1,0.7c0.6,7.2,0.8,14.4,0.6,21.6c-0.1,0.4,0.2,0.8,0.6,0.8
				C346.8,193.9,346.8,193.9,346.9,193.9z"/>
			<path class="st5" d="M357,167l-8.9,4.3l0.5,7.3l8.7-3.8C357.3,174.8,357.2,170.1,357,167z"/>
			<path class="st10" d="M348.5,178l8.2-3.6c0,0-0.1-4.1-0.2-7.2l-8.5,4.1L348.5,178z"/>
			<path class="st12" d="M348.5,178l8.2-3.6c0,0-0.1-4.1-0.2-7.2l-8.5,4.1L348.5,178z"/>
			<polygon class="st5" points="344.4,166.5 346.6,167.6 354.6,163.7 352.4,162.6 			"/>
			<polygon class="st10" points="344.7,166.7 346.6,167.6 354.2,163.8 352.4,162.9 			"/>
			<polygon class="st12" points="344.7,166.7 346.6,167.6 354.2,163.8 352.4,162.9 			"/>
			<polygon class="st12" points="345.8,166.1 347.7,167 348,166.9 346.1,166 			"/>
			<polygon class="st12" points="347.5,165.3 349.4,166.2 349.7,166.1 347.8,165.2 			"/>
			<polygon class="st12" points="349.2,164.5 351.1,165.4 351.4,165.2 349.5,164.4 			"/>
			<polygon class="st12" points="350.8,163.7 352.7,164.6 352.9,164.5 351,163.6 			"/>
			<path class="st5" d="M348.2,181.1l0.1,0.9c0,0.2,0.1,0.3,0.3,0.3c0.1,0,0.1,0,0.2,0l1.6-0.7c0.3-0.1,0.4-0.4,0.4-0.7l0-0.9
				c0-0.2-0.1-0.3-0.3-0.3c-0.1,0-0.1,0-0.2,0l-1.6,0.7C348.3,180.5,348.2,180.8,348.2,181.1z"/>
			<path class="st5" d="M348.2,184l0,0.9c0,0.2,0.1,0.3,0.3,0.4c0.1,0,0.1,0,0.2,0l1.6-0.6c0.3-0.1,0.4-0.4,0.5-0.7V183
				c0-0.2-0.1-0.3-0.3-0.4c-0.1,0-0.1,0-0.2,0l-1.6,0.7C348.4,183.4,348.2,183.7,348.2,184z"/>
			<path class="st5" d="M348.1,186.9v0.9c0,0.2,0.1,0.3,0.3,0.4c0.1,0,0.1,0,0.2,0l1.6-0.6c0.3-0.1,0.4-0.4,0.5-0.7v-0.9
				c0-0.2-0.1-0.3-0.3-0.4c-0.1,0-0.1,0-0.2,0l-1.7,0.6C348.3,186.3,348.1,186.6,348.1,186.9z"/>
			<path class="st5" d="M348.1,189.8v0.9c0,0.2,0.1,0.3,0.3,0.4c0.1,0,0.1,0,0.2,0l1.6-0.6c0.3-0.1,0.5-0.4,0.5-0.7v-0.9
				c0-0.2-0.1-0.3-0.3-0.4c-0.1,0-0.1,0-0.2,0l-1.7,0.6C348.3,189.3,348.1,189.5,348.1,189.8z"/>
			<path class="st5" d="M351.8,179.4v0.9c0,0.2,0.1,0.3,0.3,0.3c0.1,0,0.1,0,0.2,0l1.6-0.7c0.3-0.1,0.4-0.4,0.5-0.7v-0.9
				c0-0.2-0.1-0.3-0.3-0.3c-0.1,0-0.1,0-0.2,0l-1.6,0.7C352,178.8,351.8,179.1,351.8,179.4z"/>
			<path class="st5" d="M351.8,182.3v0.9c0,0.2,0.1,0.3,0.3,0.4c0.1,0,0.1,0,0.2,0l1.6-0.7c0.3-0.1,0.4-0.4,0.5-0.7v-1
				c0-0.2-0.1-0.3-0.3-0.4c-0.1,0-0.1,0-0.2,0l-1.6,0.7C352,181.7,351.8,182,351.8,182.3z"/>
			<path class="st5" d="M351.8,185.2v0.9c0,0.2,0.1,0.3,0.3,0.3c0.1,0,0.1,0,0.2,0l1.6-0.6c0.3-0.1,0.4-0.4,0.5-0.7v-1
				c0-0.2-0.1-0.3-0.3-0.4c-0.1,0-0.1,0-0.2,0l-1.6,0.7C352,184.6,351.8,184.9,351.8,185.2z"/>
			<path class="st5" d="M351.8,188.1v0.9c0,0.2,0.1,0.3,0.3,0.3c0.1,0,0.1,0,0.2,0l1.6-0.6c0.3-0.1,0.4-0.4,0.5-0.7v-1
				c0-0.2-0.1-0.3-0.3-0.4c-0.1,0-0.1,0-0.2,0l-1.6,0.7C352,187.5,351.8,187.8,351.8,188.1z"/>
			<path class="st5" d="M355.4,177.8v1c0,0.2,0.1,0.3,0.3,0.4c0.1,0,0.1,0,0.2,0l1.6-0.7c0.3-0.1,0.4-0.4,0.5-0.7v-1
				c0-0.2-0.1-0.3-0.3-0.3c-0.1,0-0.1,0-0.2,0l-1.6,0.7C355.6,177.2,355.4,177.5,355.4,177.8z"/>
			<path class="st5" d="M355.4,180.6v1c0,0.2,0.1,0.3,0.3,0.4c0.1,0,0.1,0,0.2,0l1.6-0.7c0.3-0.1,0.4-0.4,0.5-0.7v-1
				c0-0.2-0.1-0.3-0.3-0.3c-0.1,0-0.1,0-0.2,0l-1.6,0.7C355.6,180,355.4,180.3,355.4,180.6z"/>
			<path class="st5" d="M355.4,183.4v1c0,0.2,0.1,0.3,0.3,0.4c0.1,0,0.1,0,0.2,0l1.6-0.7c0.3-0.1,0.4-0.4,0.5-0.7v-1
				c0-0.2-0.1-0.3-0.3-0.3c-0.1,0-0.1,0-0.2,0l-1.6,0.7C355.6,182.9,355.4,183.1,355.4,183.4z"/>
			<path class="st5" d="M355.4,186.2v1c0,0.2,0.1,0.3,0.3,0.4c0.1,0,0.1,0,0.2,0l1.6-0.7c0.3-0.1,0.4-0.4,0.5-0.7v-1
				c0-0.2-0.1-0.3-0.3-0.3c-0.1,0-0.1,0-0.2,0l-1.6,0.7C355.6,185.7,355.4,185.9,355.4,186.2z"/>
			<polygon class="st5" points="269.6,135.8 308.1,142.4 323.3,188 286.6,180.8 			"/>
			<path class="st11" d="M302.4,169.7c0.8,3.1,3.3,5.5,6.4,6.2c3.4,0.6,7,0.4,10.2-0.9l-1.3-3.8L302.4,169.7z"/>
			<path class="st11" d="M281.2,141.6l-0.4-1.4c-0.2-0.8,2-1,4.9-0.5l5.7,0.9c3,0.5,5.5,1.5,5.8,2.3l0.4,1.4L281.2,141.6z"/>
			<path class="st10" d="M278.1,136.4c-0.1-0.5,0.7-0.7,2-0.5l2.2,0.4c0,0-0.9-3,4-2.4s6.3,4.1,6.3,4.1l2.4,0.5
				c1.3,0.3,2.6,0.9,2.8,1.3l0.4,0.9l-19.8-3.4L278.1,136.4z"/>
			<path class="st13" d="M278.1,136.4c-0.1-0.5,0.7-0.7,2-0.5l2.2,0.4c0,0-0.9-3,4-2.4s6.3,4.1,6.3,4.1l2.4,0.5
				c1.3,0.3,2.6,0.9,2.8,1.3l0.4,0.9l-19.8-3.4L278.1,136.4z"/>
			<path class="st10" d="M296.9,143c-0.2-0.6-2-1.5-4.3-2c0-0.1,0-0.2-0.1-0.2c-0.2-0.7,0.1-1.1,1.5-0.9l0.1-0.6l-13.7-2.2l0.6,0.6
				c1.8,0.3,2.6,0.4,2.9,1.6c0,0.1,0,0.2,0.1,0.3c-2.2-0.2-3.6,0.1-3.4,0.7l0.4,1.4l16.4,2.7L296.9,143z"/>
			<path class="st12" d="M296.9,143c-0.2-0.6-2-1.5-4.3-2c0-0.1,0-0.2-0.1-0.2c-0.2-0.7,0.1-1.1,1.5-0.9l0.1-0.6l-13.7-2.2l0.6,0.6
				c1.8,0.3,2.6,0.4,2.9,1.6c0,0.1,0,0.2,0.1,0.3c-2.2-0.2-3.6,0.1-3.4,0.7l0.4,1.4l16.4,2.7L296.9,143z"/>
			<path class="st2" d="M314.9,162.8c-4.6,1.7-9.9,1.2-14.8,1.4c-0.5,0-1,0.1-1.2,0.5c-0.1,0.4,0.1,0.9,0.4,1.1
				c0.4,0.2,0.7,0.5,1,0.8c0.4,0.6,0.2,1.3,0.3,1.9c0.3,0.9,0.8,1.8,1.5,2.4c0.7,0.8,1.5,1.6,2.5,2.2c3,1.8,7.6,1.9,11,1.3
				c2.3-0.5,4.5-1.2,6.7-2.1c2-0.8,14.5-4.8,16-5.4c11-4.1,26.1-9.2,26.9-14.5s-3.8-22.6-6.1-35.9c-2.2-12.6-6.9-14.2-14-15.5
				c-8.8,12.3-1.7,24.6-1.7,24.6l4.6,20.5c-1.2,1-19.1,11.6-22.2,12.7c-1.5,0.3-3,0.1-4.4-0.4c-2.6-0.8-5.4-1-8.1-0.6"/>
			<path class="st3" d="M344.8,101.1c7.5,0.8,11,2.7,12.9,8.7s4.7,20.3,4.7,20.3c-4.9,4.5-11.5,5.4-17.1,5.4l-2.5-10
				C340.8,121.5,337.4,109.9,344.8,101.1z"/>
		</g>
	</g>
</g>
<g id="freepik--character-1--inject-225">
	<g id="freepik--character--inject-225_1_">
		<g id="freepik--bottom--inject-225">
			<path class="st5" d="M122.2,341.5c-0.8,1.7-1.1,3.6-0.9,5.4c0.2,1.6,1.2,3.7,0.9,7.4s-1.1,4.9-1.4,7.5c-0.4,2.6,0.1,5.3,1.6,7.5
				c1.6,2.4,5.2,4.3,11.8,3.9c5.4-0.4,7.6-3.4,7.6-6.5L122.2,341.5z"/>
			<path class="st14" d="M124.8,338.3c3.4,1.8,8.9-0.3,13-2.5l4.2-25.4l-18.6-4.1L124.8,338.3z"/>
			<path class="st4" d="M123.4,333.8c-0.1,0.7-0.2,1.4-0.2,2.1c-0.2,1.2-0.5,2.5-0.7,3.7c-0.1,0.3-0.1,0.6-0.2,1
				c-0.4,2.5,0.2,5,0.2,7.5c-0.1,3-0.5,5.9-1.2,8.8c-1,5.2-1,8.5,3.7,12c2.5,1.8,5,2,8.1,2c2.3,0,5.5-0.6,6.6-1.9
				c1.5-1.6,1.8-2.7,1.8-3.2c0-5.5-2.3-11.9-2.9-17.4c-0.2-1.5-0.3-3-0.3-4.5c0.1-1.8,0.7-3.7,0.8-5.5c0.1-0.7,0-1.4-0.3-2
				c-0.6-0.7-1.6-1-2.5-1c-2.4-0.2-4.9-0.4-7.3-0.5c-0.6-0.1-1.2,0-1.6,0.4c-0.4,0.5-0.6,1.2-0.5,1.8c-0.1,0.6-0.5,1.4-1.2,1.2
				c-0.4-0.1-0.7-0.5-0.8-0.9c-0.1-0.4-0.4-3.6-0.4-4C124.6,333.4,123.7,333.3,123.4,333.8z"/>
			<path class="st3" d="M142,364.8c0-1.2-0.3-2.3-0.9-3.4c-2.7-4.9-16.3-4.5-20.4,0.6c0.1,3.1,0.5,4.8,3.4,6.9c2.4,1.8,6.1,2,9.1,2
				c2.3,0,5.3-0.9,6.7-2.1C141.6,367.5,142,366.8,142,364.8z"/>
			<path class="st14" d="M159.8,339.1c2.8,6.1,7.3,3.7,13.1-0.3l2.8-36.8l-17.8,4.8L159.8,339.1z"/>
			<path class="st5" d="M196.4,353.1c0.3,1,0.3,2.1-0.2,3c-0.4,0.9-5.1,3.5-11.3,3.1c-4.7-0.3-9.1-1.9-13-4.5
				c-2.4-1.6-4.9-1.9-8-2.1s-7.2-1.7-7.9-3.2c-0.7-1.5,0.1-4,0.1-4L196.4,353.1z"/>
			<path class="st4" d="M174.5,333.7c0.2,0.5,0.4,0.9,0.6,1.4c0.7,1.7,1.8,3.3,3.3,4.4c2.1,1.6,4.4,2.9,6.8,4c1.5,0.8,3.1,1,4.6,1.6
				c1.7,0.6,3.4,1.4,5,2.4c2.5,1.6,2.8,5.8,0,7.5c-2.4,1.4-8.8,3-15.4,1.1c-3.6-1-7.7-4.9-12.4-5.3c-3-0.2-8.8-1.1-10.7-3.4
				c-0.6-3.3,0.2-4.2,1-7c0.4-1.6,0.7-3.2,0.8-4.8c0-0.9-0.4-3.3,1.4-3.6l0.1,1.9c0,0,0.3,0.6,2.2,1c0.6,0.1,1,0.9,1.4,1.7
				c0.2,0.6,0.5,1.3,1.1,1.3c0.4,0,0.8-0.3,1-0.7c0.2-0.4,0.3-0.8,0.4-1.2c0.5-1.3,1.6-2.3,2.9-2.7c1.1-0.3,2.2-0.5,3.3-0.6
				c0.9-0.1,1.6-0.4,2.3,0.3C174.3,333.2,174.4,333.5,174.5,333.7z"/>
			<path class="st3" d="M157.7,338.4c-0.1,0.7-0.3,1.3-0.4,2c-0.8,2.8-1.7,3.7-1,7c1.5,1.8,5.2,2.7,8.2,3.1
				C165.5,344.8,161.9,340.6,157.7,338.4z"/>
			<path class="st3" d="M126.1,192.2c-0.8,23.8-0.5,33.4-0.4,77.2c-2,6.7-3.1,13.7-3.2,20.7c-0.3,11,0.9,33.7,0.9,33.7
				s9.1,5.6,16.8,1.1c0,0,6.2-33.4,8.5-48.7c2.1-13.4,4.3-33.1,4.3-33.1l3,28c-0.8,7-1,14.2-0.5,21.2c0.5,7.2,2.5,32.5,2.5,32.5
				s8.2,5.8,16.9,1.1c0,0,4-50.4,4.2-56.9c0.1-7.4-2.8-83.1-2.8-83.1L126.1,192.2z"/>
			<path class="st5" d="M153,243.2l4.5-26c0,0,9.8-0.9,15.2-6.3c0,0-1,5.4-13.3,8.6l-4.5,26.3l1,25.5L153,243.2z"/>
			<path class="st3" d="M194.9,347.4c-1.4-0.8-2.9-1.4-4.4-1.9c-7.7,0.8-10.3,7.7-9.9,11c6.1,1.7,12,0.1,14.2-1.2
				C197.6,353.6,197.4,349,194.9,347.4z"/>
		</g>
		<g id="freepik--top--inject-225_1_">
			<path class="st14" d="M210.1,181.4c-7.5-3.5-27.2-13.4-27.2-13.4s-3.6-16.9-4.7-24.2c-1.5-9.9-7.4-12.2-15-12.8
				c0.6,6,3.8,27.3,6,43.6c0.6,4.4,0.4,5.6,5.1,7.5c10.8,4.5,25.1,7.5,27.2,8.8"/>
			<path class="st3" d="M162.4,131c4.9,0.1,8.5,0.7,11.4,3.1s3.9,5.4,4.9,9.8s2.9,16.5,2.9,16.5s-5.4,4.4-16,2.2L162.4,131z"/>
			<path class="st10" d="M175.4,149.3c-1.1-7.6-2.1-17.9-13.9-18.4l-15.4-0.7c-3.8,1-20.5,5.9-20.5,5.9v24.3c0,0,0.6,10.2,1.2,23
				c0,0-1.4,14.9-1.2,20.8c10.9,6.9,40,5,51.6-2C177.5,191.5,176.4,156.9,175.4,149.3z"/>
			<path class="st10" d="M132.8,133.9c4.4,15.4,4.4,28.3,3.1,46c-1.3,17.9-4.2,68.1-4.7,72.9c9.5,1.2,19.1,1.4,28.6,0.7
				c15.4-1.1,20.7-4.7,20.7-4.7s-1.4-50.4-2.8-75.1s-9.1-41.5-14.7-42.7l-4.3-0.5c1.9,2.4,3.5,5.1,4.6,8c2.1,5.2,3.3,13.3,3.3,13.3
				l-22.6,1.7c0,0-2.5-13.7-6.7-21.2L132.8,133.9z"/>
			<path class="st12" d="M132.8,133.9c4.4,15.4,4.4,28.3,3.1,46c-1.3,17.9-4.2,68.1-4.7,72.9c9.5,1.2,19.1,1.4,28.6,0.7
				c15.4-1.1,20.7-4.7,20.7-4.7s-1.4-50.4-2.8-75.1s-9.1-41.5-14.7-42.7l-4.3-0.5c1.9,2.4,3.5,5.1,4.6,8c2.1,5.2,3.3,13.3,3.3,13.3
				l-22.6,1.7c0,0-2.5-13.7-6.7-21.2L132.8,133.9z"/>
			
				<rect x="138.7" y="157.3" transform="matrix(0.9976 -6.982913e-02 6.982913e-02 0.9976 -10.7621 10.5474)" class="st15" width="13.6" height="3.8"/>
			<path class="st11" d="M170.6,194.1c-6.9,1.5-14,2-21,1.4c0,0,0,10.8-6,14l-0.5,8.4c11.6,4.7,23.4,3.9,33.6-2.3l-0.2-8.3
				C176.3,207.3,171.1,204.5,170.6,194.1z"/>
			<path class="st5" d="M175.9,87.9c0,0,0-0.1,0-0.1c0.2-1.2-0.3-2.3-1.2-3.1c-1.1-0.7-2.6-0.2-3.8,0.2c0.5-1.6,0.6-3.6-0.5-4.9
				c-1.2-1.1-2.9-1.5-4.4-0.9c-1.5,0.6-2.8,1.5-4,2.6c0-1-0.1-1.9-0.4-2.8c-0.3-0.9-1-1.7-1.9-2c-1.1-0.2-2.2,0.1-3.1,0.7
				c-2.6,1.3-5.6,3.4-8.5,3.9c-3,0.6-5.9,1.7-8.5,3.3c-0.7,0.4-1.4,1-1.9,1.7c-0.6,1-0.9,2.2-0.8,3.4c0,0.4,0.1,0.8,0.2,1.1
				c-0.2-0.3-0.5-0.5-0.8-0.6c-1.4-0.7-3.2-0.1-3.9,1.3c0,0,0,0.1-0.1,0.1l3.7,1.8c-1,0.2-2,0.8-2.7,1.6c-1.8,2-0.6,8,2,13.9
				c0,0,3.8,9.1,4.7,10.9c1,2.1,1.8,3.8,1.8,3.8l-0.4-6.6l6.2-0.6c1.8-0.3,3.6-0.4,5.4-0.3c1.7,0.1,3.4-0.5,4.8-1.5
				c3-1.9,5.8-4,8.4-6.2c1.7-1.4,3.3-3,4.6-4.8c1.3-1.8,1.9-4,1.8-6.3c-0.2-0.9-0.2-1.9,0-2.9c0.3-0.8,0.8-1.5,1.4-2.1
				C175.2,91.2,175.8,89.6,175.9,87.9z"/>
			<path class="st14" d="M154.1,95.6c-1.4-0.2-2.8-0.5-4.2-0.8l-0.4-0.1c-1.1,3.2-3.7,5.6-7,6.3c0.5,2.6,0.6,5.3,0.2,7.9
				c-0.1,0.6-0.3,1.1-0.6,1.6c-0.3,0.5-0.8,0.8-1.4,0.9c-0.8,0.1-1.1-0.4-1.3-1c-0.3-0.8-0.7-1.5-1.2-2.2c-0.2-0.3-0.4-0.6-0.7-0.9
				c-1.2-1.1-4.6-2.4-6.2,1.3c-1.6,3.7,1.4,8.8,4.2,9.6c4.8,1.3,5.8-1.9,5.8-1.9l0.9,17.1c2.7,2.7,12.5,6.5,15.4,9.7
				c1.3-2.2,4.9-7.6,0.1-10.6l-0.2-5.2c2.1,0.3,4.3,0.3,6.4,0.1c3.5-0.7,5.2-3.6,6.1-7.4c1.5-6.1,1.3-17.8,0.8-22.4
				c-0.1-1.7-0.4-3.3-0.7-4.9c0.2,0.5-3.3,1.8-3.7,2c-1.6,0.5-3.2,0.8-4.8,1c-1.9,0.2-3.8,0.3-5.7,0.2
				C155.4,95.7,154.8,95.7,154.1,95.6z"/>
			<path class="st16" d="M157.6,127.2c0,0-7.8-1.3-10.6-2.7c-1.6-0.8-3-2-3.9-3.6c0.5,1.6,1.2,3.1,2.3,4.3
				c2.1,2.5,12.3,3.6,12.3,3.6L157.6,127.2z"/>
			<path class="st5" d="M155.6,107.2c0.1,0.8-0.5,1.5-1.3,1.6c-0.8,0.1-1.5-0.5-1.6-1.3c0-0.1,0-0.1,0-0.2c0-0.8,0.6-1.5,1.4-1.5
				c0,0,0,0,0,0C154.9,105.7,155.6,106.4,155.6,107.2z"/>
			<path class="st5" d="M154.1,100l-3.7,1.1c-0.3-1,0.3-2.1,1.3-2.4C152.8,98.4,153.8,98.9,154.1,100
				C154.1,99.9,154.1,100,154.1,100z"/>
			<path class="st16" d="M154.8,117l5.4,1.8c-0.4,1.5-2,2.3-3.5,1.9c0,0-0.1,0-0.1,0C155.1,120.1,154.3,118.5,154.8,117z"/>
			<path class="st5" d="M169.8,100.6l-3.7-0.5c0.1-1,1-1.7,2-1.6C169.1,98.6,169.9,99.5,169.8,100.6z"/>
			<path class="st4" d="M147,101.9l-12.2,4.2c1.4,0,2.7,0.7,3.5,1.8l8.7-3.3L147,101.9z"/>
			<path class="st5" d="M169,106.6c0.1,0.8-0.5,1.5-1.3,1.6s-1.5-0.5-1.6-1.3c0-0.1,0-0.1,0-0.2c0-0.8,0.6-1.5,1.4-1.6c0,0,0,0,0,0
				C168.3,105.1,169,105.8,169,106.6z"/>
			<path class="st4" d="M175.2,101.3l-0.8-0.1c-2.6-0.2-6-0.3-8,0.4c-2.6,0.8-3.5,1.7-4.9,1.8s-2.4-0.8-5.2-1.6
				c-2.2-0.6-5.8-0.4-8.6-0.1l-0.9,0.1c-0.6,0.2-1,0.8-1,1.5c0.1,0.6,0.4,1.2,0.8,1.7c0.1,0.2,0.2,0.4,0.3,0.7
				c0.2,1.6,0.5,3.1,1,4.6c0.3,0.6,0.6,1.1,1,1.6c0.2,0.2,0.4,0.3,0.6,0.5l0.3,0.2c0.3,0.2,0.6,0.3,1,0.4h0.2l0.2,0.1l0.3,0.1
				c0.3,0.1,0.5,0.1,0.8,0.1h0.4c0.1,0,0.3,0,0.5,0c2.5,0.2,4.9-1.3,5.9-3.6c0.9-1.8,0.7-4.3,2.3-4.3h0.2h0.1c1.2,0.3,1,2.5,1.7,4.2
				c0.3,0.6,0.7,1.2,1.1,1.8l0.3,0.3l0.2,0.1l0.1,0.1l0.1,0.1l0.1,0.1l0.1,0.1l0.1,0.1c0.4,0.3,0.9,0.4,1.4,0.5h0.1
				c0.6,0.1,1.1,0.2,1.7,0.1c2.2,0.1,4.2-1.3,5-3.3c0.5-1.5,0.9-3.1,1.1-4.7c0.1-0.2,0.2-0.4,0.3-0.6c0.4-0.5,0.7-1.1,0.8-1.7
				C176.1,102,175.7,101.5,175.2,101.3z M158.2,108.2c-0.2,0.9-0.6,1.8-1.3,2.5l0,0c-1,1-2.4,1.6-3.9,1.5c-1.4,0.1-2.8-0.5-3.7-1.7
				c0-0.1-0.1-0.1-0.1-0.2c0-0.1-0.1-0.1-0.1-0.2l-0.1-0.2c0,0-0.1-0.1-0.1-0.2l-0.1-0.1c0,0,0-0.1,0-0.1c0-0.1-0.1-0.1-0.1-0.2l0,0
				c-0.1-0.2-0.1-0.3-0.2-0.5l0,0l-0.1-0.3c0-0.2-0.1-0.3-0.1-0.5s0-0.1,0-0.1v-0.1c-0.2-1.2-0.5-3.6,0.1-4.2
				c0.6-0.6,2.2-1.2,4.8-0.9c0.1,0,0.2,0,0.3,0c0.4,0,0.8,0.1,1.2,0.2l0.5,0.1c0.4,0.1,0.8,0.2,1.2,0.4l0.3,0.2l0.4,0.2h0.1l0.1,0.1
				c0.3,0.1,0.6,0.4,0.8,0.6C158.7,105.2,158.5,106.8,158.2,108.2L158.2,108.2z M173.4,107.4c-0.2,1-0.7,3.1-2.6,4
				c-0.6,0.3-1.3,0.5-2,0.5c-1.5,0.2-3-0.5-3.9-1.8l0,0l-0.1-0.1l-0.1-0.1v-0.1l-0.1-0.2c0-0.1-0.1-0.2-0.1-0.2v-0.1c0,0,0,0,0-0.1
				v-0.1V109c-0.1-0.3-0.2-0.6-0.2-0.9c-0.2-1.4-0.4-2.9,0.1-3.7s2.4-1.6,4.3-1.9c0.4-0.1,0.8-0.1,1.2-0.1h0.3c0.1,0,0.3,0,0.4,0
				h0.3h0.3l0.6,0.1h0.1l0,0h0.1h0.1l0.2,0.1l0.3,0.1l0,0c0.2,0.1,0.4,0.2,0.6,0.4C174.1,103.7,173.7,106.2,173.4,107.4L173.4,107.4
				z"/>
			<path class="st16" d="M161,105.6l0.3,10.2l5.7-1.6l-5.3-8.6C161.4,105.5,161.2,105.6,161,105.6z"/>
			<path class="st3" d="M157.6,143c-2-1.2-6-3.2-8.1-1c-2.1,2.2-3.2,2.9-4.7,2.5s-5.8-5-7.4-7.5c-1.8-2.9-1.4-4-1.4-4l3.5-4.6
				c1-1.3,1.3-1.4,2.5-1.5l0.2,3.4c0.3,1.7,1.2,3.2,2.6,4.2C148.2,136.9,155.1,137.5,157.6,143z"/>
			<path class="st3" d="M157.6,143c1.1-1.1,3.6-3.7,5.5-3.2c1.9,0.5,2.7,1.7,2.8,0.7s-1.7-4.7-3.1-6.8s-4-4.3-5.2-4.5l0.1,3.1
				c0,0,2.2,2.8,2,4.6S157.9,141.3,157.6,143z"/>
		</g>
		<g id="freepik--cargo-car--inject-225">
			<path class="st1" d="M217.7,195.4l-43.4,25.1c-4.8,2.8-8.7,9.5-8.7,15v125.1l-4,2.3V232.2c0-5.5,3.9-12.2,8.7-15l47.7-27.5
				c4.8-2.8,8.7-0.5,8.7,5v130.7l-4.1,2.4V198.1C222.5,195.1,220.4,193.9,217.7,195.4z"/>
			<path class="st3" d="M256,438.3c-0.3-5.5-3.2-10.5-7.8-13.4c-2.2-1.3-4.3-1.4-5.7-0.4l0,0l-5.2,3l11.1,18.9l5.2-3l0,0
				C255,442.6,256,440.9,256,438.3z"/>
			<path class="st4" d="M242.8,428c4.6,3,7.5,8,7.8,13.4c0,4.9-3.5,7-7.8,4.5c-4.6-3-7.5-8-7.8-13.4
				C235,427.6,238.5,425.6,242.8,428z"/>
			<path class="st5" d="M240.1,435.5c0-1.9,1.2-2.8,2.6-2c1.6,1.2,2.6,3,2.6,5c0,1.9-1.2,2.8-2.6,2
				C241.1,439.3,240.2,437.5,240.1,435.5z"/>
			<path class="st6" d="M251.9,419.8c0,0,0,8.9-4.2,12c-0.8,0.6-1.6,1-2.1,1.4c-1.1,0.9-0.4,2.5,0.9,3.2c1.9,1,12.2-1.7,16.6-10.2
				L251.9,419.8z"/>
			<path class="st15" d="M247.8,422.1c0,0,0,8.9-4.2,12c-0.8,0.6-1.6,1-2.1,1.4c-1.1,0.9-0.4,2.5,0.9,3.2c1.9,1,12.2-1.7,16.6-10.2
				L247.8,422.1z"/>
			<path class="st5" d="M242.8,436.1c0.4,0.3,0.7,0.8,0.7,1.3c0,0.5-0.3,0.7-0.7,0.4c-0.4-0.3-0.7-0.8-0.7-1.3
				C242,436.1,242.4,435.9,242.8,436.1z"/>
			<path class="st3" d="M171.7,389.7c-0.3-5.5-3.2-10.4-7.7-13.4c-2.2-1.3-4.3-1.4-5.7-0.4l0,0l-5.2,3l11.1,18.9l5.2-3l0,0
				C170.8,394,171.7,392.2,171.7,389.7z"/>
			<path class="st4" d="M158.6,379.4c4.6,3,7.5,8,7.8,13.4c0,4.9-3.5,7-7.8,4.5c-4.6-3-7.5-8-7.8-13.4
				C150.8,378.9,154.3,376.9,158.6,379.4z"/>
			<path class="st5" d="M155.9,386.9c0-1.9,1.2-2.8,2.6-2c1.6,1.2,2.6,3,2.6,5c0,1.9-1.2,2.8-2.6,2
				C156.9,390.7,156,388.8,155.9,386.9z"/>
			<path class="st6" d="M167.6,371.2c0,0,0,8.9-4.2,12c-0.8,0.6-1.6,1-2.1,1.4c-1.1,0.9-0.4,2.5,0.9,3.2c1.9,1,12.3-1.7,16.6-10.2
				L167.6,371.2z"/>
			<path class="st15" d="M163.6,373.5c0,0,0,8.9-4.2,12c-0.8,0.6-1.6,1-2.1,1.4c-1.1,0.9-0.4,2.5,0.9,3.2c1.9,1,12.3-1.7,16.6-10.2
				L163.6,373.5z"/>
			<path class="st5" d="M158.6,387.5c0.4,0.3,0.7,0.8,0.7,1.3c0,0.5-0.3,0.7-0.7,0.4c-0.4-0.3-0.7-0.8-0.8-1.3
				C157.8,387.5,158.1,387.3,158.6,387.5z"/>
			<polygon class="st3" points="157.5,365.2 230.6,323 344.4,388.7 271.2,430.9 			"/>
			<polygon class="st4" points="157.5,365.2 157.5,369.9 271.2,435.6 271.2,430.9 			"/>
			<polygon class="st5" points="344.4,388.7 344.4,393.4 271.2,435.6 271.2,430.9 			"/>
			<polygon id="freepik--shadow--inject-225_3_" class="st4" points="163.9,365 228,402 295.6,363 231.4,326.1 			"/>
			<g id="freepik--medical-mask-box--inject-225">
				<polygon class="st10" points="289.6,322.4 231,288.5 169,324.3 227.6,358.3 				"/>
				<polygon class="st17" points="289.6,322.4 231,288.5 169,324.3 227.6,358.3 				"/>
				<polygon id="freepik--shadow--inject-225_4_" class="st18" points="170.8,323.3 227.7,356.2 287.9,321.4 231,288.5 				"/>
				<polygon class="st10" points="227.6,399.3 289.6,363.4 289.6,322.4 227.6,358.3 				"/>
				<polygon class="st19" points="227.6,399.3 289.6,363.4 289.6,322.4 227.6,358.3 				"/>
				<path class="st3" d="M234.5,385.7c-0.2,0-0.4,0-0.5-0.1c-0.5-0.3-0.7-0.9-0.7-1.5v-4.3l0,0v-0.3h0.2l3.4-2v4.9
					c0,1.3-0.6,2.4-1.7,3.2C235,385.6,234.7,385.6,234.5,385.7z M233.8,380v4c0,0.4,0.1,0.8,0.4,1c0.2,0.1,0.5,0.1,0.8,0
					c0.9-0.6,1.4-1.6,1.4-2.7v-0.4h-1.3l-0.2-1.7L233.8,380z M235.6,381.4h0.8v-3l-2,1.2l1,0.2L235.6,381.4z"/>
				<path class="st3" d="M235.1,389.1c-0.2,0-0.3-0.1-0.3-0.3v-3.6c0-0.2,0.1-0.3,0.3-0.3c0.1,0,0.3,0.1,0.3,0.3v3.6
					C235.4,389,235.3,389.1,235.1,389.1z"/>
				<path class="st3" d="M233.5,390c-0.1,0-0.2-0.1-0.2-0.1c-0.1-0.1,0-0.3,0.1-0.4c0,0,0,0,0,0l3.2-1.8c0.1-0.1,0.3,0,0.4,0.1
					c0.1,0.1,0,0.3-0.1,0.4l0,0l-3.2,1.9C233.6,390,233.6,390,233.5,390z"/>
				<path class="st3" d="M244.8,383.8c-0.1,0-0.2,0-0.3-0.1c-0.2-0.1-0.3-0.4-0.3-0.7v-0.8c0-0.1,0.1-0.3,0.3-0.3
					c0.2,0,0.3,0.1,0.3,0.3v0.7c0,0.1,0,0.2,0,0.2s0.1,0,0.2,0c0.3-0.3,0.5-0.8,0.5-1.2v-4.9c0-0.2,0.1-0.3,0.3-0.3
					c0.1,0,0.3,0.1,0.3,0.3v4.9c0,0.7-0.3,1.3-0.8,1.7C245.1,383.7,244.9,383.8,244.8,383.8z"/>
				<path class="st3" d="M241.9,379.5V379c0.1-2.5,1.4-4.7,3.5-6c1-0.8,2.4-0.7,3.3,0.3c0.4,0.5,0.6,1.2,0.5,1.9v0.2L241.9,379.5z
					 M247.1,373c-0.5,0-1,0.2-1.4,0.4c-1.8,1.2-2.9,3-3.2,5.1l6.1-3.5c0.1-0.7-0.3-1.4-0.8-1.8C247.6,373.1,247.3,373,247.1,373
					L247.1,373z"/>
				<path class="st3" d="M254.6,378.2c-0.1,0-0.3-0.1-0.3-0.3v-9.3c0-0.2,0.2-0.3,0.3-0.2c0.1,0,0.2,0.1,0.2,0.2v9.3
					C254.9,378,254.8,378.2,254.6,378.2C254.6,378.2,254.6,378.2,254.6,378.2z"/>
				<path class="st3" d="M253.8,370.7c0,0-0.1,0-0.1,0c-0.1-0.1-0.2-0.2-0.1-0.4c0,0,0,0,0,0l1-2.2l1.1,1.2c0.1,0.1,0.1,0.3-0.1,0.4
					c-0.1,0.1-0.3,0.1-0.4,0l-0.5-0.6l-0.6,1.5C254.1,370.7,253.9,370.7,253.8,370.7z"/>
				<path class="st3" d="M257.1,376.7c-0.1,0-0.3-0.1-0.3-0.3v-9.3c0-0.1,0.1-0.3,0.3-0.3c0.1,0,0.3,0.1,0.3,0.3v9.3
					C257.4,376.6,257.3,376.7,257.1,376.7z"/>
				<path class="st3" d="M256.4,369.3c0,0-0.1,0-0.1,0c-0.1-0.1-0.2-0.2-0.1-0.4c0,0,0,0,0,0l1-2.2l1.1,1.2c0.1,0.1,0.1,0.3,0,0.4
					c-0.1,0.1-0.3,0.1-0.4,0l-0.5-0.6l-0.6,1.5C256.6,369.2,256.5,369.3,256.4,369.3z"/>
				<polygon class="st10" points="227.6,399.3 169,365.3 169,324.3 227.6,358.3 				"/>
				<polygon class="st20" points="227.6,399.3 169,365.3 169,324.3 227.6,358.3 				"/>
				<polygon class="st4" points="193.6,344.8 197.6,347.1 197.6,340.9 193.6,338.5 				"/>
				<polygon class="st3" points="197.6,340.9 259.6,305 255.6,302.7 193.6,338.5 				"/>
				<polygon class="st4" points="195.4,337.5 199.4,339.8 201.7,338.5 197.7,336.2 				"/>
			</g>
			<g id="freepik--gloves-box--inject-225">
				<polygon class="st10" points="289.5,276.8 234.9,245.2 173.1,281 227.7,312.5 				"/>
				<polygon class="st21" points="289.5,276.8 234.9,245.2 173.1,281 227.7,312.5 				"/>
				<polygon class="st10" points="227.7,353.6 289.5,317.8 289.5,276.8 227.7,312.5 				"/>
				<path class="st3" d="M234.5,340c-0.2,0-0.4,0-0.5-0.1c-0.5-0.3-0.7-0.9-0.7-1.5V334l0,0v-0.3h0.2l3.4-2v4.9
					c0,1.3-0.6,2.4-1.7,3.2C235.1,339.9,234.8,340,234.5,340z M233.9,334.4v4c0,0.4,0.1,0.8,0.4,1c0.2,0.1,0.5,0.1,0.7-0.1
					c0.9-0.6,1.4-1.6,1.4-2.7v-0.4h-1.3l-0.2-1.7L233.9,334.4z M235.6,335.7h0.8v-3l-2,1.2l1,0.2L235.6,335.7z"/>
				<path class="st3" d="M235.1,343.4c-0.1,0-0.3-0.1-0.3-0.3v-3.7c0-0.1,0.1-0.3,0.3-0.3c0.1,0,0.3,0.1,0.3,0.3c0,0,0,0,0,0v3.6
					C235.4,343.3,235.3,343.4,235.1,343.4C235.1,343.4,235.1,343.4,235.1,343.4z"/>
				<path class="st3" d="M233.5,344.3c-0.1,0-0.3-0.1-0.3-0.3c0-0.1,0.1-0.2,0.1-0.2l3.2-1.8c0.1-0.1,0.3,0,0.4,0.1c0,0,0,0,0,0
					c0.1,0.1,0,0.3-0.1,0.4l-3.2,1.8C233.6,344.3,233.6,344.3,233.5,344.3z"/>
				<path class="st3" d="M244.9,338c-0.1,0-0.2,0-0.3-0.1c-0.2-0.1-0.3-0.4-0.3-0.7v-0.7c0-0.2,0.1-0.3,0.2-0.3
					c0.2,0,0.3,0.1,0.3,0.2c0,0,0,0.1,0,0.1v0.7c0,0.1,0,0.1,0,0.2c0.1,0,0.1,0,0.2,0c0.3-0.3,0.5-0.8,0.5-1.2v-4.9
					c0-0.1,0.1-0.3,0.3-0.3c0.1,0,0.3,0.1,0.3,0.3v4.9c0,0.7-0.3,1.3-0.8,1.7C245.1,338,245,338,244.9,338z"/>
				<path class="st3" d="M242,333.8v-0.5c0.1-2.5,1.4-4.7,3.5-6c1-0.8,2.4-0.7,3.3,0.3c0.4,0.5,0.6,1.2,0.5,1.9v0.2L242,333.8z
					 M247.1,327.3c-0.5,0-1,0.2-1.4,0.4c-1.8,1.2-2.9,3-3.2,5.1l6.1-3.5c0.1-0.7-0.3-1.4-0.8-1.8
					C247.6,327.4,247.4,327.3,247.1,327.3L247.1,327.3z"/>
				<path class="st3" d="M254.7,332.5c-0.2,0-0.3-0.1-0.3-0.3v-9.3c0-0.2,0.1-0.3,0.3-0.3c0.1,0,0.3,0.1,0.3,0.3c0,0,0,0,0,0v9.3
					C254.9,332.3,254.8,332.5,254.7,332.5z"/>
				<path class="st3" d="M253.9,325c0,0-0.1,0-0.1,0c-0.1-0.1-0.2-0.2-0.1-0.4c0,0,0,0,0,0l1-2.2l1.1,1.2c0.1,0.1,0.1,0.3,0,0.4
					c-0.1,0.1-0.3,0.1-0.4,0l-0.5-0.6l-0.6,1.5C254.1,325,254,325,253.9,325z"/>
				<path class="st3" d="M257.2,331c-0.1,0-0.3-0.1-0.3-0.3v-9.3c0-0.1,0.1-0.3,0.3-0.3c0,0,0,0,0,0c0.2,0,0.3,0.1,0.3,0.3v9.3
					C257.5,330.9,257.3,331,257.2,331z"/>
				<path class="st3" d="M256.4,323.6c0,0-0.1,0-0.1,0c-0.1-0.1-0.2-0.2-0.1-0.4l1-2.2l1.1,1.2c0.1,0.1,0.1,0.3,0,0.4c0,0,0,0,0,0
					c-0.1,0.1-0.3,0.1-0.4,0l-0.5-0.6l-0.6,1.5C256.6,323.6,256.5,323.6,256.4,323.6z"/>
				<polygon class="st10" points="227.7,353.6 173.1,322 173.1,281 227.7,312.5 				"/>
				<polygon class="st18" points="227.7,353.6 173.1,322 173.1,281 227.7,312.5 				"/>
				<polygon class="st4" points="197.7,301.4 201.7,303.7 201.7,297.5 197.7,295.2 				"/>
				<polygon class="st3" points="201.7,297.5 263.5,261.8 259.5,259.4 197.7,295.2 				"/>
			</g>
			<g id="freepik--cans--inject-225">
				<path class="st4" d="M290.6,380.7c5.3,3.1,14,3.1,19.4,0s5.3-8.1,0-11.2c-5.3-3.1-14-3.1-19.4,0S285.3,377.6,290.6,380.7z"/>
				<path class="st7" d="M311.9,374.6L311.9,374.6v-23.1h-23.1v23.1l0,0c-0.1,1.8,1,3.6,3.4,4.9c4.5,2.6,11.8,2.6,16.3,0
					C310.9,378.2,312,376.4,311.9,374.6z"/>
				<path class="st15" d="M292.1,356.3c4.5,2.6,11.8,2.6,16.4,0s4.5-6.8,0-9.4s-11.8-2.6-16.4,0S287.6,353.7,292.1,356.3z"/>
				<path class="st7" d="M292.6,355.9c4.8,2.4,10.5,2.4,15.4,0c4.2-2.4,4.2-6.3,0-8.7c-4.8-2.4-10.5-2.4-15.4,0
					C288.4,349.6,288.4,353.5,292.6,355.9z"/>
				<path class="st0" d="M308,348.3c-4.8-2.4-10.5-2.4-15.4,0c-2.1,0.4-3.5,2.4-3.1,4.5c0.3,1.6,1.5,2.8,3.1,3.1
					c4.8,2.4,10.5,2.4,15.4,0c2.1-0.4,3.5-2.4,3.1-4.5C310.8,349.8,309.6,348.6,308,348.3z"/>
				<path class="st10" d="M288.8,370.7c0,1.7,1.1,3.4,3.4,4.8c4.5,2.6,11.8,2.6,16.4,0c2.3-1.3,3.4-3,3.4-4.7v-15.5
					c0,1.7-1.1,3.4-3.4,4.7c-4.5,2.6-11.8,2.6-16.4,0c-2.3-1.3-3.4-3-3.4-4.8V370.7z"/>
				<path class="st13" d="M288.8,370.7c0,1.7,1.1,3.4,3.4,4.8c4.5,2.6,11.8,2.6,16.4,0c2.3-1.3,3.4-3,3.4-4.7v-15.5
					c0,1.7-1.1,3.4-3.4,4.7c-4.5,2.6-11.8,2.6-16.4,0c-2.3-1.3-3.4-3-3.4-4.8V370.7z"/>
				<path class="st18" d="M305.1,380.9c-4.3,1.1-9.4,0.6-12.9-1.4c-2.4-1.4-3.5-3.1-3.4-4.9l0,0v-23.1c0,1.7,1.1,3.4,3.4,4.7
					c1.5,0.8,3.1,1.4,4.7,1.6v19.5C296.9,379.4,299.7,381.7,305.1,380.9z"/>
				<path class="st1" d="M303,355.7l-1.2-0.7c-1-0.6-1.3-1.4-0.6-1.7c1-0.3,2.1-0.2,3,0.4l1.2,0.7c1,0.6,1.3,1.4,0.6,1.7
					C305,356.4,303.9,356.2,303,355.7z"/>
				<ellipse class="st0" cx="302.3" cy="353.9" rx="0.9" ry="0.5"/>
				<path class="st0" d="M304.1,355.6c0.4,0.2,0.9,0.2,1.3,0c0.2-0.1,0.3-0.3,0.3-0.5c0-0.1-0.1-0.2-0.3-0.3c-0.4-0.2-0.9-0.2-1.3,0
					c-0.2,0.1-0.3,0.3-0.3,0.5C303.9,355.5,304,355.6,304.1,355.6z"/>
				<path class="st4" d="M273.5,390.6c5.4,3.1,14,3.1,19.4,0s5.4-8.1,0-11.2s-14-3.1-19.4,0S268.1,387.5,273.5,390.6z"/>
				<path class="st7" d="M294.7,384.5L294.7,384.5v-23.1h-23.1v23.1l0,0c-0.1,1.8,1,3.6,3.4,4.9c4.5,2.6,11.8,2.6,16.4,0
					C293.7,388.1,294.8,386.3,294.7,384.5z"/>
				<path class="st15" d="M275,366.2c4.5,2.6,11.8,2.6,16.4,0s4.5-6.8,0-9.4s-11.8-2.6-16.4,0S270.5,363.5,275,366.2z"/>
				<path class="st7" d="M275.5,365.8c4.8,2.4,10.5,2.4,15.3,0c4.2-2.4,4.2-6.3,0-8.7c-4.8-2.4-10.5-2.4-15.3,0
					C271.3,359.5,271.3,363.4,275.5,365.8z"/>
				<path class="st0" d="M290.9,358.2c-4.8-2.4-10.5-2.4-15.3,0c-2.1,0.4-3.5,2.4-3.1,4.5c0.3,1.6,1.5,2.8,3.1,3.1
					c4.8,2.4,10.5,2.4,15.3,0c2.1-0.4,3.5-2.4,3.1-4.5C293.6,359.7,292.4,358.5,290.9,358.2z"/>
				<path class="st10" d="M271.6,380.6c0,1.7,1.1,3.5,3.4,4.8c4.5,2.6,11.8,2.6,16.3,0c2.3-1.3,3.4-3,3.4-4.7v-15.5
					c0,1.7-1.1,3.4-3.4,4.7c-4.5,2.6-11.8,2.6-16.3,0c-2.3-1.3-3.4-3-3.4-4.8V380.6z"/>
				<path class="st13" d="M271.6,380.6c0,1.7,1.1,3.5,3.4,4.8c4.5,2.6,11.8,2.6,16.3,0c2.3-1.3,3.4-3,3.4-4.7v-15.5
					c0,1.7-1.1,3.4-3.4,4.7c-4.5,2.6-11.8,2.6-16.3,0c-2.3-1.3-3.4-3-3.4-4.8V380.6z"/>
				<path class="st18" d="M287.9,390.8c-4.2,1.1-9.4,0.7-12.9-1.4c-2.4-1.4-3.5-3.1-3.4-4.9l0,0v-23.1c0,1.7,1.1,3.4,3.4,4.7
					c1.5,0.8,3.1,1.4,4.7,1.6v19.5C279.7,389.3,282.6,391.6,287.9,390.8z"/>
				<path class="st1" d="M285.8,365.5l-1.2-0.7c-1-0.6-1.3-1.4-0.6-1.7c1-0.4,2.1-0.2,3,0.3l1.2,0.7c1,0.6,1.3,1.4,0.6,1.7
					C287.8,366.2,286.7,366.1,285.8,365.5z"/>
				<ellipse class="st0" cx="285.2" cy="363.8" rx="0.9" ry="0.5"/>
				<path class="st0" d="M287,365.5c0.4,0.2,0.9,0.2,1.3,0c0.2-0.1,0.3-0.3,0.3-0.5c0-0.1-0.1-0.2-0.3-0.3c-0.4-0.2-0.9-0.2-1.3,0
					c-0.2,0.1-0.3,0.3-0.3,0.5C286.8,365.4,286.9,365.5,287,365.5z"/>
				<path class="st4" d="M256.4,400.5c5.4,3.1,14,3.1,19.4,0s5.4-8.1,0-11.2c-5.3-3.1-14-3.1-19.4,0
					C251,392.4,251,397.4,256.4,400.5z"/>
				<path class="st7" d="M277.6,394.4L277.6,394.4v-23.1h-23.1v23.1l0,0c-0.1,1.8,1,3.6,3.4,4.9c4.5,2.6,11.8,2.6,16.4,0
					C276.6,398,277.7,396.2,277.6,394.4z"/>
				<path class="st15" d="M257.9,376c4.5,2.6,11.8,2.6,16.4,0s4.5-6.8,0-9.4s-11.8-2.6-16.4,0C253.3,369.2,253.4,373.4,257.9,376z"
					/>
				<path class="st7" d="M258.4,375.7c4.8,2.4,10.5,2.4,15.4,0c4.2-2.4,4.2-6.3,0-8.7c-4.8-2.4-10.5-2.4-15.4,0
					C254.1,369.4,254.1,373.3,258.4,375.7z"/>
				<path class="st0" d="M273.7,368.1c-4.8-2.4-10.5-2.4-15.4,0c-2.1,0.4-3.5,2.4-3.1,4.5c0.3,1.6,1.5,2.8,3.1,3.1
					c4.8,2.4,10.5,2.4,15.4,0c2.1-0.4,3.5-2.4,3.1-4.5C276.5,369.6,275.3,368.4,273.7,368.1z"/>
				<path class="st10" d="M254.5,390.5c0,1.7,1.1,3.4,3.4,4.8c4.5,2.6,11.8,2.6,16.4,0c2.3-1.3,3.4-3,3.4-4.7v-15.5
					c0,1.7-1.1,3.4-3.4,4.7c-4.5,2.6-11.8,2.6-16.4,0c-2.3-1.3-3.4-3-3.4-4.8V390.5z"/>
				<path class="st13" d="M254.5,390.5c0,1.7,1.1,3.4,3.4,4.8c4.5,2.6,11.8,2.6,16.4,0c2.3-1.3,3.4-3,3.4-4.7v-15.5
					c0,1.7-1.1,3.4-3.4,4.7c-4.5,2.6-11.8,2.6-16.4,0c-2.3-1.3-3.4-3-3.4-4.8V390.5z"/>
				<path class="st1" d="M268.7,375.5l-1.2-0.7c-1-0.6-1.3-1.4-0.6-1.7c1-0.3,2.1-0.2,3,0.4l1.2,0.7c1,0.6,1.3,1.4,0.6,1.7
					C270.7,376.1,269.6,376,268.7,375.5z"/>
				<path class="st0" d="M267.4,374.1c0.4,0.2,0.9,0.2,1.3,0c0.2-0.1,0.3-0.3,0.3-0.5c0-0.1-0.1-0.2-0.3-0.3c-0.4-0.2-0.9-0.2-1.3,0
					c-0.2,0.1-0.3,0.3-0.3,0.5C267.2,373.9,267.3,374,267.4,374.1z"/>
				<path class="st0" d="M269.8,375.4c0.4,0.2,0.9,0.2,1.3,0c0.2-0.1,0.3-0.3,0.3-0.5c0-0.1-0.1-0.2-0.3-0.3c-0.4-0.2-0.9-0.2-1.3,0
					c-0.2,0.1-0.3,0.3-0.3,0.5C269.6,375.3,269.7,375.4,269.8,375.4z"/>
				<path class="st18" d="M270.8,400.7c-4.2,1.1-9.4,0.6-12.9-1.4c-2.4-1.4-3.5-3.1-3.4-4.9l0,0v-23.1c0,1.7,1.1,3.4,3.4,4.7
					c1.5,0.8,3.1,1.4,4.7,1.6v19.5C262.6,399.2,265.4,401.5,270.8,400.7z"/>
				<path class="st4" d="M239.2,410.4c5.3,3.1,14,3.1,19.4,0c5.4-3.1,5.4-8.1,0-11.2s-14-3.1-19.4,0S233.9,407.3,239.2,410.4z"/>
				<path class="st7" d="M260.5,404.3L260.5,404.3v-23.1h-23.1v23.1l0,0c-0.1,1.8,1,3.6,3.4,4.9c4.5,2.6,11.8,2.6,16.4,0
					C259.4,407.9,260.5,406.1,260.5,404.3z"/>
				<path class="st15" d="M240.7,386c4.5,2.6,11.8,2.6,16.4,0c4.5-2.6,4.5-6.8,0-9.4c-4.5-2.6-11.8-2.6-16.4,0
					S236.2,383.3,240.7,386z"/>
				<path class="st7" d="M241.2,385.6c4.8,2.4,10.5,2.4,15.4,0c4.2-2.4,4.2-6.3,0-8.7c-4.8-2.4-10.5-2.4-15.4,0
					C237,379.3,237,383.2,241.2,385.6z"/>
				<path class="st0" d="M256.6,378c-4.8-2.4-10.5-2.4-15.4,0c-2.1,0.4-3.5,2.4-3.1,4.5c0.3,1.6,1.5,2.8,3.1,3.1
					c4.8,2.4,10.5,2.4,15.4,0c2.1-0.4,3.5-2.4,3.1-4.5C259.4,379.5,258.2,378.3,256.6,378z"/>
				<path class="st10" d="M237.4,400.4c0,1.7,1.1,3.4,3.4,4.8c4.5,2.6,11.8,2.6,16.4,0c2.2-1.3,3.4-3,3.4-4.7V385
					c0,1.7-1.1,3.4-3.4,4.7c-4.5,2.6-11.8,2.6-16.4,0c-2.3-1.3-3.4-3-3.4-4.8V400.4z"/>
				<path class="st13" d="M237.4,400.4c0,1.7,1.1,3.4,3.4,4.8c4.5,2.6,11.8,2.6,16.4,0c2.2-1.3,3.4-3,3.4-4.7V385
					c0,1.7-1.1,3.4-3.4,4.7c-4.5,2.6-11.8,2.6-16.4,0c-2.3-1.3-3.4-3-3.4-4.8V400.4z"/>
				<path class="st18" d="M253.6,410.6c-4.2,1.1-9.4,0.7-12.9-1.4c-2.4-1.4-3.5-3.1-3.4-4.9l0,0v-23.1c0,1.7,1.1,3.4,3.4,4.7
					c1.5,0.8,3.1,1.4,4.7,1.6v19.5C245.5,409,248.3,411.4,253.6,410.6z"/>
				<path class="st1" d="M251.6,385.3l-1.2-0.7c-1-0.6-1.3-1.4-0.6-1.7c1-0.4,2.1-0.2,3,0.3l1.3,0.8c1,0.6,1.3,1.4,0.6,1.7
					C253.6,386.1,252.4,385.9,251.6,385.3z"/>
				<ellipse class="st0" cx="250.9" cy="383.6" rx="0.9" ry="0.5"/>
				<path class="st0" d="M252.7,385.3c0.4,0.2,0.9,0.2,1.3,0c0.4-0.2,0.4-0.5,0-0.8c-0.4-0.2-0.9-0.2-1.3,0
					C252.3,384.7,252.3,385.1,252.7,385.3z"/>
			</g>
			<g id="freepik--cans--inject-225_1_">
				<path class="st4" d="M307.6,390.5c5.4,3.1,14,3.1,19.4,0s5.3-8.1,0-11.2s-14-3.1-19.4,0S302.3,387.4,307.6,390.5z"/>
				<path class="st7" d="M328.9,384.5L328.9,384.5v-23.1h-23.1v23.1l0,0c-0.1,1.8,1,3.6,3.4,4.9c4.5,2.6,11.8,2.6,16.4,0
					C327.8,388,329,386.2,328.9,384.5z"/>
				<path class="st15" d="M309.1,366.1c4.5,2.6,11.8,2.6,16.3,0c4.5-2.6,4.5-6.8,0-9.4c-4.5-2.6-11.8-2.6-16.3,0
					S304.6,363.5,309.1,366.1z"/>
				<path class="st7" d="M309.6,365.7c4.8,2.4,10.5,2.4,15.3,0c4.2-2.4,4.2-6.3,0-8.7c-4.8-2.4-10.5-2.4-15.3,0
					C305.4,359.4,305.4,363.3,309.6,365.7z"/>
				<path class="st0" d="M325,358.1c-4.8-2.4-10.5-2.4-15.4,0c-2.1,0.4-3.5,2.4-3.1,4.5c0.3,1.6,1.5,2.8,3.1,3.1
					c4.8,2.4,10.5,2.4,15.4,0c2.1-0.4,3.5-2.4,3.1-4.5C327.8,359.7,326.6,358.4,325,358.1z"/>
				<path class="st10" d="M305.8,380.5c0,1.7,1.1,3.4,3.4,4.8c4.5,2.6,11.8,2.6,16.3,0c2.3-1.3,3.4-3,3.4-4.7v-15.4
					c0,1.7-1.1,3.4-3.4,4.7c-4.5,2.6-11.8,2.6-16.3,0c-2.3-1.3-3.4-3-3.4-4.8V380.5z"/>
				<path class="st13" d="M305.8,380.5c0,1.7,1.1,3.4,3.4,4.8c4.5,2.6,11.8,2.6,16.3,0c2.3-1.3,3.4-3,3.4-4.7v-15.4
					c0,1.7-1.1,3.4-3.4,4.7c-4.5,2.6-11.8,2.6-16.3,0c-2.3-1.3-3.4-3-3.4-4.8V380.5z"/>
				<path class="st18" d="M322,390.8c-4.2,1.1-9.4,0.6-12.9-1.4c-2.4-1.4-3.5-3.1-3.4-4.9l0,0v-23.1c0,1.7,1.1,3.4,3.4,4.7
					c1.5,0.8,3.1,1.4,4.7,1.6v19.5C313.9,389.2,316.7,391.5,322,390.8z"/>
				<path class="st1" d="M320,365.5l-1.2-0.7c-1-0.6-1.3-1.4-0.6-1.7c1-0.3,2.1-0.2,3,0.4l1.2,0.7c1,0.6,1.3,1.4,0.6,1.7
					C322,366.2,320.9,366,320,365.5z"/>
				<ellipse class="st0" cx="319.3" cy="363.7" rx="0.9" ry="0.5"/>
				<path class="st0" d="M321.1,365.4c0.4,0.2,0.9,0.2,1.3,0c0.2-0.1,0.3-0.3,0.3-0.5c0-0.1-0.1-0.2-0.3-0.3c-0.4-0.2-0.9-0.2-1.3,0
					c-0.2,0.1-0.3,0.3-0.3,0.5C320.9,365.3,321,365.4,321.1,365.4z"/>
				<ellipse class="st4" cx="300.2" cy="394.8" rx="13.7" ry="7.9"/>
				<path class="st7" d="M311.7,394.4L311.7,394.4v-23.1h-23.1v23.1l0,0c-0.1,1.8,1,3.6,3.4,4.9c4.5,2.6,11.8,2.6,16.4,0
					C310.7,397.9,311.8,396.1,311.7,394.4z"/>
				<path class="st15" d="M292,376c4.5,2.6,11.8,2.6,16.4,0s4.5-6.8,0-9.4s-11.8-2.6-16.4,0S287.5,373.4,292,376z"/>
				<path class="st7" d="M292.5,375.6c4.8,2.4,10.5,2.4,15.4,0c4.2-2.4,4.2-6.3,0-8.7c-4.8-2.4-10.5-2.4-15.4,0
					C288.3,369.3,288.3,373.2,292.5,375.6z"/>
				<path class="st0" d="M307.9,368c-4.8-2.4-10.5-2.4-15.4,0c-2.1,0.4-3.5,2.4-3.1,4.5c0.3,1.6,1.5,2.8,3.1,3.1
					c4.8,2.4,10.5,2.4,15.4,0c2.1-0.4,3.5-2.4,3.1-4.5C310.6,369.5,309.4,368.3,307.9,368z"/>
				<path class="st10" d="M288.6,390.4c0,1.7,1.1,3.5,3.4,4.8c4.5,2.6,11.8,2.6,16.4,0c2.3-1.3,3.4-3,3.4-4.7V375
					c0,1.7-1.1,3.4-3.4,4.7c-4.5,2.6-11.8,2.6-16.4,0c-2.3-1.3-3.4-3-3.4-4.8V390.4z"/>
				<path class="st13" d="M288.6,390.4c0,1.7,1.1,3.5,3.4,4.8c4.5,2.6,11.8,2.6,16.4,0c2.3-1.3,3.4-3,3.4-4.7V375
					c0,1.7-1.1,3.4-3.4,4.7c-4.5,2.6-11.8,2.6-16.4,0c-2.3-1.3-3.4-3-3.4-4.8V390.4z"/>
				<path class="st18" d="M304.9,400.6c-4.2,1.1-9.4,0.7-12.9-1.4c-2.4-1.4-3.5-3.1-3.4-4.9l0,0v-23.1c0,1.7,1.1,3.4,3.4,4.7
					c1.5,0.8,3.1,1.4,4.7,1.6v19.5C296.7,399.1,299.6,401.4,304.9,400.6z"/>
				<path class="st1" d="M302.8,375.4l-1.2-0.7c-1-0.6-1.3-1.4-0.6-1.7c1-0.4,2.1-0.2,3,0.3l1.2,0.7c1,0.6,1.3,1.4,0.6,1.7
					C304.8,376.1,303.7,375.9,302.8,375.4z"/>
				<ellipse class="st0" cx="302.2" cy="373.6" rx="0.9" ry="0.5"/>
				<path class="st0" d="M304,375.3c0.4,0.2,0.9,0.2,1.3,0c0.2-0.1,0.3-0.3,0.3-0.5c0-0.1-0.1-0.2-0.3-0.3c-0.4-0.2-0.9-0.2-1.3,0
					c-0.2,0.1-0.3,0.3-0.3,0.5C303.8,375.2,303.9,375.3,304,375.3z"/>
				<path class="st4" d="M273.4,410.3c5.4,3.1,14,3.1,19.4,0s5.4-8.1,0-11.2s-14-3.1-19.4,0S268,407.2,273.4,410.3z"/>
				<path class="st7" d="M294.6,404.2L294.6,404.2v-23.1h-23.1v23.1l0,0c-0.1,1.8,1,3.6,3.4,4.9c4.5,2.6,11.8,2.6,16.4,0
					C293.6,407.8,294.7,406,294.6,404.2z"/>
				<path class="st15" d="M274.9,385.9c4.5,2.6,11.8,2.6,16.4,0s4.5-6.8,0-9.4c-4.5-2.6-11.8-2.6-16.4,0
					C270.3,379,270.4,383.3,274.9,385.9z"/>
				<path class="st7" d="M275.4,385.5c4.8,2.4,10.5,2.4,15.4,0c4.2-2.4,4.2-6.3,0-8.7c-4.8-2.4-10.5-2.4-15.4,0
					C271.1,379.2,271.1,383.1,275.4,385.5z"/>
				<path class="st0" d="M290.7,377.9c-4.8-2.4-10.5-2.4-15.4,0c-2.1,0.4-3.5,2.4-3.1,4.5c0.3,1.6,1.5,2.8,3.1,3.1
					c4.8,2.4,10.5,2.4,15.4,0c2.1-0.4,3.5-2.4,3.1-4.5C293.5,379.5,292.3,378.2,290.7,377.9z"/>
				<path class="st10" d="M271.5,400.3c0,1.7,1.1,3.4,3.4,4.8c4.5,2.6,11.8,2.6,16.4,0c2.3-1.3,3.4-3,3.4-4.7v-15.5
					c0,1.7-1.1,3.4-3.4,4.7c-4.5,2.6-11.8,2.6-16.4,0c-2.3-1.3-3.4-3-3.4-4.8V400.3z"/>
				<path class="st13" d="M271.5,400.3c0,1.7,1.1,3.4,3.4,4.8c4.5,2.6,11.8,2.6,16.4,0c2.3-1.3,3.4-3,3.4-4.7v-15.5
					c0,1.7-1.1,3.4-3.4,4.7c-4.5,2.6-11.8,2.6-16.4,0c-2.3-1.3-3.4-3-3.4-4.8V400.3z"/>
				<path class="st1" d="M285.7,385.3l-1.2-0.7c-1-0.6-1.3-1.4-0.6-1.7c1-0.3,2.1-0.2,3,0.4l1.2,0.7c1,0.6,1.3,1.4,0.6,1.7
					C287.7,386,286.6,385.8,285.7,385.3z"/>
				<path class="st0" d="M284.4,383.9c0.4,0.2,0.9,0.2,1.3,0c0.2-0.1,0.3-0.3,0.3-0.5c0-0.1-0.1-0.2-0.3-0.3c-0.4-0.2-0.9-0.2-1.3,0
					c-0.2,0.1-0.3,0.3-0.3,0.5C284.2,383.8,284.3,383.9,284.4,383.9z"/>
				<path class="st0" d="M286.8,385.2c0.4,0.2,0.9,0.2,1.3,0c0.4-0.2,0.4-0.5,0-0.8c-0.4-0.2-0.9-0.2-1.3,0
					c-0.2,0.1-0.3,0.3-0.3,0.5C286.6,385.1,286.7,385.2,286.8,385.2z"/>
				<path class="st18" d="M287.8,410.5c-4.2,1.1-9.4,0.6-12.9-1.4c-2.4-1.4-3.5-3.1-3.4-4.9l0,0v-23.1c0,1.7,1.1,3.4,3.4,4.7
					c1.5,0.8,3.1,1.4,4.7,1.6V407C279.6,409,282.4,411.3,287.8,410.5z"/>
				<path class="st4" d="M256.2,420.2c5.3,3.1,14,3.1,19.4,0c5.4-3.1,5.3-8.1,0-11.2c-5.4-3.1-14-3.1-19.4,0
					C250.9,412.1,250.9,417.1,256.2,420.2z"/>
				<path class="st7" d="M277.4,414.1L277.4,414.1V391h-23.1v23.1l0,0c-0.1,1.8,1,3.6,3.4,4.9c4.5,2.6,11.8,2.6,16.4,0
					C276.4,417.7,277.5,415.9,277.4,414.1z"/>
				<ellipse class="st15" cx="265.9" cy="391" rx="11.6" ry="6.7"/>
				<path class="st7" d="M258.2,395.4c4.8,2.4,10.5,2.4,15.4,0c4.2-2.4,4.2-6.3,0-8.7c-4.8-2.4-10.5-2.4-15.4,0
					C254,389.1,254,393,258.2,395.4z"/>
				<path class="st0" d="M273.6,387.8c-4.8-2.4-10.5-2.4-15.4,0c-2.1,0.4-3.5,2.4-3.1,4.5c0.3,1.6,1.5,2.8,3.1,3.1
					c4.8,2.4,10.5,2.4,15.4,0c2.1-0.4,3.5-2.4,3.1-4.5C276.4,389.3,275.1,388.1,273.6,387.8z"/>
				<path class="st10" d="M254.3,410.2c0,1.7,1.1,3.4,3.4,4.8c4.5,2.6,11.8,2.6,16.4,0c2.2-1.3,3.4-3,3.4-4.7v-15.5
					c0,1.7-1.1,3.4-3.4,4.7c-4.5,2.6-11.8,2.6-16.4,0c-2.3-1.3-3.4-3-3.4-4.8V410.2z"/>
				<path class="st13" d="M254.3,410.2c0,1.7,1.1,3.4,3.4,4.8c4.5,2.6,11.8,2.6,16.4,0c2.2-1.3,3.4-3,3.4-4.7v-15.5
					c0,1.7-1.1,3.4-3.4,4.7c-4.5,2.6-11.8,2.6-16.4,0c-2.3-1.3-3.4-3-3.4-4.8V410.2z"/>
				<path class="st18" d="M270.6,420.4c-4.2,1.1-9.4,0.7-12.9-1.4c-2.4-1.4-3.5-3.1-3.4-4.9l0,0V391c0,1.7,1.1,3.4,3.4,4.7
					c1.5,0.8,3.1,1.4,4.7,1.6v19.5C262.5,418.9,265.3,421.2,270.6,420.4z"/>
				<path class="st1" d="M268.5,395.2l-1.2-0.7c-1-0.6-1.3-1.4-0.6-1.7c1-0.4,2.1-0.2,3,0.3l1.2,0.7c1,0.6,1.3,1.4,0.6,1.7
					C270.5,395.9,269.4,395.7,268.5,395.2z"/>
				<ellipse class="st0" cx="267.9" cy="393.4" rx="0.9" ry="0.5"/>
				<path class="st0" d="M269.7,395.1c0.4,0.2,0.9,0.2,1.3,0c0.4-0.2,0.4-0.5,0-0.8c-0.4-0.2-0.9-0.2-1.3,0
					C269.3,394.5,269.3,394.9,269.7,395.1z"/>
			</g>
		</g>
		<g id="freepik--arm--inject-225">
			<g id="freepik--front-arm--inject-225">
				<path class="st14" d="M126.4,135.7c-8.1,2.9-11.9,6.8-10.7,18.4c0.6,6,11.1,31,14.1,37.1c1.9,4,2.8,5.1,7.4,7.1
					c10.8,4.5,28.2,11.2,30.2,12.6c2.5,1.7,2.5,4.1,4.2,5.5l2.4-1.4c1.7,0.5,2.6,2.3,2.1,4c-0.1,0.2-0.1,0.4-0.2,0.6l-2.4,1.4
					c0,0,3.4,2.7,6.2,2.4s8.5-2.9,9.6-5.3c0.5-1.1,0.8-6.6,0.2-8c-2-4.2-6-5.1-13.4-8.6s-30.9-16.6-30.9-16.6L134.7,153L126.4,135.7
					z"/>
				<path class="st3" d="M127.5,135.4c-4.6,0.8-8.7,3.5-11.1,7.6c-2.6,4.7-0.8,11.5-0.4,13.9s6,17.8,6,17.8s12.7-1.2,18.1-5.7
					c0,0-3.8-13.7-4.7-17.9S131.8,137,127.5,135.4z"/>
			</g>
		</g>
		<g id="freepik--front-arm--inject-225_1_">
			<path class="st14" d="M201.4,191c2.5,1.7,2.8,4.2,4.6,5.5l2.2-1.3c1.7,0.6,2.6,2.3,2,4c-0.1,0.2-0.1,0.4-0.2,0.5l-2.2,1.3
				c0,0,3.2,2.6,6.1,2.2s8.5-2.9,9.6-5.3c0.5-1.1,0.8-6.6,0.2-8c-2-4.2-5.9-5.1-13.4-8.6"/>
		</g>
	</g>
</g>
</svg>
