<svg xmlns="http://www.w3.org/2000/svg" viewBox="0 0 387.23 522.41"><defs><style>.cls-1{fill:#fff;}.cls-2,.cls-3{fill:#1ad1bd;}.cls-3{font-size:21.56px;font-family:RobotoSlab-Bold, Roboto Slab;font-weight:700;}</style></defs><g id="Layer_2" data-name="Layer 2"><g id="OBJECTS"><path class="cls-1" d="M329.36,483H40.78V57.48H329.36ZM46.78,477H323.36V63.48H46.78Z"/><rect class="cls-1" x="53.78" y="70.48" width="262.58" height="399.52"/><path class="cls-2" d="M109.19,121.15c-11.16,0-20.66-5.06-27.47-14.64a50.55,50.55,0,0,1-4.57-7.76A30.52,30.52,0,0,1,69.32,112a31,31,0,0,1-22.58,9.13c-11.16,0-20.66-5.06-27.47-14.64A49.22,49.22,0,0,1,10,77.41c0-10.21,2.8-21,8.33-32.11,5.39-10.85,10.9-19,16.82-24.84C43.14,12.54,47.22,10,51.92,10c3.81,0,7.24,1.92,11.46,5l1.21.73.24.17C67,17.4,72.7,21.3,72.7,28c0,3.58-1.65,6.49-5.59,12-7.51,10.88-8.5,16-8.55,17.79.14.34,1.08,2.35,5.7,5.65a35.13,35.13,0,0,1,8.43,8.43c1.14-12.75,6.19-25.6,15.07-38.3C99.94,16.17,106.9,10,114.37,10c3.81,0,7.24,1.92,11.45,5l1.22.73.24.17c2.15,1.46,7.87,5.36,7.87,12,0,3.6-1.66,6.51-5.63,12.09-7.75,11.07-8.6,16.22-8.65,17.73.15.36,1.12,2.36,5.73,5.64,9.26,6.59,14.15,15.87,14.15,26.85a30.22,30.22,0,0,1-9.09,21.77A31.06,31.06,0,0,1,109.19,121.15Z"/><path class="cls-1" d="M114.37,20q1.39,0,5.88,3.36l1.4.84q3.5,2.39,3.5,3.78c0,.65-1.26,2.76-3.78,6.3q-10.5,15-10.5,23.66,0,6.59,9.94,13.65t9.94,18.7a20.06,20.06,0,0,1-6.16,14.7,20.89,20.89,0,0,1-15.4,6.16q-11.91,0-19.32-10.43a39.25,39.25,0,0,1-7.42-23.31q0-18.76,13.51-38.09T114.37,20M51.92,20q1.39,0,5.88,3.36l1.4.84c2.34,1.59,3.5,2.85,3.5,3.78,0,.65-1.26,2.76-3.78,6.3q-10.37,15-10.36,23.66,0,6.59,9.87,13.65t9.87,18.7A20.19,20.19,0,0,1,62.21,105a20.83,20.83,0,0,1-15.47,6.16q-11.9,0-19.32-10.43A39.25,39.25,0,0,1,20,77.41q0-13,7.28-27.66T42.19,27.56Q49.83,20,51.92,20M114.37,0c-11.92,0-20.77,8.39-32,24-1.18-6.25-5.16-11.71-11.88-16.29L70,7.35l-.5-.3-.55-.33C64.36,3.36,58.92,0,51.92,0,42.37,0,35.49,6.05,28.11,13.35,21.4,20,15.27,29,9.37,40.84,3.15,53.34,0,65.64,0,77.41a59,59,0,0,0,11.13,34.9c8.63,12.15,21.28,18.84,35.61,18.84a40.81,40.81,0,0,0,29.7-12.1c.48-.49,1-1,1.41-1.5a42.3,42.3,0,0,0,31.34,13.6,40.87,40.87,0,0,0,29.54-12,40,40,0,0,0,12-28.84c0-14.15-6.52-26.57-18.35-35l-.3-.22a66.16,66.16,0,0,1,5.61-9.27c4.36-6.13,7.44-11,7.44-17.83,0-7.95-4.12-14.78-12.24-20.31l-.48-.32-.49-.3-.56-.33c-4.57-3.36-10-6.72-17-6.72Z"/><path class="cls-2" d="M335.17,512.41c-3.89,0-7.32-1.95-11.58-5.1l-1.16-.82c-2.33-1.52-8-5.38-8-12.06,0-3.59,1.66-6.5,5.63-12.09,8-11.45,8.65-16.47,8.65-17.73a5.14,5.14,0,0,0-.05-.83,36.7,36.7,0,0,0-4.88-4.1,39.92,39.92,0,0,1-9.17-9.39c-1.09,12.9-6.16,25.86-15.11,38.61-12.18,17.36-19.18,23.51-26.73,23.51-3.89,0-7.33-1.95-11.59-5.1l-1.16-.82c-2.32-1.52-8-5.38-8-12.06,0-3.59,1.65-6.5,5.62-12.09,8-11.45,8.66-16.47,8.66-17.73,0-.36,0-1.32-2.39-3A42.64,42.64,0,0,1,251,448.56a31.56,31.56,0,0,1-4.55-16.3,30.55,30.55,0,0,1,8.69-21.57c5.82-6.16,13.73-9.43,22.88-9.43,11,0,20.51,5.05,27.37,14.6a50.87,50.87,0,0,1,4.67,7.9,31.15,31.15,0,0,1,30.4-22.5c11.05,0,20.52,5.05,27.38,14.6A49.07,49.07,0,0,1,377.23,445c0,7.32-1.69,15.59-5,24.56a99.6,99.6,0,0,1-15.68,26.81C347.23,508.07,341.45,512.41,335.17,512.41Z"/><path class="cls-1" d="M340.49,411.26q11.76,0,19.25,10.43A39,39,0,0,1,367.23,445q0,9.24-4.41,21.07a89.32,89.32,0,0,1-14.14,24.08q-9.74,12.25-13.51,12.25c-.93,0-2.85-1.07-5.74-3.22l-1.4-1q-3.64-2.38-3.64-3.78,0-1,3.78-6.3,10.5-15,10.5-23.52a10.62,10.62,0,0,0-1.89-6.65,38.1,38.1,0,0,0-7.07-6.3,28.91,28.91,0,0,1-8-8.75,21.08,21.08,0,0,1-2.8-10.65A20.43,20.43,0,0,1,325,417.49a20.73,20.73,0,0,1,15.47-6.23m-62.44,0q11.76,0,19.25,10.43A39.08,39.08,0,0,1,304.79,445q0,18.9-13.51,38.15t-18.55,19.25q-1.41,0-5.74-3.22l-1.4-1q-3.64-2.38-3.64-3.78,0-1,3.78-6.3,10.5-15,10.5-23.52,0-6.58-6.72-11.2a32.7,32.7,0,0,1-9.87-9.94,21.61,21.61,0,0,1-3.16-11.21,20.73,20.73,0,0,1,6-14.7q5.94-6.3,15.61-6.3m62.44-20a40.67,40.67,0,0,0-29.77,12.25q-.69.71-1.35,1.44a42.3,42.3,0,0,0-31.32-13.69c-12,0-22.39,4.35-30.16,12.57a40.76,40.76,0,0,0-11.41,28.43,41.45,41.45,0,0,0,6,21.4,50.23,50.23,0,0,0,12.49,13.85,69.3,69.3,0,0,1-5.54,9.1c-4.36,6.13-7.43,11-7.43,17.82,0,8,4.17,14.85,12.39,20.32l1,.68c4.95,3.65,10.49,7,17.43,7,11.9,0,21-8.65,32.07-23.77,1.22,6.22,5.24,11.62,12,16.11l1,.67c4.95,3.66,10.49,7,17.42,7,11.19,0,19.46-7.58,29.17-19.81a109.64,109.64,0,0,0,17.23-29.54c3.81-10.23,5.66-19.41,5.66-28.05A58.82,58.82,0,0,0,376,410c-8.69-12.1-21.3-18.77-35.5-18.77Z"/><path class="cls-2" d="M169.57,182.84v-2.29h7.85v2.29l-2,.39v13.61l2,.39v2.28h-7.85v-2.28l2-.39V183.23Z"/><path class="cls-2" d="M193.26,186.61h-2.85l-.49-2.61a4.8,4.8,0,0,0-1.45-.54,8.14,8.14,0,0,0-2-.24,3.87,3.87,0,0,0-2.42.66,2,2,0,0,0-.85,1.7,1.86,1.86,0,0,0,.89,1.58,12.31,12.31,0,0,0,3.08,1.31,12.07,12.07,0,0,1,4.76,2.3,4.79,4.79,0,0,1,1.62,3.76,4.5,4.5,0,0,1-1.93,3.84,8.4,8.4,0,0,1-5.08,1.41,10.91,10.91,0,0,1-4.06-.72,8.23,8.23,0,0,1-3-2v-4h2.94l.4,2.69a4.94,4.94,0,0,0,1.56.78,7.53,7.53,0,0,0,2.19.3,3.75,3.75,0,0,0,2.38-.64,2,2,0,0,0,.81-1.7,2.19,2.19,0,0,0-.77-1.76,7.88,7.88,0,0,0-2.72-1.25,15.64,15.64,0,0,1-5.1-2.31,4.42,4.42,0,0,1-1.73-3.68,4.5,4.5,0,0,1,1.95-3.76,8.15,8.15,0,0,1,4.91-1.51,11.19,11.19,0,0,1,4,.67,9,9,0,0,1,3,1.77Z"/><text class="cls-3" transform="translate(151.15 299.02)">WHO</text><path class="cls-2" d="M112.75,173.18V120h5.47l10.41,32.76H129V120h6.38v53.21h-5.67L119.51,141.1h-.38v32.08Z"/><path class="cls-2" d="M153,119.44a8.65,8.65,0,0,1,3.41.68,9,9,0,0,1,2.8,1.9,8.85,8.85,0,0,1,1.89,2.82,8.49,8.49,0,0,1,.68,3.42v36.63a8.49,8.49,0,0,1-.68,3.42,8.74,8.74,0,0,1-1.89,2.82,9,9,0,0,1-2.8,1.9,8.65,8.65,0,0,1-3.41.68h-2.65a8.65,8.65,0,0,1-3.41-.68,9,9,0,0,1-2.8-1.9,8.74,8.74,0,0,1-1.89-2.82,8.49,8.49,0,0,1-.68-3.42V128.26a8.49,8.49,0,0,1,.68-3.42,8.85,8.85,0,0,1,1.89-2.82,9,9,0,0,1,2.8-1.9,8.65,8.65,0,0,1,3.41-.68Zm2.4,8.9a3.25,3.25,0,0,0-3.34-3.35h-.76a3.29,3.29,0,0,0-2.36,1,3.19,3.19,0,0,0-1,2.4v36.47a3.38,3.38,0,0,0,3.35,3.35h.76a3.17,3.17,0,0,0,2.39-1,3.29,3.29,0,0,0,.95-2.36Z"/><path class="cls-2" d="M188.64,119.44a8.69,8.69,0,0,1,3.41.68,9.07,9.07,0,0,1,2.8,1.9,9.19,9.19,0,0,1,1.89,2.82,8.66,8.66,0,0,1,.68,3.42v36.63a8.66,8.66,0,0,1-.68,3.42,8.88,8.88,0,0,1-4.69,4.72,8.69,8.69,0,0,1-3.41.68H186a8.65,8.65,0,0,1-3.41-.68,8.94,8.94,0,0,1-4.7-4.72,8.66,8.66,0,0,1-.68-3.42V128.26a8.66,8.66,0,0,1,.68-3.42,8.94,8.94,0,0,1,4.7-4.72,8.65,8.65,0,0,1,3.41-.68Zm2.4,8.9a3.25,3.25,0,0,0-3.35-3.35h-.76a3.27,3.27,0,0,0-2.35,1,3.19,3.19,0,0,0-1,2.4v36.47a3.38,3.38,0,0,0,3.34,3.35h.76a3.21,3.21,0,0,0,2.4-1,3.29,3.29,0,0,0,.95-2.36Z"/><path class="cls-2" d="M203.58,173.18V120h5.47l10.41,32.76h.38V120h6.39v53.21h-5.68L210.34,141.1H210v32.08Z"/><path class="cls-2" d="M249.79,166.79v6.39H233.14V120h16.65v6.39H239.53v17.55h9.12v6.39h-9.12v16.49Z"/><path class="cls-2" d="M118.32,345.44h8.15v4.68H113.63V311.07h4.69Z"/><path class="cls-2" d="M130.37,350.12V311.07h4.69v39.05Z"/><path class="cls-2" d="M149.73,321.9v-4.67a2.43,2.43,0,0,0-2.48-2.48h-.57a2.47,2.47,0,0,0-1.74.7,2.35,2.35,0,0,0-.74,1.76V344a2.49,2.49,0,0,0,2.48,2.46h.57a2.37,2.37,0,0,0,1.77-.72,2.41,2.41,0,0,0,.71-1.73V333.11h-3v-4.52h7.64V344a6.18,6.18,0,0,1-.5,2.51,6.46,6.46,0,0,1-3.46,3.46,6.18,6.18,0,0,1-2.51.5H146a6.22,6.22,0,0,1-2.51-.5,6.46,6.46,0,0,1-2.06-1.39,6.64,6.64,0,0,1-1.4-2.07,6.35,6.35,0,0,1-.5-2.51V317.15a6.39,6.39,0,0,1,.5-2.51,6.65,6.65,0,0,1,3.46-3.46,6.39,6.39,0,0,1,2.51-.5h1.95a6.35,6.35,0,0,1,2.51.5,6.64,6.64,0,0,1,2.07,1.4,6.46,6.46,0,0,1,1.39,2.06,6.22,6.22,0,0,1,.5,2.51v3Z"/><path class="cls-2" d="M163.56,328.65h6.08V311.07h4.69v39.05h-4.69V333.33h-6.08v16.79h-4.68V311.07h4.68Z"/><path class="cls-2" d="M193,311.07v4.69h-5v34.36h-4.68V315.76h-5v-4.69Z"/><path class="cls-2" d="M209.09,345.44v4.68H196.87V311.07h12.22v4.69h-7.54v12.89h6.7v4.68h-6.7v12.11Z"/><path class="cls-2" d="M213.83,350.12V311.07h4l7.65,24.05h.28V311.07h4.68v39.05h-4.16l-7.5-23.54h-.28v23.54Z"/><path class="cls-2" d="M244.9,321.78v-4.55a2.43,2.43,0,0,0-.69-1.77,2.34,2.34,0,0,0-1.74-.71h-.55a2.38,2.38,0,0,0-1.71.7,2.35,2.35,0,0,0-.72,1.76v5.87a8.58,8.58,0,0,0,.16,1,1.91,1.91,0,0,0,.62.89,1.66,1.66,0,0,0,.44.39l1,.73c.39.29.82.63,1.3,1l1.45,1.12,3.82,3a4.42,4.42,0,0,1,.92,1.18,4.24,4.24,0,0,1,.42,1.78V344a6.24,6.24,0,0,1-.51,2.52,6.58,6.58,0,0,1-3.45,3.46,6.26,6.26,0,0,1-2.52.5h-2a6.22,6.22,0,0,1-2.51-.5,6.46,6.46,0,0,1-2.06-1.39,6.64,6.64,0,0,1-1.4-2.07,6.35,6.35,0,0,1-.5-2.51v-6.69l4.74-1.4v8a2.38,2.38,0,0,0,.72,1.73,2.34,2.34,0,0,0,1.71.72h.55a2.31,2.31,0,0,0,1.74-.72,2.43,2.43,0,0,0,.69-1.73v-8.54a2.92,2.92,0,0,0-.22-1.25,2,2,0,0,0-.5-.7,1.52,1.52,0,0,1-.42-.31c-.24-.2-.56-.45-.95-.75l-1.34-1q-.75-.59-1.47-1.2-1.8-1.45-4-3.18a3.72,3.72,0,0,1-1.22-3v-6.92a6.22,6.22,0,0,1,.5-2.51,6.46,6.46,0,0,1,1.39-2.06,6.64,6.64,0,0,1,2.07-1.4,6.39,6.39,0,0,1,2.51-.5h1.95a6.39,6.39,0,0,1,2.51.5,6.64,6.64,0,0,1,2.07,1.4,6.46,6.46,0,0,1,1.39,2.06,6.39,6.39,0,0,1,.5,2.51v3.24Z"/><path class="cls-2" d="M119.1,256.46h-2.21L114,269.85h2.21l-.29,1.42h-6.09l.29-1.42h2.19l2.86-13.39H113l.29-1.42h6.08Z"/><path class="cls-2" d="M123.18,255h2l2.36,12.13h.07L130.14,255h1.69l-3.47,16.39h-1.6l-2.55-13.1,0,.05-2.75,12.89h-1.69Z"/><path class="cls-2" d="M154.47,256.46h-4.62l-3.15,14.81H145l3.15-14.81h-4.53l.3-1.42h10.84Z"/><path class="cls-2" d="M156,262.14h5.64l1.51-7.1h1.69l-3.45,16.23H159.7l1.64-7.71h-5.63l-1.64,7.71h-1.69L155.82,255h1.69Z"/><path class="cls-2" d="M174.07,256.46h-2.2L169,269.85h2.21l-.29,1.42h-6.09l.3-1.42h2.18l2.87-13.39H168l.29-1.42h6.09Z"/><path class="cls-2" d="M185.23,258a4.27,4.27,0,0,0-3.11-1.82,3.23,3.23,0,0,0-3.16,2.48c-.18.85-.18,1.62,1.71,2.95l1.13.79c2.62,1.82,3.22,2.68,2.82,4.57a5.7,5.7,0,0,1-5.77,4.65A4.69,4.69,0,0,1,174.5,269l1.53-1a3.34,3.34,0,0,0,3.11,2.26,3.94,3.94,0,0,0,3.74-3c.27-1.31.25-1.74-2.23-3.47l-1.26-.88c-1.37-1-2.57-2.05-2.14-4.08a5.15,5.15,0,0,1,5.23-4,5.34,5.34,0,0,1,4,2Z"/><path class="cls-2" d="M204.11,267.71h0L207.64,255h1.83l-4.71,16.39h-1.94l-.56-7-3.56,7h-1.87L199,255h1.82L199,267.71h0l4.28-8.14Z"/><path class="cls-2" d="M215.37,254.73c4.73,0,3.86,5.41,3.2,8.43-.45,2.16-1.64,8.43-6.78,8.43s-3.68-6.13-3.18-8.43C210.05,256.37,212.64,254.73,215.37,254.73Zm1.51,8.43c.32-1.49,1.71-7-1.8-7s-4.58,6.06-4.78,7c-.38,1.84-1.6,7,1.78,7C213.77,270.17,215.62,269,216.88,263.16Z"/><path class="cls-2" d="M222.49,255h4.21c4.06,0,3.66,3.65,3.45,4.6-.36,1.67-1.33,3.2-3.85,4.49l2.86,7.14h-2l-2.5-6.76-2.46,0-1.42,6.72H219Zm1.58,8.07a4.15,4.15,0,0,0,4.41-3.56c.46-2.16-.27-3.09-2.93-3.09h-1.66l-1.42,6.65Z"/><path class="cls-2" d="M232.56,269.85h7l-.29,1.42h-8.72L234,255h1.69Z"/><path class="cls-2" d="M244.05,255h4.13c3.13,0,4.84,1.78,3.51,8.12s-3.67,8.11-7.21,8.11H240.6Zm-1.46,14.81h2.07c2.37,0,4.06-.65,5.34-6.69,1.31-6.22-.36-6.7-2.52-6.7h-2Z"/><path class="cls-2" d="M130.92,208.06v1.48a2.71,2.71,0,0,1-.32,1.38,2.53,2.53,0,0,1-.72.84,1.42,1.42,0,0,0-.32.33,1.23,1.23,0,0,0-.17.56v25.27a7.55,7.55,0,0,1-.67,3.29,6.26,6.26,0,0,1-1.83,2.32,7.81,7.81,0,0,1-2.72,1.36,12.12,12.12,0,0,1-3.38.45,12.51,12.51,0,0,1-3.42-.45,8.1,8.1,0,0,1-2.76-1.36,6.24,6.24,0,0,1-1.86-2.32,7.7,7.7,0,0,1-.67-3.29V212.8a1.41,1.41,0,0,0-.12-.69,1.14,1.14,0,0,0-.37-.35,3.59,3.59,0,0,1-.79-.84,2.24,2.24,0,0,1-.4-1.38v-1.48h8.41v1.48a2,2,0,0,1-.47,1.38,5.11,5.11,0,0,1-.87.84,1.14,1.14,0,0,0-.37.35,1.41,1.41,0,0,0-.12.69v24.72a3.33,3.33,0,0,0,1.21,2.85,4.22,4.22,0,0,0,2.6.91,4,4,0,0,0,2.52-.91,3.37,3.37,0,0,0,1.18-2.85V212.65a.9.9,0,0,0-.14-.56,2.2,2.2,0,0,0-.35-.33,3.59,3.59,0,0,1-.79-.84,2.24,2.24,0,0,1-.4-1.38v-1.48Z"/><path class="cls-2" d="M138.68,219a2.61,2.61,0,0,0,.94,1.88,17.21,17.21,0,0,0,2.33,1.81c.92.61,1.93,1.25,3,1.92a22.35,22.35,0,0,1,3,2.25,12.7,12.7,0,0,1,2.32,2.77,6.54,6.54,0,0,1,.94,3.51V238a7,7,0,0,1-.74,3.29,7,7,0,0,1-2,2.32A8.56,8.56,0,0,1,145.7,245a13.82,13.82,0,0,1-6.92,0,8.32,8.32,0,0,1-2.84-1.36,6.71,6.71,0,0,1-1.93-2.32,7.15,7.15,0,0,1-.72-3.29v-3.71h2.38a2.87,2.87,0,0,1,2,.62,2.27,2.27,0,0,1,.67,1.75v2.13a1.83,1.83,0,0,0,.37,1.14,3.19,3.19,0,0,0,.94.84,5.1,5.1,0,0,0,1.26.54,4.88,4.88,0,0,0,1.33.2,4.63,4.63,0,0,0,1.34-.22,5.56,5.56,0,0,0,1.28-.6,3.2,3.2,0,0,0,1-.89,2,2,0,0,0,.37-1.16v-5.24a4.36,4.36,0,0,0-.92-2.79,9.74,9.74,0,0,0-2.3-2.1c-.92-.63-1.92-1.25-3-1.86a24.7,24.7,0,0,1-3-2,10.13,10.13,0,0,1-2.3-2.55,6.51,6.51,0,0,1-.91-3.53v-3.51a8.11,8.11,0,0,1,.64-3.39,6.25,6.25,0,0,1,1.78-2.32,7.3,7.3,0,0,1,2.67-1.34,12.67,12.67,0,0,1,3.36-.42,11.82,11.82,0,0,1,3.39.47,8.31,8.31,0,0,1,2.72,1.38,6.22,6.22,0,0,1,1.8,2.33,7.82,7.82,0,0,1,.65,3.29v3.66h-2.23a2.92,2.92,0,0,1-2.08-.8,2.58,2.58,0,0,1-.84-2v-1.83a1.64,1.64,0,0,0-.34-1,2.55,2.55,0,0,0-.87-.72,4.08,4.08,0,0,0-1.13-.39,5.35,5.35,0,0,0-1.12-.13,4.56,4.56,0,0,0-1.13.15,4.67,4.67,0,0,0-1.14.45,2.88,2.88,0,0,0-.89.71,1.5,1.5,0,0,0-.35,1Z"/><path class="cls-2" d="M160.41,212.38a.7.7,0,0,0-.22.52v10.34c0,.46.25.69.74.69h5.89a1,1,0,0,1,.51.17.61.61,0,0,1,.28.57v2.77q0,.69-.75.69h-5.93c-.49,0-.74.23-.74.69v11.52c0,.46.2.69.59.69h4.95c.36,0,.54-.21.54-.64a1.41,1.41,0,0,1,.67-1.24,3.24,3.24,0,0,1,1.8-.44h1.88v5.09a1.14,1.14,0,0,1-.37.89,1.29,1.29,0,0,1-.91.35H153.66v-1.29a3.8,3.8,0,0,1,.28-1.65,1.69,1.69,0,0,1,.76-.82,1.11,1.11,0,0,0,.64-1V212.9a1.07,1.07,0,0,0-.19-.69,1.68,1.68,0,0,0-.45-.4,1.62,1.62,0,0,1-.76-.79,3.34,3.34,0,0,1-.28-1.53v-1.43h15.68a1.28,1.28,0,0,1,.94.34,1,1,0,0,1,.34.74v5.24h-1.83a5,5,0,0,1-1.75-.27,1.07,1.07,0,0,1-.72-1.11,1.16,1.16,0,0,0-.15-.57.56.56,0,0,0-.54-.27h-4.75A.66.66,0,0,0,160.41,212.38Z"/><path class="cls-2" d="M190.2,238.36v5.39a1.19,1.19,0,0,1-.39.94,1.24,1.24,0,0,1-.8.35H173.24v-1.48a4,4,0,0,1,.27-1.66,1.76,1.76,0,0,1,.77-.82,1.22,1.22,0,0,0,.47-.34.87.87,0,0,0,.22-.6V212.85a1.3,1.3,0,0,0-.15-.74,1.34,1.34,0,0,0-.39-.35,3.59,3.59,0,0,1-.79-.84,2.24,2.24,0,0,1-.4-1.38v-1.48h8.26v1.48a2.24,2.24,0,0,1-.4,1.38,3.4,3.4,0,0,1-.79.84,1.14,1.14,0,0,0-.37.35,1.57,1.57,0,0,0-.12.74l.05,27.19a1.54,1.54,0,0,0,.15.7.5.5,0,0,0,.49.29h4.35a.58.58,0,0,0,.52-.27,1,1,0,0,0,.17-.57,1.46,1.46,0,0,1,.75-1.48,4.28,4.28,0,0,1,1.82-.35Z"/><path class="cls-2" d="M199.08,212.38a.71.71,0,0,0-.23.52v10.34c0,.46.25.69.74.69h5.89a1,1,0,0,1,.52.17.62.62,0,0,1,.27.57v2.77c0,.46-.25.69-.74.69h-5.94c-.49,0-.74.23-.74.69v11.52q0,.69.6.69h4.94c.36,0,.54-.21.54-.64a1.43,1.43,0,0,1,.67-1.24,3.3,3.3,0,0,1,1.81-.44h1.88v5.09a1.15,1.15,0,0,1-.38.89,1.28,1.28,0,0,1-.91.35H192.33v-1.29a4,4,0,0,1,.27-1.65,1.74,1.74,0,0,1,.76-.82,1.12,1.12,0,0,0,.65-1V212.9a1.07,1.07,0,0,0-.2-.69,1.55,1.55,0,0,0-.45-.4,1.67,1.67,0,0,1-.76-.79,3.49,3.49,0,0,1-.27-1.53v-1.43H208a1.26,1.26,0,0,1,.94.34,1,1,0,0,1,.35.74v5.24h-1.83a5,5,0,0,1-1.76-.27A1.07,1.07,0,0,1,205,213a1.26,1.26,0,0,0-.14-.57.57.57,0,0,0-.55-.27h-4.74A.63.63,0,0,0,199.08,212.38Z"/><path class="cls-2" d="M217.79,219a2.57,2.57,0,0,0,.94,1.88,17.06,17.06,0,0,0,2.32,1.81c.92.61,1.94,1.25,3,1.92a21.18,21.18,0,0,1,3,2.25,12.48,12.48,0,0,1,2.33,2.77,6.63,6.63,0,0,1,.94,3.51V238a6.91,6.91,0,0,1-.75,3.29,6.82,6.82,0,0,1-2,2.32,8.66,8.66,0,0,1-2.87,1.36,13.82,13.82,0,0,1-6.92,0,8.23,8.23,0,0,1-2.84-1.36,6.6,6.6,0,0,1-1.93-2.32,7.15,7.15,0,0,1-.72-3.29v-3.71h2.37a2.9,2.9,0,0,1,2,.62,2.27,2.27,0,0,1,.66,1.75v2.13a1.9,1.9,0,0,0,.37,1.14,3.32,3.32,0,0,0,.94.84,5.1,5.1,0,0,0,1.26.54,5,5,0,0,0,1.34.2,4.57,4.57,0,0,0,1.33-.22,5.84,5.84,0,0,0,1.29-.6,3.16,3.16,0,0,0,1-.89,1.91,1.91,0,0,0,.37-1.16v-5.24a4.35,4.35,0,0,0-.91-2.79,9.94,9.94,0,0,0-2.3-2.1c-.92-.63-1.92-1.25-3-1.86a24.7,24.7,0,0,1-3-2,9.94,9.94,0,0,1-2.3-2.55,6.51,6.51,0,0,1-.92-3.53v-3.51a8.1,8.1,0,0,1,.65-3.39,6.25,6.25,0,0,1,1.78-2.32A7.15,7.15,0,0,1,218,208a12.67,12.67,0,0,1,3.36-.42,11.82,11.82,0,0,1,3.39.47,8.26,8.26,0,0,1,2.71,1.38,6.15,6.15,0,0,1,1.81,2.33,7.82,7.82,0,0,1,.64,3.29v3.66h-2.22a2.91,2.91,0,0,1-2.08-.8,2.58,2.58,0,0,1-.84-2v-1.83a1.65,1.65,0,0,0-.35-1,2.51,2.51,0,0,0-.86-.72,4.26,4.26,0,0,0-1.14-.39,5.19,5.19,0,0,0-1.11-.13,4.7,4.7,0,0,0-1.14.15,4.76,4.76,0,0,0-1.13.45,2.92,2.92,0,0,0-.9.71,1.49,1.49,0,0,0-.34,1Z"/><path class="cls-2" d="M238.65,219a2.61,2.61,0,0,0,.94,1.88,17.21,17.21,0,0,0,2.33,1.81c.92.61,1.93,1.25,3,1.92a22.35,22.35,0,0,1,3,2.25,12.7,12.7,0,0,1,2.32,2.77,6.54,6.54,0,0,1,.94,3.51V238a7,7,0,0,1-.74,3.29,6.85,6.85,0,0,1-2,2.32,8.56,8.56,0,0,1-2.87,1.36,13.82,13.82,0,0,1-6.92,0,8.32,8.32,0,0,1-2.84-1.36,6.71,6.71,0,0,1-1.93-2.32,7.15,7.15,0,0,1-.72-3.29v-3.71h2.38a2.87,2.87,0,0,1,2,.62,2.27,2.27,0,0,1,.67,1.75v2.13a1.83,1.83,0,0,0,.37,1.14,3.32,3.32,0,0,0,.94.84,5.1,5.1,0,0,0,1.26.54,4.88,4.88,0,0,0,1.33.2,4.63,4.63,0,0,0,1.34-.22,5.56,5.56,0,0,0,1.28-.6,3.2,3.2,0,0,0,1-.89,2,2,0,0,0,.37-1.16v-5.24a4.36,4.36,0,0,0-.92-2.79,9.74,9.74,0,0,0-2.3-2.1c-.92-.63-1.92-1.25-3-1.86a24.7,24.7,0,0,1-3-2,10.13,10.13,0,0,1-2.3-2.55,6.51,6.51,0,0,1-.91-3.53v-3.51a8.11,8.11,0,0,1,.64-3.39,6.25,6.25,0,0,1,1.78-2.32,7.3,7.3,0,0,1,2.67-1.34,12.67,12.67,0,0,1,3.36-.42,11.82,11.82,0,0,1,3.39.47,8.31,8.31,0,0,1,2.72,1.38,6.22,6.22,0,0,1,1.8,2.33,7.82,7.82,0,0,1,.65,3.29v3.66h-2.23a2.9,2.9,0,0,1-2.07-.8,2.55,2.55,0,0,1-.85-2v-1.83a1.64,1.64,0,0,0-.34-1,2.55,2.55,0,0,0-.87-.72,4.08,4.08,0,0,0-1.13-.39,5.35,5.35,0,0,0-1.12-.13A4.56,4.56,0,0,0,241,212a4.67,4.67,0,0,0-1.14.45,2.88,2.88,0,0,0-.89.71,1.5,1.5,0,0,0-.35,1Z"/><path class="cls-2" d="M120.94,362.59q-.75,1.94-1.86,6.06a39.77,39.77,0,0,0-1.11,4.64q0,.31.45.51a6.78,6.78,0,0,0,1.77.28c.15,0,.22.06.22.13s-.16.27-.49.27l-2.14-.05-3.51,0c-.27,0-.4-.06-.4-.17s.17-.21.52-.21a2.08,2.08,0,0,0,1.3-.3,2.25,2.25,0,0,0,.59-1.23l.89-3.27.9-3.49.79-3.1a6,6,0,0,0-1.21-.12,4.33,4.33,0,0,0-2.4.7,9.23,9.23,0,0,0-2,1.77q-.19.24-.3.24c-.1,0-.15,0-.15-.14a5.82,5.82,0,0,1,.43-1.19,14.17,14.17,0,0,1,.94-1.87l5.91.09,4.61-.11.59,0,.14,2c0,.47.06.87.06,1.21,0,.15-.06.23-.19.23s-.11,0-.13-.13a3.17,3.17,0,0,0-3.39-2.87A5.39,5.39,0,0,0,120.94,362.59Z"/><path class="cls-2" d="M129.79,367.88c.59.06,1.56.09,2.92.09,1.91,0,3.17,0,3.8,0a20.2,20.2,0,0,0,.85-4.19,1.23,1.23,0,0,0-.33-.86,1.45,1.45,0,0,0-1.11-.35q-.48,0-.48-.21c0-.13.09-.19.26-.19h.3c.89.06,2.11.09,3.65.09l1.55,0c.19,0,.29.06.29.18s-.09.19-.27.2a4.53,4.53,0,0,0-1.12.21,1.42,1.42,0,0,0-.62.56,3.18,3.18,0,0,0-.4.86c-.09.3-.38,1.5-.89,3.59s-.8,3.38-.89,3.89a7.64,7.64,0,0,0-.14,1.24,1.07,1.07,0,0,0,.34.76,1.15,1.15,0,0,0,.78.37c.33,0,.5.09.5.2s-.12.22-.36.22l-1.85-.06-3,.07c-.19,0-.29-.06-.29-.19s.08-.15.24-.16a2.1,2.1,0,0,0,1.37-.52,7.41,7.41,0,0,0,.92-2.64l.57-2.51q-1.31-.06-3.42-.06h-3.28c-.08.46-.24,1.13-.46,2a10.42,10.42,0,0,0-.4,2.17c0,.94.52,1.43,1.57,1.5.25,0,.37.07.37.18s-.06.17-.19.17l-2.56,0-2.94,0c-.2,0-.3-.07-.3-.2s.17-.17.51-.24a2.23,2.23,0,0,0,.93-.35,2.26,2.26,0,0,0,.59-.85,16.44,16.44,0,0,0,.75-2.48c.31-1.24.61-2.53.91-3.87a17.19,17.19,0,0,0,.44-2.56,1.4,1.4,0,0,0-.33-1.07,1.86,1.86,0,0,0-1.11-.37c-.16,0-.25-.07-.25-.17s.09-.19.27-.19l3.16,0,1.87,0c.29,0,.43.08.43.22s-.09.19-.27.19a2.48,2.48,0,0,0-1,.19,1.35,1.35,0,0,0-.67.54,7,7,0,0,0-.55,1.75Z"/><path class="cls-2" d="M146.49,362.57a27.94,27.94,0,0,0-1.06,3.72,12.92,12.92,0,0,1-.39,1.39l.64,0a4.4,4.4,0,0,0,2.29-.47,3,3,0,0,0,1.17-1.55c.09-.23.17-.35.24-.35s.18.07.18.2a.88.88,0,0,1-.06.29c-.07.2-.23.78-.49,1.74s-.41,1.61-.46,2a14,14,0,0,1-.3,1.46.17.17,0,0,1-.15.07c-.12,0-.17-.07-.17-.21l0-.66a3,3,0,0,0-.2-1,1.69,1.69,0,0,0-.49-.8,1.62,1.62,0,0,0-.91-.25l-1.4,0c-.14.63-.32,1.34-.55,2.12a10.93,10.93,0,0,0-.49,2.29,1.3,1.3,0,0,0,.61,1.25,3.7,3.7,0,0,0,1.78.34,8.67,8.67,0,0,0,2.44-.22,5.25,5.25,0,0,0,1.61-1.1,13.58,13.58,0,0,0,1.53-1.6c.15-.19.27-.29.35-.29s.13.07.13.19a15.05,15.05,0,0,1-1.21,3.37h-.44l-2.31,0-5.51-.11c-.41,0-.93,0-1.58.06s-1.07.07-1.36.07-.28-.06-.28-.17.09-.15.26-.18a3,3,0,0,0,1.5-.54,5.46,5.46,0,0,0,.86-2c.34-1.08.72-2.49,1.15-4.23a19.34,19.34,0,0,0,.65-3.34c0-1-.51-1.48-1.54-1.48-.24,0-.36-.05-.36-.16s.1-.21.29-.21l9.81-.28a9.65,9.65,0,0,1,.16,1.39c0,.75,0,1.17.05,1.28a2.86,2.86,0,0,1,0,.37c0,.13,0,.19-.14.19s-.19-.09-.26-.27a5.3,5.3,0,0,0-.77-1.37,3,3,0,0,0-.9-.87,2.83,2.83,0,0,0-1.34-.24A21.11,21.11,0,0,0,146.49,362.57Z"/><path class="cls-2" d="M166.63,367.89A5.16,5.16,0,0,1,169,369.1a2.55,2.55,0,0,1,.8,1.92,3.16,3.16,0,0,1-.58,1.78,3.35,3.35,0,0,1-1.62,1.31,9.43,9.43,0,0,1-3.29.42c-.57,0-1.29,0-2.15-.07l-1.09,0-3.29.12c-.19,0-.29-.07-.29-.19s.09-.14.26-.16a3.28,3.28,0,0,0,1.57-.38,2.53,2.53,0,0,0,.75-1.14q.33-.84,1.37-4.68a26.59,26.59,0,0,0,1-4.84.71.71,0,0,0-.45-.63,2.68,2.68,0,0,0-1-.29c-.21,0-.32-.09-.32-.21s.07-.14.21-.14H161a33,33,0,0,0,3.52.2l2.35,0a4.1,4.1,0,0,1,2.51.72,2.34,2.34,0,0,1,1,2,2.53,2.53,0,0,1-.93,2A5.78,5.78,0,0,1,166.63,367.89Zm-3.53.3q0,.07-.3,1.11a19.6,19.6,0,0,0-.88,3.92.76.76,0,0,0,.39.69,3.9,3.9,0,0,0,1.72.24,4.17,4.17,0,0,0,2.89-.93,3,3,0,0,0,1-2.31,2.59,2.59,0,0,0-.87-2,3.83,3.83,0,0,0-2.68-.8C164.09,368.12,163.66,368.14,163.1,368.19Zm.16-.47h1.62a4.35,4.35,0,0,0,2.77-.88,2.76,2.76,0,0,0,1.11-2.25,2.06,2.06,0,0,0-.57-1.59,2.4,2.4,0,0,0-1.7-.52,3.24,3.24,0,0,0-1.59.25,3.37,3.37,0,0,0-.79,1.53A28.65,28.65,0,0,0,163.26,367.72Z"/><path class="cls-2" d="M174.22,363.52a1.2,1.2,0,0,0-.17-.64.89.89,0,0,0-.37-.34,4,4,0,0,0-.84-.18q-.21,0-.21-.18c0-.12.07-.19.22-.19s.43,0,.75.05a22.11,22.11,0,0,0,2.22.12,13.9,13.9,0,0,0,1.44-.08,6.31,6.31,0,0,1,.66,0q.36,0,.36.24a.16.16,0,0,1-.06.14,2.29,2.29,0,0,1-.44.08,2.07,2.07,0,0,0-.88.24,2.1,2.1,0,0,0-.62.77,9.92,9.92,0,0,0-.71,2.25c-.25,1.1-.48,2.21-.69,3.31a14.5,14.5,0,0,0-.32,2.43,2.51,2.51,0,0,0,.79,1.81,3.09,3.09,0,0,0,2.26.78,3.61,3.61,0,0,0,2.61-1,9.64,9.64,0,0,0,1.86-4.06,19.06,19.06,0,0,0,.85-4.47,2.13,2.13,0,0,0-.52-1.53,2,2,0,0,0-1.37-.61c-.16,0-.24-.08-.24-.19s.14-.18.42-.18.75,0,1.22,0c.71,0,1.19.05,1.42.05s.77,0,1.3-.06h.18c.16,0,.24.06.24.19s-.14.17-.42.2a1.8,1.8,0,0,0-1,.42,1.93,1.93,0,0,0-.49.83c-.09.32-.21,1-.36,2a31.15,31.15,0,0,1-1.15,4.71c-.59,1.88-1.34,3.06-2.27,3.54a6.4,6.4,0,0,1-3,.72,5.22,5.22,0,0,1-3.06-.8,2.49,2.49,0,0,1-1.13-2.14,27.29,27.29,0,0,1,.69-4.05C174,365.17,174.22,363.78,174.22,363.52Z"/><path class="cls-2" d="M189.57,368.08a25.1,25.1,0,0,0-.75,2.5,11.87,11.87,0,0,0-.5,2.52c0,.56.46.87,1.39.93.19,0,.29.07.29.17s-.12.21-.35.21-.5,0-.93,0-.85,0-1.59,0-1.33,0-1.78,0H185c-.17,0-.26,0-.26-.14s.14-.18.41-.21a1.78,1.78,0,0,0,.81-.23,1.36,1.36,0,0,0,.41-.57c.1-.26.37-1.18.78-2.77l1.1-4.27a13.39,13.39,0,0,0,.47-2.6,1.05,1.05,0,0,0-.27-.76,2,2,0,0,0-1.07-.46c-.15,0-.23-.09-.23-.18s.07-.17.22-.17l.68,0c.31,0,.69,0,1.12,0l3.35,0a5.55,5.55,0,0,1,3.33.77,2.45,2.45,0,0,1,1,2,2.83,2.83,0,0,1-.88,2.07,4.8,4.8,0,0,1-2.52,1.19,2.82,2.82,0,0,1,1.26,1.29,3.94,3.94,0,0,1,.24,1.36,4.87,4.87,0,0,1,0,.66,15.1,15.1,0,0,0-.19,1.69.58.58,0,0,0,.16.4.49.49,0,0,0,.35.17,2.44,2.44,0,0,0,1.19-.53,1.67,1.67,0,0,1,.56-.31.12.12,0,0,1,.13.14c0,.1-.18.28-.55.54a9.67,9.67,0,0,1-1.24.74,3,3,0,0,1-1.38.35,1.22,1.22,0,0,1-.84-.3,1.1,1.1,0,0,1-.36-.9,6.44,6.44,0,0,1,.17-1.21,7.62,7.62,0,0,0,.22-1.7,3.79,3.79,0,0,0-.24-1.58,1.38,1.38,0,0,0-.59-.66,4,4,0,0,0-1.51-.18Zm.09-.43.83,0a7.68,7.68,0,0,0,2.51-.31,2.5,2.5,0,0,0,1.35-1.16,3.45,3.45,0,0,0,.5-1.75,1.84,1.84,0,0,0-.67-1.45,2.77,2.77,0,0,0-1.82-.56,11.15,11.15,0,0,0-1.34.09c0,.07-.12.42-.35,1.06-.16.45-.37,1.16-.61,2.15A14,14,0,0,0,189.66,367.65Z"/><path class="cls-2" d="M200.08,362.13c.68,0,1.78-.05,3.3-.16q1.29-.09,1.89-.09a7.76,7.76,0,0,1,3.65.69,5.26,5.26,0,0,1,2,2.11,6.8,6.8,0,0,1,.78,3.35,6.89,6.89,0,0,1-.83,3.31,5.36,5.36,0,0,1-2.67,2.33,11.57,11.57,0,0,1-4.61.79l-2.66-.07-.77,0c-.67,0-1.25.06-1.75.06h-.67c-.17,0-.25-.06-.25-.17s.12-.17.38-.22a4.25,4.25,0,0,0,1.22-.44,1.23,1.23,0,0,0,.5-.7,60.44,60.44,0,0,0,1.79-8.94,1.56,1.56,0,0,0-.42-1.1,1.42,1.42,0,0,0-1.09-.45c-.29,0-.44-.06-.44-.16S199.68,362.13,200.08,362.13Zm5.16.17a1.47,1.47,0,0,0-1.32.55,21.1,21.1,0,0,0-1.24,4.31,27.94,27.94,0,0,0-.85,5.35q0,1.53,2.1,1.53a5.39,5.39,0,0,0,2.93-.8,5.58,5.58,0,0,0,2.09-2.55,8.26,8.26,0,0,0,.79-3.32,5.84,5.84,0,0,0-1.12-3.57A4,4,0,0,0,205.24,362.3Z"/><path class="cls-2" d="M218.44,362.57a27.6,27.6,0,0,0-1.07,3.72,13.52,13.52,0,0,1-.38,1.39l.64,0a4.43,4.43,0,0,0,2.29-.47,3.08,3.08,0,0,0,1.16-1.55c.09-.23.17-.35.25-.35s.17.07.17.2a.88.88,0,0,1-.06.29q-.1.3-.48,1.74c-.26,1-.41,1.61-.47,2-.17.93-.26,1.42-.29,1.46a.19.19,0,0,1-.16.07c-.11,0-.17-.07-.17-.21l0-.66a3,3,0,0,0-.21-1,1.62,1.62,0,0,0-.49-.8,1.59,1.59,0,0,0-.91-.25l-1.4,0c-.14.63-.32,1.34-.54,2.12a11.2,11.2,0,0,0-.5,2.29,1.32,1.32,0,0,0,.61,1.25,3.7,3.7,0,0,0,1.78.34,8.62,8.62,0,0,0,2.44-.22,5.14,5.14,0,0,0,1.61-1.1,13.58,13.58,0,0,0,1.53-1.6c.15-.19.27-.29.35-.29s.14.07.14.19a15.65,15.65,0,0,1-1.21,3.37h-.44l-2.31,0-5.52-.11c-.4,0-.93,0-1.57.06s-1.08.07-1.37.07-.27-.06-.27-.17.08-.15.25-.18a3.05,3.05,0,0,0,1.51-.54,5.65,5.65,0,0,0,.86-2c.33-1.08.71-2.49,1.15-4.23a18.93,18.93,0,0,0,.64-3.34,1.33,1.33,0,0,0-1.53-1.48c-.24,0-.36-.05-.36-.16s.09-.21.28-.21l9.81-.28a8.42,8.42,0,0,1,.16,1.39c0,.75.05,1.17.06,1.28a2.86,2.86,0,0,1,0,.37c0,.13,0,.19-.15.19s-.18-.09-.25-.27a5.6,5.6,0,0,0-.77-1.37,3,3,0,0,0-.9-.87,2.85,2.85,0,0,0-1.35-.24A20.94,20.94,0,0,0,218.44,362.57Z"/><path class="cls-2" d="M231.34,362.19q3.78,7,5.26,9.23c1.5-4.28,2.26-6.77,2.26-7.47a1.4,1.4,0,0,0-.24-.8,1.25,1.25,0,0,0-.5-.5,2.31,2.31,0,0,0-.71-.17c-.31,0-.47-.1-.47-.21a.17.17,0,0,1,.05-.12,1.71,1.71,0,0,1,.61-.06l1.65,0c.73,0,1.5,0,2.3,0,.17,0,.26.07.26.2s-.06.14-.18.15a2.62,2.62,0,0,0-1.29.46,3,3,0,0,0-.78,1.1c-.22.5-.7,2-1.45,4.41s-1.23,4.09-1.45,5a10.62,10.62,0,0,1-.3,1c0,.09-.09.13-.14.13s-.17-.1-.23-.3a8.35,8.35,0,0,0-.76-1.43L232.5,368c-1-1.68-1.57-2.7-1.81-3.06-.62,1.74-1.12,3.31-1.5,4.69l-.51,1.88a4.75,4.75,0,0,0-.23,1.21,1,1,0,0,0,.47.86,2.5,2.5,0,0,0,1.2.46c.26,0,.39.11.39.2s-.07.17-.19.17h-5c-.16,0-.24-.05-.24-.17s.15-.16.46-.18a2.63,2.63,0,0,0,1.7-.62,9.8,9.8,0,0,0,1.37-3.33q.82-2.79,1.27-4.82c.13-.61.23-1,.28-1.16a8,8,0,0,0-1.1-1.28,2.66,2.66,0,0,0-1.16-.39q-.63-.09-.63-.24c0-.12.18-.18.53-.18l1.14.06,1.12,0C230.56,362.13,231,362.15,231.34,362.19Z"/><path class="cls-2" d="M242.28,373.13a4.29,4.29,0,0,0-1.13.8c-.32.31-.51.47-.58.47s-.13,0-.13-.1l0-.09a8.93,8.93,0,0,0,.65-1.53c.72-2.13,1.19-3.19,1.42-3.19a.14.14,0,0,1,.16.15,1.22,1.22,0,0,1-.09.4,2.91,2.91,0,0,0-.14.89,3.09,3.09,0,0,0,1,2.33,3.25,3.25,0,0,0,2.33.95,2.23,2.23,0,0,0,1.63-.6,1.9,1.9,0,0,0,.61-1.4,2.89,2.89,0,0,0-.5-1.63,21.81,21.81,0,0,0-2.27-2.59,6.55,6.55,0,0,1-1.28-1.65,3.19,3.19,0,0,1,.78-3.68,3.88,3.88,0,0,1,2.62-.92,3.26,3.26,0,0,1,2.69,1.31c.16.2.26.3.31.3s.31-.21.51-.61c.08-.19.17-.28.26-.28s.15.06.15.17a1.11,1.11,0,0,1,0,.29c-.11.35-.27,1-.47,1.9s-.35,1.41-.4,1.56-.13.23-.23.23-.16-.07-.16-.22a.52.52,0,0,1,0-.17,5.12,5.12,0,0,0,0-.67,4,4,0,0,0-.72-2.42,2.31,2.31,0,0,0-2-1,2.19,2.19,0,0,0-1.46.53,1.71,1.71,0,0,0-.62,1.37,2.65,2.65,0,0,0,.18,1,3.48,3.48,0,0,0,.45.81c.17.23.59.68,1.24,1.36a16.83,16.83,0,0,1,2,2.3,3.06,3.06,0,0,1,.51,1.65,3.34,3.34,0,0,1-1,2.42,3.6,3.6,0,0,1-2.71,1.05A4.89,4.89,0,0,1,242.28,373.13Z"/><path class="cls-2" d="M119.12,411.26a8.69,8.69,0,0,1-2.33-.3,5.26,5.26,0,0,1-1.89-.95,4.53,4.53,0,0,1-1.27-1.6,5.25,5.25,0,0,1-.45-2.25V390.48a5.24,5.24,0,0,1,.45-2.24,4.33,4.33,0,0,1,1.27-1.59,5.39,5.39,0,0,1,1.89-.93,9.2,9.2,0,0,1,4.66,0,5.26,5.26,0,0,1,1.88.93,4.39,4.39,0,0,1,1.25,1.59,5.24,5.24,0,0,1,.45,2.24v15.68a5.25,5.25,0,0,1-.45,2.25,4.6,4.6,0,0,1-1.25,1.6,5.13,5.13,0,0,1-1.88.95A8.69,8.69,0,0,1,119.12,411.26Zm2.6-20.64a2.52,2.52,0,0,0-.23-1.13,2.26,2.26,0,0,0-.61-.75,2.5,2.5,0,0,0-.83-.42,3.22,3.22,0,0,0-.93-.13,3.38,3.38,0,0,0-.94.13,2.51,2.51,0,0,0-.85.42,2.26,2.26,0,0,0-.61.75,2.52,2.52,0,0,0-.23,1.13V406a2.56,2.56,0,0,0,.23,1.13,2.22,2.22,0,0,0,.61.74,2.51,2.51,0,0,0,.85.42,3.4,3.4,0,0,0,.94.14,3.22,3.22,0,0,0,.93-.14,2.5,2.5,0,0,0,.83-.42,2.22,2.22,0,0,0,.61-.74,2.56,2.56,0,0,0,.23-1.13Z"/><path class="cls-2" d="M137.94,385.9a.75.75,0,0,1,.31.63v3.55h-1.12a2.34,2.34,0,0,1-1.18-.27.87.87,0,0,1-.48-.81c0-.32-.25-.48-.77-.48h-3.08a.52.52,0,0,0-.35.14.47.47,0,0,0-.15.37v7.5a.59.59,0,0,0,.11.41.65.65,0,0,0,.39.1h4.09c.32,0,.47.17.47.5v1.8c0,.31-.14.47-.43.47h-4.13a.51.51,0,0,0-.35.13.49.49,0,0,0-.15.38v7.4a.8.8,0,0,0,.1.47,1.37,1.37,0,0,0,.27.27,2.25,2.25,0,0,1,.52.57,1.66,1.66,0,0,1,.25,1v1h-5.6v-1a1.59,1.59,0,0,1,.27-1,2.49,2.49,0,0,1,.54-.57,1.84,1.84,0,0,0,.23-.27.8.8,0,0,0,.1-.47V389a.68.68,0,0,0-.4-.71,1.28,1.28,0,0,1-.54-.54,2.44,2.44,0,0,1-.2-1.15v-.91h10.71A1,1,0,0,1,137.94,385.9Z"/><path class="cls-2" d="M162.17,408.42a1.77,1.77,0,0,1,.52.6,1.87,1.87,0,0,1,.25,1V411H157.3v-.91a1.78,1.78,0,0,1,.24-1,1.65,1.65,0,0,1,.5-.54,1.92,1.92,0,0,0,.29-.27.66.66,0,0,0,.12-.44c0-.43-.1-.83-.17-1.19s-.09-.61-.13-.89a3.79,3.79,0,0,1-.07-.59.81.81,0,0,0-.27-.54.93.93,0,0,0-.51-.14h-3.85c-.36,0-.56.23-.61.68a4.59,4.59,0,0,0-.05.59c0,.28,0,.58-.08.89s-.09.76-.14,1.19a1,1,0,0,0,.07.44.73.73,0,0,0,.24.27,1.65,1.65,0,0,1,.5.54,1.78,1.78,0,0,1,.24,1V411H148v-.88a2.07,2.07,0,0,1,.25-1,1.82,1.82,0,0,1,.52-.63,2.12,2.12,0,0,0,.31-.28,1,1,0,0,0,.2-.42c.63-3.47,1.21-6.57,1.72-9.3.23-1.17.44-2.31.65-3.43s.38-2.11.55-3,.31-1.58.41-2.12.15-.83.15-.85a4.42,4.42,0,0,0,0-.49.28.28,0,0,0-.16-.29c-.57-.22-.85-.82-.85-1.79v-.77h4.53a1.74,1.74,0,0,1,1.25.45,1.78,1.78,0,0,1,.54,1.07,9.88,9.88,0,0,0,.17,1.08l.42,2.41.57,3.3c.22,1.21.44,2.45.66,3.71q.78,4.43,1.76,10a.92.92,0,0,0,.2.42A2.12,2.12,0,0,0,162.17,408.42ZM157,401.67a.45.45,0,0,0,.37-.17.43.43,0,0,0,.1-.37s0-.22-.1-.58-.14-.82-.23-1.38-.2-1.2-.31-1.91-.23-1.44-.37-2.18l-1-5.88h-.07l-1,5.88c-.14.74-.26,1.47-.38,2.18l-.3,1.91c-.09.56-.16,1-.22,1.38s-.08.55-.08.58a.45.45,0,0,0,.1.39.43.43,0,0,0,.34.15Z"/><path class="cls-2" d="M178.08,385.69v1a1.56,1.56,0,0,1-.27.94,2.79,2.79,0,0,1-.54.58,1.74,1.74,0,0,0-.22.27,1,1,0,0,0-.12.44v21.18a1,1,0,0,1-.2.61.72.72,0,0,1-.61.27h-2a.65.65,0,0,1-.62-.37,5.29,5.29,0,0,1-.36-.95c0-.11-.19-.56-.44-1.33s-.54-1.72-.89-2.81l-1.12-3.5c-.39-1.23-.76-2.38-1.1-3.44s-.62-1.94-.84-2.65-.34-1.08-.34-1.1a.2.2,0,0,0-.07-.1s0,0,0,.17v12.8a.89.89,0,0,0,.1.51.87.87,0,0,0,.27.23,2.3,2.3,0,0,1,.52.58,1.63,1.63,0,0,1,.26.94v1h-5.27v-1a1.56,1.56,0,0,1,.27-.94,2.79,2.79,0,0,1,.54-.58,1,1,0,0,0,.24-.23.89.89,0,0,0,.1-.47V388.66a1.8,1.8,0,0,1-.58-.37,1.61,1.61,0,0,1-.4-.56,2.09,2.09,0,0,1-.17-.93v-1.11h3.82a.86.86,0,0,1,.6.18,1.15,1.15,0,0,1,.31.53s.11.42.34,1.14.5,1.62.84,2.69.7,2.24,1.1,3.51l1.11,3.65.93,3.06.54,1.76a1,1,0,0,0,.09.13c0,.05.05,0,.05,0V388.93a.86.86,0,0,0-.1-.47,2.91,2.91,0,0,0-.24-.27,2.79,2.79,0,0,1-.54-.58,1.56,1.56,0,0,1-.27-.94v-1Z"/><path class="cls-2" d="M185.65,411.26a8.69,8.69,0,0,1-2.33-.3,5.26,5.26,0,0,1-1.89-.95,4.32,4.32,0,0,1-1.27-1.6,5.11,5.11,0,0,1-.46-2.25V390.48a5.09,5.09,0,0,1,.46-2.24,4.14,4.14,0,0,1,1.27-1.59,5.39,5.39,0,0,1,1.89-.93,9.2,9.2,0,0,1,4.66,0,5.26,5.26,0,0,1,1.88.93,4.49,4.49,0,0,1,1.25,1.59,5.24,5.24,0,0,1,.45,2.24v15.68a5.25,5.25,0,0,1-.45,2.25,4.72,4.72,0,0,1-1.25,1.6A5.13,5.13,0,0,1,188,411,8.69,8.69,0,0,1,185.65,411.26Zm2.6-20.64a2.39,2.39,0,0,0-.24-1.13,2.24,2.24,0,0,0-.6-.75,2.6,2.6,0,0,0-.83-.42,3.31,3.31,0,0,0-.93-.13,3.45,3.45,0,0,0-1,.13,2.55,2.55,0,0,0-.84.42,2.26,2.26,0,0,0-.61.75,2.39,2.39,0,0,0-.24,1.13V406a2.42,2.42,0,0,0,.24,1.13,2.22,2.22,0,0,0,.61.74,2.55,2.55,0,0,0,.84.42,3.47,3.47,0,0,0,1,.14,3.33,3.33,0,0,0,.93-.14,2.6,2.6,0,0,0,.83-.42,2.2,2.2,0,0,0,.6-.74,2.42,2.42,0,0,0,.24-1.13Z"/><path class="cls-2" d="M207,386a1.88,1.88,0,0,1,.3,1.2v2.91h-1.82a.94.94,0,0,1-.75-.32,1.3,1.3,0,0,1-.27-.86c0-.3-.12-.44-.37-.44h-1.66a.51.51,0,0,0-.35.13.57.57,0,0,0-.15.44v18.69a.8.8,0,0,0,.1.47,1.72,1.72,0,0,0,.27.27,2.25,2.25,0,0,1,.52.57,1.66,1.66,0,0,1,.26,1v1h-5.61v-1a1.59,1.59,0,0,1,.27-1,2.49,2.49,0,0,1,.54-.57,2.91,2.91,0,0,0,.24-.27.89.89,0,0,0,.1-.47V388.93a.42.42,0,0,0-.17-.36.68.68,0,0,0-.34-.11h-1.49a.68.68,0,0,0-.32.1.38.38,0,0,0-.18.37,1.14,1.14,0,0,1-.31.86,1.63,1.63,0,0,1-1.11.29h-1.56v-3a1.27,1.27,0,0,1,.43-1.1,2.16,2.16,0,0,1,1.3-.32h11A1.47,1.47,0,0,1,207,386Z"/><path class="cls-2" d="M221.77,407.68v0a1,1,0,0,0,.08.47.7.7,0,0,0,.25.23,2.81,2.81,0,0,1,.55.58,1.56,1.56,0,0,1,.27.94v1h-5.65v-1a1.56,1.56,0,0,1,.27-.94,2.79,2.79,0,0,1,.54-.58.66.66,0,0,0,.26-.23,1,1,0,0,0,.08-.47v-8.05a.42.42,0,0,0-.47-.47h-4a.45.45,0,0,0-.51.51v8a.89.89,0,0,0,.1.47,1,1,0,0,0,.24.23,2.79,2.79,0,0,1,.54.58,1.56,1.56,0,0,1,.27.94v1H209v-1a1.63,1.63,0,0,1,.26-.94,2.3,2.3,0,0,1,.52-.58.87.87,0,0,0,.27-.23.8.8,0,0,0,.1-.47V388.93a.78.78,0,0,0-.1-.47,1.72,1.72,0,0,0-.27-.27,2.3,2.3,0,0,1-.52-.58,1.63,1.63,0,0,1-.26-.94v-1h5.61v1a1.56,1.56,0,0,1-.27.94,2.79,2.79,0,0,1-.54.58,2.91,2.91,0,0,0-.24.27.86.86,0,0,0-.1.47v7a.45.45,0,0,0,.17.39.59.59,0,0,0,.34.12h4a.39.39,0,0,0,.35-.16.53.53,0,0,0,.12-.35v-7a1,1,0,0,0-.08-.47,1.08,1.08,0,0,0-.26-.27,2.79,2.79,0,0,1-.54-.58,1.56,1.56,0,0,1-.27-.94v-1h5.65v1a1.56,1.56,0,0,1-.27.94,2.81,2.81,0,0,1-.55.58,1.23,1.23,0,0,0-.25.27,1,1,0,0,0-.08.47Z"/><path class="cls-2" d="M229.15,388.64a.49.49,0,0,0-.15.36v7.06c0,.31.17.47.5.47h4a.65.65,0,0,1,.36.12.44.44,0,0,1,.19.39v1.89c0,.32-.17.47-.51.47H229.5c-.33,0-.5.16-.5.48v7.87c0,.31.13.47.4.47h3.38c.25,0,.37-.14.37-.44a.94.94,0,0,1,.46-.84,2.19,2.19,0,0,1,1.23-.31h1.29v3.48a.79.79,0,0,1-.26.61.86.86,0,0,1-.62.24H224.54v-.88a2.77,2.77,0,0,1,.18-1.13,1.16,1.16,0,0,1,.53-.56.76.76,0,0,0,.44-.71V389a.76.76,0,0,0-.14-.48,1.27,1.27,0,0,0-.3-.27,1.16,1.16,0,0,1-.53-.54,2.4,2.4,0,0,1-.18-1v-1h10.71a.9.9,0,0,1,.64.23.72.72,0,0,1,.24.51V390h-1.25a3.21,3.21,0,0,1-1.2-.19.72.72,0,0,1-.49-.76.86.86,0,0,0-.1-.38.39.39,0,0,0-.38-.19h-3.24A.45.45,0,0,0,229.15,388.64Z"/><path class="cls-2" d="M250.72,408.36a2.87,2.87,0,0,1,.53.42,1.2,1.2,0,0,1,.25.86V411h-2.81A1.53,1.53,0,0,1,247,409.3v-6.62a3,3,0,0,0-.49-1.84,1.82,1.82,0,0,0-1.57-.66h-2.09c-.3,0-.44.16-.44.47v7.07a.8.8,0,0,0,.1.47,1.94,1.94,0,0,0,.24.27,3,3,0,0,1,.54.57,1.59,1.59,0,0,1,.27,1v1h-5.61v-1a1.59,1.59,0,0,1,.27-1,2.49,2.49,0,0,1,.54-.57,1.84,1.84,0,0,0,.23-.27.79.79,0,0,0,.11-.47V388.93a.72.72,0,0,0-.11-.42.54.54,0,0,0-.23-.22,2.1,2.1,0,0,1-.53-.54,2,2,0,0,1-.25-1.08v-1h7a6.47,6.47,0,0,1,2.47.42,4.36,4.36,0,0,1,2.63,2.94,7.76,7.76,0,0,1,.31,2.28v3.48a4.42,4.42,0,0,1-.44,2,4.36,4.36,0,0,1-1.15,1.47c-.2.21-.18.43.07.68a3.39,3.39,0,0,1,1.15,1.59,6.69,6.69,0,0,1,.37,2.26v5q0,.33.12.42A2.67,2.67,0,0,0,250.72,408.36ZM247,391.09a3.14,3.14,0,0,0-.49-1.87,1.77,1.77,0,0,0-1.57-.7h-2q-.54,0-.54.48v8a.32.32,0,0,0,.13.27.43.43,0,0,0,.27.1h2.13a1.77,1.77,0,0,0,1.57-.71,3.23,3.23,0,0,0,.49-1.89Z"/><rect class="cls-2" x="202.69" y="188.88" width="47.48" height="2"/><rect class="cls-2" x="112.3" y="188.88" width="47.48" height="2"/><rect class="cls-2" x="214.27" y="290.53" width="35.9" height="2"/><rect class="cls-2" x="112.3" y="290.53" width="32.29" height="2"/><path class="cls-2" d="M158,437.67h.26l-.79,2.57h-.25a5.67,5.67,0,0,0-.06-.79,2.7,2.7,0,0,1-2,.83,2.47,2.47,0,0,1-2-.92,3.22,3.22,0,0,1-.75-2.1,5.49,5.49,0,0,1,1.36-3.54,3.89,3.89,0,0,1,3.06-1.66,2.14,2.14,0,0,1,1.2.31,2,2,0,0,1,.76.93,4.28,4.28,0,0,0,.4-.91h.25l-.52,2.31h-.25c0-.1,0-.2,0-.3a2.27,2.27,0,0,0-.48-1.55,1.58,1.58,0,0,0-1.25-.55,2.4,2.4,0,0,0-1.59.63,5,5,0,0,0-1.31,2.12,7.45,7.45,0,0,0-.58,2.66,2.72,2.72,0,0,0,.49,1.66,1.56,1.56,0,0,0,1.32.65C156.39,440,157.29,439.24,158,437.67Z"/><path class="cls-2" d="M159.41,440.23h-.69l2.05-6.77a4.26,4.26,0,0,0,.18-.66.25.25,0,0,0-.08-.2.76.76,0,0,0-.39-.06h-.19l.07-.24a4.33,4.33,0,0,0,1.38-.21h.15l-1.33,4.37c.7-.85,1.34-1.28,1.92-1.28a.9.9,0,0,1,.59.17.59.59,0,0,1,.19.49,5.34,5.34,0,0,1-.34,1.26l-.52,1.47a5.88,5.88,0,0,0-.3,1,.37.37,0,0,0,.06.23.21.21,0,0,0,.18.07.73.73,0,0,0,.47-.25,2.11,2.11,0,0,0,.45-.63h.29a3.16,3.16,0,0,1-.71,1,1.17,1.17,0,0,1-.78.37.63.63,0,0,1-.46-.2.72.72,0,0,1-.2-.53,4.46,4.46,0,0,1,.33-1.25l.5-1.35a5.09,5.09,0,0,0,.35-1.17.29.29,0,0,0-.08-.22.37.37,0,0,0-.25-.07,1.3,1.3,0,0,0-.62.21,2.84,2.84,0,0,0-.74.71,4.29,4.29,0,0,0-.57.94c-.12.3-.27.76-.46,1.4Z"/><path class="cls-2" d="M167.77,435.27h.71l-1,3.43a4.81,4.81,0,0,0-.22.91.23.23,0,0,0,0,.17.2.2,0,0,0,.16.07q.41,0,.93-.93h.24a3.2,3.2,0,0,1-.65,1,1.19,1.19,0,0,1-.78.43.46.46,0,0,1-.42-.21.8.8,0,0,1-.15-.5,2.26,2.26,0,0,1,.12-.63,3.85,3.85,0,0,1-.77.9,1.47,1.47,0,0,1-.94.44.89.89,0,0,1-.7-.35,1.4,1.4,0,0,1-.3-.94,3.79,3.79,0,0,1,.46-1.71,4.6,4.6,0,0,1,1.19-1.52,2.13,2.13,0,0,1,1.26-.61.67.67,0,0,1,.72.59Zm-3.06,3.92a1.16,1.16,0,0,0,.12.59.37.37,0,0,0,.35.19,1.48,1.48,0,0,0,.93-.56,4.83,4.83,0,0,0,.94-1.74,6.63,6.63,0,0,0,.4-1.6.75.75,0,0,0-.13-.42.42.42,0,0,0-.36-.17c-.48,0-1,.47-1.48,1.41A5.21,5.21,0,0,0,164.71,439.19Z"/><path class="cls-2" d="M169.22,436.76H169a4.28,4.28,0,0,1,.62-1.12,1,1,0,0,1,.74-.46.42.42,0,0,1,.37.2,1.26,1.26,0,0,1,.12.62,5.62,5.62,0,0,1-.26,1.45s.09-.18.19-.42a7.39,7.39,0,0,1,.77-1.42.88.88,0,0,1,.65-.43.42.42,0,0,1,.33.13.45.45,0,0,1,.12.31.41.41,0,0,1-.1.29.34.34,0,0,1-.24.11.44.44,0,0,1-.32-.19c0-.05-.09-.08-.13-.08-.2,0-.5.47-.91,1.41a25.93,25.93,0,0,0-1,2.65l-.13.42h-.7l.93-3.1a5.1,5.1,0,0,0,.26-1.21.54.54,0,0,0,0-.25.13.13,0,0,0-.13-.08c-.13,0-.29.13-.49.41A3.39,3.39,0,0,0,169.22,436.76Z"/><path class="cls-2" d="M174.48,438.74h.26c-.4,1-.91,1.57-1.53,1.57a.65.65,0,0,1-.52-.22.75.75,0,0,1-.19-.53,7.53,7.53,0,0,1,.38-1.57l1.37-4.52a3.67,3.67,0,0,0,.17-.67.22.22,0,0,0-.08-.2.76.76,0,0,0-.39-.06h-.23l.08-.24a4,4,0,0,0,1.42-.21h.15l-1.89,6.21c0,.1-.08.27-.17.53a2.83,2.83,0,0,0-.17.78.4.4,0,0,0,.07.26.23.23,0,0,0,.2.09.88.88,0,0,0,.5-.28A2.63,2.63,0,0,0,174.48,438.74Z"/><path class="cls-2" d="M177.8,438.65h.28c-.5,1.11-1.13,1.66-1.91,1.66a1,1,0,0,1-.78-.34,1.31,1.31,0,0,1-.3-.91,4.26,4.26,0,0,1,.39-1.64,4.5,4.5,0,0,1,1.1-1.58,2,2,0,0,1,1.25-.66.6.6,0,0,1,.5.21.76.76,0,0,1,.17.52,1.65,1.65,0,0,1-.63,1.21,6.73,6.73,0,0,1-1.9,1.13,3.11,3.11,0,0,0-.16,1,1,1,0,0,0,.14.57.54.54,0,0,0,.44.18C176.92,440,177.39,439.53,177.8,438.65Zm-1.74-.7a4.67,4.67,0,0,0,1.36-.94,1.66,1.66,0,0,0,.6-1.08.55.55,0,0,0-.09-.34.33.33,0,0,0-.27-.1c-.24,0-.51.22-.83.68A5.45,5.45,0,0,0,176.06,438Z"/><path class="cls-2" d="M181.39,438.86a1.42,1.42,0,0,1-.42,1,1.57,1.57,0,0,1-1.23.46,1.34,1.34,0,0,1-.91-.27.77.77,0,0,1-.3-.57.45.45,0,0,1,.09-.28.28.28,0,0,1,.23-.12c.21,0,.32.11.32.34a.68.68,0,0,1,0,.21.84.84,0,0,0,0,.1.29.29,0,0,0,.18.25,1,1,0,0,0,.44.1,1.1,1.1,0,0,0,.71-.25.82.82,0,0,0,.32-.69,3,3,0,0,0-.45-1.2,3.39,3.39,0,0,1-.52-1.39,1.21,1.21,0,0,1,.44-1,1.51,1.51,0,0,1,1-.39,1.23,1.23,0,0,1,.72.22.58.58,0,0,1,.29.45c0,.2-.08.31-.26.31s-.22-.12-.28-.35a.47.47,0,0,0-.51-.38,1,1,0,0,0-.58.18.57.57,0,0,0-.24.48,2.47,2.47,0,0,0,.39,1.09,6.21,6.21,0,0,1,.49,1A1.8,1.8,0,0,1,181.39,438.86Z"/><path class="cls-2" d="M187.16,432.2h.58l1.21,0,1,0a4.09,4.09,0,0,1,1.94.42,2.72,2.72,0,0,1,1.18,1.26,4.08,4.08,0,0,1,.39,1.76,4.79,4.79,0,0,1-1.26,3.2,4.14,4.14,0,0,1-1.27.92,4.34,4.34,0,0,1-1.25.37q-.57.06-1.65.06h-3.2l.09-.27h.34a1.28,1.28,0,0,0,.61-.13.85.85,0,0,0,.34-.3,6,6,0,0,0,.27-.76l1.54-5.06a4,4,0,0,0,.17-.74c0-.27-.25-.41-.76-.41h-.3Zm2.22.22-1.89,6.22a3.44,3.44,0,0,0-.16.69c0,.37.4.56,1.2.56a3.17,3.17,0,0,0,2.81-1.49,5.61,5.61,0,0,0,1-3.17,3.25,3.25,0,0,0-.61-2.05,2.24,2.24,0,0,0-1.87-.79Z"/><path class="cls-2" d="M195.85,438.86h.28a3.61,3.61,0,0,1-.71,1,1.28,1.28,0,0,1-.86.44.69.69,0,0,1-.48-.2.75.75,0,0,1-.21-.58,4.28,4.28,0,0,1,.33-1.18l.67-1.79a3.53,3.53,0,0,0,.24-.76.24.24,0,0,0-.06-.18.22.22,0,0,0-.17-.06q-.23,0-.54.36a2.63,2.63,0,0,0-.44.64h-.28a3.37,3.37,0,0,1,.73-1,1.21,1.21,0,0,1,.78-.37.58.58,0,0,1,.45.19.71.71,0,0,1,.17.49,3.88,3.88,0,0,1-.31,1.14l-.56,1.52a4.23,4.23,0,0,0-.31,1,.36.36,0,0,0,.07.25.22.22,0,0,0,.19.09C195.12,439.9,195.46,439.55,195.85,438.86Zm-.43-6.26a.51.51,0,1,1,.51.51.5.5,0,0,1-.37-.15A.56.56,0,0,1,195.42,432.6Z"/><path class="cls-2" d="M199.25,438.48h.23a3.18,3.18,0,0,1-.8,1.33,1.54,1.54,0,0,1-1.07.5.93.93,0,0,1-.76-.36,1.55,1.55,0,0,1-.29-1,4.11,4.11,0,0,1,.39-1.64,4.18,4.18,0,0,1,1.1-1.51,2,2,0,0,1,1.24-.62.78.78,0,0,1,.53.2.64.64,0,0,1,.22.48c0,.28-.12.42-.34.42s-.34-.16-.36-.47-.09-.34-.26-.34-.47.2-.76.6a5.83,5.83,0,0,0-.75,1.62,6.12,6.12,0,0,0-.31,1.54.8.8,0,0,0,.17.53.51.51,0,0,0,.41.2,1.14,1.14,0,0,0,.76-.4A2.86,2.86,0,0,0,199.25,438.48Z"/><path class="cls-2" d="M204.28,438.81h.25A2.29,2.29,0,0,1,204,440a1.09,1.09,0,0,1-.74.35q-.75,0-.75-1c0-.08,0-.27,0-.58,0-.49.06-.77.06-.83q0-.57-.45-.57a.72.72,0,0,0-.42.15.91.91,0,0,0-.29.36c-.06.15-.15.43-.28.85l-.46,1.5H200l2.08-6.82a5,5,0,0,0,.16-.61.25.25,0,0,0-.08-.2.76.76,0,0,0-.39-.06h-.21l.08-.24a3.77,3.77,0,0,0,1.39-.22h.15l-1.61,5.29a14.26,14.26,0,0,1,1.89-1.85,1.66,1.66,0,0,1,.88-.34c.35,0,.53.13.53.38a.34.34,0,0,1-.11.25.33.33,0,0,1-.23.1.61.61,0,0,1-.32-.13.56.56,0,0,0-.27-.08c-.37,0-1,.5-1.86,1.49l.18,0c.62,0,1,.63,1,1.9a2.11,2.11,0,0,0,.08.64.23.23,0,0,0,.23.13c.13,0,.27-.1.41-.3A2,2,0,0,0,204.28,438.81Z"/><path class="cls-2" d="M207.68,438.65H208c-.5,1.11-1.14,1.66-1.91,1.66a1,1,0,0,1-.79-.34,1.31,1.31,0,0,1-.3-.91,4.26,4.26,0,0,1,.39-1.64,4.53,4.53,0,0,1,1.11-1.58,2,2,0,0,1,1.25-.66.6.6,0,0,1,.5.21.81.81,0,0,1,.17.52,1.65,1.65,0,0,1-.63,1.21,6.88,6.88,0,0,1-1.9,1.13,3.14,3.14,0,0,0-.17,1,.92.92,0,0,0,.15.57.52.52,0,0,0,.43.18C206.8,440,207.27,439.53,207.68,438.65Zm-1.74-.7a4.8,4.8,0,0,0,1.36-.94,1.66,1.66,0,0,0,.6-1.08.55.55,0,0,0-.09-.34.33.33,0,0,0-.27-.1c-.24,0-.52.22-.83.68A5.45,5.45,0,0,0,205.94,438Z"/><path class="cls-2" d="M213,439h.3a3.72,3.72,0,0,1-.72.95,1.18,1.18,0,0,1-.75.32.71.71,0,0,1-.45-.16.59.59,0,0,1-.19-.48,4.06,4.06,0,0,1,.27-1l.62-1.79a3.92,3.92,0,0,0,.25-.95.42.42,0,0,0-.08-.29.34.34,0,0,0-.26-.09c-.3,0-.69.35-1.16,1.05a10.1,10.1,0,0,0-1.24,2.73l-.28.94h-.72l1-3.33a6.8,6.8,0,0,0,.28-1,.28.28,0,0,0,0-.15.14.14,0,0,0-.11,0c-.23,0-.51.28-.82.85h-.27c.49-.89,1-1.33,1.39-1.33a.43.43,0,0,1,.34.14.68.68,0,0,1,.11.42,5.2,5.2,0,0,1-.39,1.56c.71-1.41,1.39-2.12,2.06-2.12a.82.82,0,0,1,.57.22.78.78,0,0,1,.24.62,3.91,3.91,0,0,1-.24,1l-.63,1.87a6.06,6.06,0,0,0-.25.85.19.19,0,0,0,0,.16.21.21,0,0,0,.16.06.64.64,0,0,0,.43-.23A3.14,3.14,0,0,0,213,439Z"/><path class="cls-2" d="M216.39,438.86a1.41,1.41,0,0,1-.41,1,1.58,1.58,0,0,1-1.24.46,1.31,1.31,0,0,1-.9-.27.77.77,0,0,1-.3-.57.45.45,0,0,1,.09-.28.27.27,0,0,1,.23-.12c.21,0,.31.11.31.34a1,1,0,0,1,0,.21.24.24,0,0,0,0,.1.29.29,0,0,0,.18.25.94.94,0,0,0,.43.1,1.15,1.15,0,0,0,.72-.25.85.85,0,0,0,.32-.69,3,3,0,0,0-.45-1.2,3.45,3.45,0,0,1-.53-1.39,1.24,1.24,0,0,1,.44-1,1.52,1.52,0,0,1,1-.39,1.2,1.2,0,0,1,.71.22.57.57,0,0,1,.3.45c0,.2-.09.31-.26.31s-.22-.12-.28-.35a.48.48,0,0,0-.51-.38.93.93,0,0,0-.58.18.56.56,0,0,0-.25.48,2.47,2.47,0,0,0,.39,1.09,7.62,7.62,0,0,1,.5,1A2,2,0,0,1,216.39,438.86Z"/><path class="cls-2" d="M114.68,422.54h-1.5a.25.25,0,0,1,0-.5h1.5a.25.25,0,0,1,0,.5Z"/><path class="cls-2" d="M247.62,422.54h-3a.25.25,0,1,1,0-.5h3a.25.25,0,1,1,0,.5Zm-6,0h-3a.25.25,0,0,1,0-.5h3a.25.25,0,0,1,0,.5Zm-6.05,0h-3a.25.25,0,1,1,0-.5h3a.25.25,0,1,1,0,.5Zm-6,0h-3a.25.25,0,1,1,0-.5h3a.25.25,0,0,1,0,.5Zm-6,0h-3a.25.25,0,0,1,0-.5h3a.25.25,0,0,1,0,.5Zm-6,0h-3a.25.25,0,0,1,0-.5h3a.25.25,0,1,1,0,.5Zm-6,0h-3a.25.25,0,1,1,0-.5h3a.25.25,0,1,1,0,.5Zm-6,0h-3a.25.25,0,0,1,0-.5h3a.25.25,0,0,1,0,.5Zm-6,0h-3a.25.25,0,1,1,0-.5h3a.25.25,0,1,1,0,.5Zm-6.05,0h-3a.25.25,0,1,1,0-.5h3a.25.25,0,0,1,0,.5Zm-6,0h-3a.25.25,0,0,1,0-.5h3a.25.25,0,0,1,0,.5Zm-6,0h-3a.25.25,0,0,1,0-.5h3a.25.25,0,1,1,0,.5Zm-6.05,0h-3a.25.25,0,1,1,0-.5h3a.25.25,0,0,1,0,.5Zm-6,0h-3a.25.25,0,0,1,0-.5h3a.25.25,0,0,1,0,.5Zm-6,0h-3a.25.25,0,1,1,0-.5h3a.25.25,0,1,1,0,.5Zm-6,0h-3a.25.25,0,0,1,0-.5h3a.25.25,0,0,1,0,.5Zm-6,0h-3a.25.25,0,0,1,0-.5h3a.25.25,0,0,1,0,.5Zm-6,0h-3a.25.25,0,0,1,0-.5h3a.25.25,0,1,1,0,.5Zm-6,0h-3a.25.25,0,1,1,0-.5h3a.25.25,0,0,1,0,.5Zm-6,0h-3a.25.25,0,0,1,0-.5h3a.25.25,0,0,1,0,.5Zm-6,0h-3a.25.25,0,1,1,0-.5h3a.25.25,0,1,1,0,.5Zm-6,0h-3a.25.25,0,1,1,0-.5h3a.25.25,0,0,1,0,.5Z"/><path class="cls-2" d="M252.14,422.54h-1.5a.25.25,0,0,1,0-.5h1.5a.25.25,0,1,1,0,.5Z"/></g></g></svg>
