<?xml version="1.0" encoding="utf-8"?>
<!-- Generator: Adobe Illustrator 24.3.0, SVG Export Plug-In . SVG Version: 6.00 Build 0)  -->
<svg version="1.1" id="Layer_1" xmlns="http://www.w3.org/2000/svg" xmlns:xlink="http://www.w3.org/1999/xlink" x="0px" y="0px"
	 viewBox="0 0 500 500" style="enable-background:new 0 0 500 500;" xml:space="preserve">
<style type="text/css">
	.st0{fill:#F0F0F0;}
	.st1{fill:#E0E0E0;}
	.st2{opacity:0.1;fill:#455A64;enable-background:new    ;}
	.st3{fill:#EBEBEB;}
	.st4{fill:#90CAF9;}
	.st5{fill:#FFFFFF;}
	.st6{opacity:0.11;}
	.st7{fill:#FAFAFA;}
	.st8{fill:#FFA8A7;}
	.st9{fill:#37474F;}
	.st10{fill:#F28F8F;}
	.st11{opacity:0.15;enable-background:new    ;}
	.st12{fill:#455A64;}
	.st13{fill:#263238;}
	.st14{opacity:0.1;enable-background:new    ;}
	.st15{opacity:0.7;fill:#FFFFFF;enable-background:new    ;}
	.st16{opacity:0.3;enable-background:new    ;}
	.st17{opacity:0.5;fill:#FFFFFF;enable-background:new    ;}
	.st18{opacity:0.3;}
	.st19{opacity:0.5;enable-background:new    ;}
	.st20{opacity:0.6;enable-background:new    ;}
	.st21{opacity:0.1;fill:#90CAF9;enable-background:new    ;}
	.st22{opacity:0.25;enable-background:new    ;}
	.st23{opacity:0.4;enable-background:new    ;}
	.st24{fill:#B16668;}
	.st25{fill:#9A4A4D;}
</style>
<ellipse id="freepik--floor--inject-124" class="st0" cx="253.6" cy="341.3" rx="232" ry="133.9"/>
<ellipse id="freepik--Shadow--inject-124" class="st1" cx="403.8" cy="357.2" rx="62.8" ry="36.3"/>
<path id="freepik--shadow--inject-124" class="st1" d="M54.8,367.6L74.4,379c1.7,0.9,3.7,0.9,5.3,0l230-132.8c1.5-0.9,1.5-2.2,0-3.1
	l-19.7-11.4c-1.7-0.8-3.7-0.8-5.3,0l-230,132.8C53.3,365.4,53.3,366.8,54.8,367.6z"/>
<path id="freepik--shadow--inject-124_1_" class="st1" d="M320.1,415.2l-88.4,51c-1.3,0.7-2.9,0.7-4.3,0l-119.2-68.8
	c-0.7-0.2-1.1-1-0.8-1.7c0.1-0.4,0.4-0.7,0.8-0.8l88.3-51c1.3-0.7,2.9-0.7,4.3,0l119.2,68.8c0.7,0.2,1.1,1,0.8,1.7
	C320.7,414.7,320.4,415,320.1,415.2z"/>
<path id="freepik--shadow--inject-124_2_" class="st2" d="M372,281.1l-8.8-5.1c-1.7-1-3.7-1-5.4,0l-110,64.4l-10.4,12.2
	c-0.3,0.3-0.2,0.8,0.1,1.1c0.2,0.2,0.5,0.2,0.7,0.2l22.6-6L372,283.7c0.7-0.4,1-1.3,0.5-2.1C372.4,281.4,372.2,281.2,372,281.1z"/>
<g id="freepik--clouds--inject-124">
	<path class="st3" d="M104,62.3l-3.9,1.3v-7.4c0-5.9-5.4-7.3-11.3-4.4l0,0c-5.9,3-10.7,10.1-10.7,16v1.1c-1.7-0.5-3.5-0.2-5,0.7l0,0
		c-4.2,2.1-7.7,7.3-7.7,11.5v0.5L60,84.3c-2.8,1.4-5.1,4.8-5.1,7.6s2.3,3.9,5.1,2.5l44-22c2.8-1.4,5.1-4.8,5.1-7.6
		C109.1,62,106.8,60.9,104,62.3z"/>
	<path class="st3" d="M149.4,79l-7.1,3.5c0-0.3,0.1-0.5,0.1-0.8V80c0-3.2-2.6-4.4-5.7-2.8c-1.3,0.7-2.5,1.7-3.4,2.8
		c-0.5-4-4.1-5.4-8.5-3.3c-4.7,2.4-8.6,8.1-8.6,12.8v2.7c0,1.1,0.2,2.1,0.7,3.1l-5.9,2.9c-1.8,0.9-3,2.7-3.2,4.8
		c0,1.8,1.4,2.5,3.2,1.6l38.3-19.2c1.8-0.9,3-2.7,3.2-4.8C152.6,78.9,151.1,78.2,149.4,79z"/>
</g>
<g id="freepik--plants--inject-124">
	<path class="st4" d="M63,340.1l8.2-2.9c0,0,2.4-17.8,0.2-32.4c-3.3-21.9-21.8-43.1-35.1-47.2C12,250,12.1,273,30.5,285.8
		C46.4,297,60.6,313.7,63,340.1z"/>
	<path class="st5" d="M67,339.1L67,339.1c-0.6-0.1-0.9-0.6-0.8-1.1c4.4-20-11.2-57.9-33-69.1c-0.4-0.4-0.4-1,0-1.4
		c0.2-0.3,0.6-0.4,0.9-0.3c22.5,11.6,38.5,50.5,34,71.2C67.9,338.9,67.5,339.2,67,339.1z"/>
	<path class="st4" d="M73.7,357.8c0.4-2.4,0.6-5.9,0.7-6.7c0.3-3,0-6.1-1-9c-0.4-1.3-1.3-2.5-1.5-3.8s0.1-2.4-0.2-3.7
		c-0.6-2.6-2.3-4.8-4.6-6.1c-2.2-1.2-5-1.8-6.2-4c-0.8-1.5-0.6-3.3-0.6-5c0.1-2.6-0.2-5.4-1.9-7.4c-2.1-2.5-5.9-3.1-9.2-2.7
		s-6.6,1.3-9.9,1.1c-5.6-0.5-10.4-4.4-16-5.2c-2-0.3-4-0.2-5.9,0.2c-2.9,0.6-5.8,2-7.2,4.6c-1.1,2.5-0.9,5.4,0.6,7.7
		c1.6,2.6,4,4.2,6.6,5.6s4.6,2.9,3.3,6.3c-0.5,0.9-0.8,2-0.9,3c0.1,1.9,1.1,3.6,2.7,4.5c1.6,0.9,3.4,1.5,5.2,1.7l6.4,1.3
		c1.8,0.4,4.1,1.2,4.2,3.1c0.1,1.2-0.8,2.1-1.3,3.2c-0.8,2.3-0.1,4.8,1.7,6.4c1.8,1.5,4,2.5,6.4,2.7c2.3,0.3,4.7,0.3,7,0.6
		c3.6,0.4,7.1,1.6,10.3,3.4c0.8,0.5,1.6,0.9,2.5,1.2C66.4,361,73.5,359.3,73.7,357.8z"/>
	<g class="st6">
		<path d="M73.7,357.8c0.4-2.4,0.6-5.9,0.7-6.7c0.3-3,0-6.1-1-9c-0.4-1.3-1.3-2.5-1.5-3.8s0.1-2.4-0.2-3.7c-0.6-2.6-2.3-4.8-4.6-6.1
			c-2.2-1.2-5-1.8-6.2-4c-0.8-1.5-0.6-3.3-0.6-5c0.1-2.6-0.2-5.4-1.9-7.4c-2.1-2.5-5.9-3.1-9.2-2.7s-6.6,1.3-9.9,1.1
			c-5.6-0.5-10.4-4.4-16-5.2c-2-0.3-4-0.2-5.9,0.2c-2.9,0.6-5.8,2-7.2,4.6c-1.1,2.5-0.9,5.4,0.6,7.7c1.6,2.6,4,4.2,6.6,5.6
			s4.6,2.9,3.3,6.3c-0.5,0.9-0.8,2-0.9,3c0.1,1.9,1.1,3.6,2.7,4.5c1.6,0.9,3.4,1.5,5.2,1.7l6.4,1.3c1.8,0.4,4.1,1.2,4.2,3.1
			c0.1,1.2-0.8,2.1-1.3,3.2c-0.8,2.3-0.1,4.8,1.7,6.4c1.8,1.5,4,2.5,6.4,2.7c2.3,0.3,4.7,0.3,7,0.6c3.6,0.4,7.1,1.6,10.3,3.4
			c0.8,0.5,1.6,0.9,2.5,1.2C66.4,361,73.5,359.3,73.7,357.8z"/>
	</g>
	<path class="st5" d="M69.9,360c-0.3,0-0.6-0.3-0.7-0.6c-8-21.1-26.9-37.9-53.4-47.4c-0.5-0.2-0.7-0.7-0.5-1.1
		c0.2-0.4,0.7-0.7,1.1-0.5c26.9,9.7,46.3,26.9,54.4,48.5c0.2,0.4,0,1-0.5,1.1c0,0,0,0,0,0C70.1,360,70,360,69.9,360z"/>
</g>
<g id="freepik--pencil--inject-124">
	<path class="st4" d="M352.3,288.5l-1.8,1.1l-2.2,1.3l-87.9,51.1c0.7-1.5,0.1-4.6-1.5-7.5c-1.9-3.4-4.7-6.1-6.7-6.2l87.3-50.8
		l4.2-2.4C341.1,276.7,349.6,290.2,352.3,288.5z"/>
	<path class="st3" d="M343.4,275.1c1.2-0.7,3.2,1.4,5.1,4.2c2.6,3.7,4.7,8.5,3.2,9.5l-3,1.8l-1.1,0.6c1.5-1-0.6-5.8-3.2-9.5
		c-1.9-2.6-4-4.7-5.2-4.2l0,0L343.4,275.1z"/>
	<path class="st4" d="M340.2,277c2.7-1.7,11.2,11.9,8.5,13.6l-4.1,2.4c2.7-1.7-5.8-15.2-8.5-13.5L340.2,277z"/>
	<path class="st3" d="M332.2,281.6l4-2.4c2.6-1.7,11,11.3,8.8,13.4l-0.1,0.1l-4.1,2.3C343.4,293.4,334.9,279.9,332.2,281.6z"/>
	<path class="st7" d="M252.2,328.2L252.2,328.2L240.2,342l0,0L252.2,328.2z"/>
	<polygon class="st1" points="240.2,342 237.2,345.4 240.2,342 	"/>
	<path class="st8" d="M258.5,331.8c-1.7-2.1-3.9-3.6-6.3-3.6l0,0L240.2,342c0.5,0.1,0.9,0.3,1.3,0.7c1.4,1.9,1.3,2.8,1.3,2.8
		l17.7-3.6C262.1,339.2,260.9,334.9,258.5,331.8z"/>
	<path class="st9" d="M241.4,342.7c-0.3-0.4-0.8-0.7-1.3-0.7l-2.9,3.4l0,0c-0.3,0.3-0.2,0.7,0,1c0.2,0.2,0.4,0.2,0.6,0.2l4.8-1
		C242.7,345.5,242.9,344.6,241.4,342.7z"/>
	<path class="st10" d="M368.3,279.1l-16,9.4c-0.1,0-0.2,0.1-0.3,0.1c1.1-1.3-0.9-5.8-3.4-9.3c-1.8-2.5-3.9-4.5-5.1-4.2l16.7-9.8
		c3.7-2.5,8.5,4.4,9.4,9.3C370,276.5,369.6,278.2,368.3,279.1z"/>
	<path class="st11" d="M368.3,279.1c1.4-1,1.7-2.6,1.3-4.5c0-0.2-0.1-0.5-0.2-0.7l-108.5,62.8l-23.6,9.6c0.2,0.2,0.4,0.2,0.6,0.2
		l4.8-1l17.7-3.6l0,0L368.3,279.1z"/>
</g>
<g id="freepik--device--inject-124_1_">
	<g id="freepik--device--inject-124">
		<path class="st12" d="M299.8,47c-1.5-0.8-3.4-0.7-5.6,0.5l-212,122.4c-2.5,1.6-4.6,3.9-6,6.6l-8.5-4.9c1.9-3.6,4.5-4.8,6.8-6.1
			l212-122.4c2.2-1.3,4.2-1.3,5.8-0.4l0,0L299.8,47z"/>
		<path class="st13" d="M68.9,368.3L68.9,368.3c-1.9-1-3.1-3.5-3.1-7.1V182.1c0-4,0.3-7.6,1.9-10.5l8.5,4.9
			c-0.2,0.4-0.4,0.8-0.6,1.2s-0.3,0.7-0.4,1c0,0,0,0.1-0.1,0.2c-0.2,0.4-0.3,0.8-0.5,1.2c-0.2,0.4-0.3,0.9-0.4,1.3
			c-0.1,0.3-0.2,0.7-0.2,1c-0.3,1.4-0.5,2.7-0.5,4.1v179.1c0,3.6,1.2,6.1,3.1,7.1L68.9,368.3z"/>
		<path class="st9" d="M294.2,47.5L80.3,170.8c-4.8,2.8-6.8,7.6-6.8,14v180.9c0,6.4,3.9,9.4,8.7,6.6l212-122.4
			c4.8-2.8,8.7-10.2,8.7-16.6V54.1C302.9,47.7,299,44.7,294.2,47.5z"/>
		<path class="st4" d="M282.5,248.3L93.9,357.2c-2.5,1.4-4.5-0.1-4.5-3.4V180.1c0-3.3,2-7.2,4.5-8.6L282.5,62.6
			c2.5-1.4,4.5,0.1,4.5,3.4v173.7C287.1,243,285,246.9,282.5,248.3z"/>
		<path class="st14" d="M282.5,248.3L93.9,357.2c-2.5,1.4-4.5-0.1-4.5-3.4V180.1c0-3.3,2-7.2,4.5-8.6L282.5,62.6
			c2.5-1.4,4.5,0.1,4.5,3.4v173.7C287.1,243,285,246.9,282.5,248.3z"/>
		<path class="st13" d="M83.8,277c0,1.7-0.9,3.3-2.3,4.3c-1.2,0.7-2.3,0-2.3-1.7c0-1.7,0.9-3.3,2.3-4.3
			C82.7,274.5,83.8,275.3,83.8,277z"/>
		<path class="st13" d="M81.5,247.9L81.5,247.9c-1.1,0.8-1.7,2-1.8,3.4v15.5c0,1.3,0.8,1.9,1.8,1.3l0,0c1.1-0.8,1.7-2,1.8-3.4v-15.5
			C83.2,247.9,82.4,247.3,81.5,247.9z"/>
	</g>
	<g id="freepik--Sheet--inject-124">
		<path class="st7" d="M280.3,79.8c-0.1-1.1-1-1.5-2-0.9L102.1,180.6c-0.6,0.4-1.1,0.9-1.5,1.6l-3.9-2.2c0.2-0.3,0.4-0.6,0.7-0.9
			l0.2-0.2c0.2-0.2,0.4-0.3,0.6-0.5L274.4,76.7c1-0.5,2.1-0.6,3.1-0.4c0.3,0.1,0.6,0.2,0.9,0.3c0.1,0.1,0.2,0.2,0.4,0.2
			c0.1,0.1,0.2,0.1,0.2,0.2c0.1,0,0.1,0.1,0.2,0.2c0.1,0.1,0.2,0.2,0.3,0.3c0.1,0.1,0.1,0.2,0.2,0.3c0.1,0.2,0.3,0.5,0.4,0.7
			c0.1,0.1,0.1,0.3,0.2,0.4c0,0.1,0,0.2,0.1,0.3C280.3,79.5,280.3,79.7,280.3,79.8z"/>
		<path class="st1" d="M101.2,342.9c-0.7,0-1.2-0.5-1.2-1.5V184.2c0-0.7,0.2-1.4,0.6-2l-3.9-2.2c-0.2,0.4-0.4,0.8-0.5,1.3
			c0,0.2-0.1,0.3-0.1,0.5c0,0.1,0,0.2,0,0.2v157.2c0,1.4,0.8,2.7,1.9,3.5c0.7,0.4,1.6,0.5,2.4,0.4c0.6,0,1.1-0.2,1.6-0.5
			C101.8,342.8,101.5,342.9,101.2,342.9z"/>
		<path class="st0" d="M280.3,80.2c0-1.3-0.9-1.8-2.1-1.2L102.1,180.7c-1.2,0.8-2,2.1-2.1,3.6v157.2c0,1.3,0.9,1.9,2.1,1.2
			l176.2-101.7c1.2-0.8,2-2.1,2.1-3.6V80.2z"/>
	</g>
	<g id="freepik--Report--inject-124">
		<path class="st4" d="M127.8,224.6L118,237l-5.7,7.2c-1.2-2.7-1.8-5.7-1.8-8.6c0-8.4,3.6-18,9.5-25.4l1.3,2.4L127.8,224.6z"/>
		<path class="st4" d="M136.1,199.6l-7.6,23.1l-3.5-6.4l-4-7.5c2.2-2.7,5-5.1,8-6.9C131.2,200.6,133.6,199.8,136.1,199.6z"/>
		<path class="st4" d="M144.9,204.8l-14.4,16.6l7.2-21.7C140.8,200,143.5,202,144.9,204.8z"/>
		<path class="st4" d="M146.8,213.8c0,12.6-8.3,27.7-18.5,33.6c-6.3,3.7-12,3-15.2-1.8l16.1-20.4l0.1-0.1l16.3-18.8
			C146.4,208.7,146.8,211.2,146.8,213.8z"/>
		<path class="st15" d="M136.1,199.6l-7.6,23.1l-3.5-6.4l-4-7.5c2.2-2.7,5-5.1,8-6.9C131.2,200.6,133.6,199.8,136.1,199.6z"/>
		<path class="st16" d="M144.9,204.8l-14.4,16.6l7.2-21.7C140.8,200,143.5,202,144.9,204.8z"/>
		<path class="st17" d="M146.8,213.8c0,12.6-8.3,27.7-18.5,33.6c-6.3,3.7-12,3-15.2-1.8l16.1-20.4l0.1-0.1l16.3-18.8
			C146.4,208.7,146.8,211.2,146.8,213.8z"/>
		<path class="st12" d="M113.1,189.4c0.3-0.2,0.6-0.3,1-0.4c0.3-0.1,0.5,0,0.8,0.1c0.2,0.2,0.4,0.4,0.5,0.7c0.1,0.4,0.2,0.8,0.2,1.2
			c0,0.6-0.1,1.2-0.3,1.8c-0.2,0.5-0.4,1-0.8,1.4l1.1,2.5c0,0,0,0.1,0,0.1c0,0.1,0,0.2-0.1,0.2c0,0.1-0.1,0.1-0.1,0.2l-1.2,0.7
			c-0.1,0.1-0.2,0.1-0.2,0c-0.1,0-0.1-0.1-0.1-0.2l-1-2.3l-0.8,0.5v2.8c0,0.1,0,0.2-0.1,0.3c0,0.1-0.1,0.1-0.2,0.2l-1.1,0.6
			c0,0-0.1,0-0.2,0c-0.1-0.1-0.1-0.1-0.1-0.2v-8.5c0-0.1,0-0.2,0.1-0.3c0-0.1,0.1-0.2,0.2-0.2L113.1,189.4z M112.1,194l1-0.6
			c0.2-0.1,0.4-0.3,0.6-0.6c0.2-0.3,0.2-0.6,0.2-0.9c0-0.4-0.1-0.6-0.2-0.6c-0.2,0-0.4,0-0.6,0.1l-1,0.6V194z"/>
		<path class="st12" d="M121.2,191.9c0,0,0.1,0,0.2,0c0.1,0.1,0.1,0.1,0.1,0.2v1.4c0,0.1,0,0.2-0.1,0.3c0,0.1-0.1,0.1-0.2,0.2
			l-4.1,2.4c0,0-0.1,0-0.2,0c-0.1-0.1-0.1-0.1-0.1-0.2v-8.5c0-0.1,0-0.2,0.1-0.3c0-0.1,0.1-0.1,0.2-0.2l4-2.3c0,0,0.1,0,0.2,0
			c0.1,0.1,0.1,0.1,0.1,0.2v1.4c0,0.1,0,0.2-0.1,0.3c0,0.1-0.1,0.1-0.2,0.2l-2.6,1.5v1.4l2.4-1.4c0,0,0.1,0,0.2,0
			c0.1,0.1,0.1,0.1,0.1,0.2v1.4c0,0.1,0,0.2-0.1,0.3c0,0.1-0.1,0.2-0.2,0.2l-2.4,1.5v1.5L121.2,191.9z"/>
		<path class="st12" d="M125.6,182.2c0.3-0.2,0.6-0.3,1-0.4c0.3-0.1,0.5,0,0.8,0.1c0.2,0.2,0.4,0.4,0.5,0.7c0.1,0.4,0.2,0.9,0.2,1.3
			c0,0.5,0,1-0.2,1.5c-0.1,0.4-0.3,0.8-0.5,1.2c-0.2,0.4-0.5,0.7-0.8,1c-0.3,0.3-0.6,0.6-1,0.8l-1.1,0.6v2.7c0,0.1,0,0.2-0.1,0.3
			c0,0.1-0.1,0.2-0.2,0.2l-1.1,0.6c0,0-0.1,0-0.2,0c-0.1-0.1-0.1-0.1-0.1-0.2v-8.5c0-0.1,0-0.2,0.1-0.3c0-0.1,0.1-0.2,0.2-0.2
			L125.6,182.2z M124.5,187l1-0.6c0.5-0.3,0.9-0.9,0.8-1.5c0-0.4-0.1-0.6-0.2-0.7c-0.2-0.1-0.4,0-0.6,0.1l-1,0.6V187z"/>
		<path class="st12" d="M129,183.7c0-0.5,0.1-1,0.2-1.5c0.1-0.5,0.3-1,0.5-1.4c0.2-0.4,0.5-0.9,0.8-1.2c0.3-0.4,0.7-0.7,1.1-0.9
			c0.3-0.2,0.7-0.3,1.1-0.4c0.3,0,0.6,0.1,0.8,0.3c0.3,0.2,0.4,0.5,0.5,0.8c0.1,0.4,0.2,0.8,0.2,1.3c0,0.4,0,0.8,0,1.2s0,0.8,0,1.2
			c0,0.5-0.1,1-0.2,1.5c-0.1,0.5-0.3,1-0.5,1.4c-0.2,0.4-0.5,0.9-0.8,1.2c-0.3,0.4-0.7,0.7-1.1,0.9c-0.3,0.2-0.7,0.3-1.1,0.4
			c-0.3,0-0.6-0.1-0.8-0.3c-0.2-0.2-0.4-0.5-0.5-0.8c-0.1-0.4-0.2-0.8-0.2-1.3c0-0.4,0-0.7,0-1.1S129,184.1,129,183.7z M132.8,183.8
			c0-0.2,0-0.4,0-0.5s0-0.4,0-0.6s0-0.4,0-0.6s0-0.4,0-0.5c0-0.2,0-0.4-0.1-0.6c0-0.1-0.1-0.3-0.2-0.4c-0.1-0.1-0.2-0.1-0.3-0.1
			c-0.2,0-0.3,0.1-0.5,0.1c-0.2,0.1-0.3,0.2-0.5,0.4c-0.1,0.2-0.2,0.3-0.3,0.5c-0.1,0.2-0.2,0.4-0.2,0.6c0,0.2-0.1,0.4-0.1,0.7
			c0,0.2,0,0.3,0,0.5s0,0.4,0,0.6s0,0.4,0,0.6s0,0.4,0,0.5c0,0.3,0.1,0.7,0.3,0.9c0.2,0.2,0.4,0.2,0.8,0c0.4-0.2,0.6-0.5,0.8-0.9
			C132.6,184.7,132.8,184.3,132.8,183.8L132.8,183.8z"/>
		<path class="st12" d="M138.4,174.9c0.3-0.2,0.6-0.3,1-0.4c0.3-0.1,0.5,0,0.8,0.1c0.2,0.2,0.4,0.4,0.5,0.7c0.1,0.4,0.2,0.8,0.2,1.2
			c0,0.6-0.1,1.2-0.3,1.8c-0.2,0.5-0.4,1-0.8,1.4l1.1,2.5c0,0,0,0.1,0,0.1c0,0.1,0,0.2-0.1,0.2c0,0.1-0.1,0.1-0.1,0.2l-1.2,0.7
			c-0.1,0.1-0.2,0.1-0.2,0c0,0-0.1-0.1-0.1-0.2l-0.9-2.3l-0.8,0.4v2.8c0,0.1,0,0.2-0.1,0.3c0,0.1-0.1,0.2-0.2,0.2l-1.1,0.6
			c0,0-0.1,0-0.2,0c0,0,0,0,0,0c-0.1-0.1-0.1-0.1-0.1-0.2v-8.5c0-0.1,0-0.2,0.1-0.3c0-0.1,0.1-0.1,0.2-0.2L138.4,174.9z
			 M137.4,179.4l1-0.6c0.2-0.1,0.4-0.3,0.6-0.6c0.2-0.3,0.2-0.6,0.2-0.9c0-0.4-0.1-0.6-0.2-0.6c-0.2,0-0.4,0-0.6,0.1l-1,0.6V179.4z"
			/>
		<path class="st12" d="M146.6,170.1c0,0,0.1,0,0.2,0c0.1,0.1,0.1,0.1,0.1,0.2v1.4c0,0.1,0,0.2-0.1,0.3c0,0.1-0.1,0.1-0.2,0.2
			l-1.5,0.9v6.8c0,0.1,0,0.2-0.1,0.3c0,0.1-0.1,0.2-0.2,0.2l-1.1,0.6c0,0-0.1,0-0.2,0c-0.1-0.1-0.1-0.1-0.1-0.2V174l-1.5,0.9
			c0,0-0.1,0-0.2,0c-0.1-0.1-0.1-0.1-0.1-0.2v-1.4c0-0.1,0-0.2,0.1-0.3c0-0.1,0.1-0.1,0.2-0.2L146.6,170.1z"/>
		<polygon class="st4" points="154.5,165.5 266.9,100.6 266.9,109.6 154.5,174.5 		"/>
		<g class="st18">
			<path class="st12" d="M153.9,193.7c-0.3,0-0.7-0.2-0.8-0.5c-0.2-0.5-0.1-1,0.3-1.3l65.9-38c0.5-0.2,1.1,0.1,1.2,0.7
				c0.1,0.4,0,0.7-0.2,1l-65.9,38C154.2,193.7,154,193.7,153.9,193.7z"/>
			<path class="st12" d="M153.9,202.7c-0.3,0-0.7-0.2-0.8-0.5c-0.2-0.5-0.1-1,0.3-1.3l65.9-38c0.5-0.2,1.1,0.1,1.2,0.7
				c0.1,0.4,0,0.7-0.2,1l-65.9,38C154.2,202.6,154,202.7,153.9,202.7z"/>
			<path class="st12" d="M153.9,211.6c-0.3,0-0.7-0.2-0.8-0.5c-0.2-0.5-0.1-1,0.3-1.3l65.9-38c0.5-0.2,1.1,0.1,1.2,0.7
				c0.1,0.4,0,0.7-0.2,1l-65.9,38C154.2,211.6,154,211.6,153.9,211.6z"/>
			<path class="st12" d="M153.9,220.6c-0.3,0-0.7-0.2-0.8-0.5c-0.2-0.5-0.1-1,0.3-1.3l65.9-38c0.4-0.4,1-0.4,1.4,0
				c0.4,0.4,0.4,1,0,1.4c-0.1,0.1-0.3,0.2-0.5,0.3l-65.9,38C154.2,220.5,154,220.6,153.9,220.6z"/>
			<path class="st12" d="M153.9,229.5c-0.4,0-0.7-0.2-0.9-0.5c-0.2-0.5-0.1-1,0.3-1.3l65.9-38c0.5-0.2,1.1,0.2,1.2,0.7
				c0.1,0.3,0,0.7-0.2,1l-65.9,38C154.2,229.4,154,229.5,153.9,229.5z"/>
		</g>
		<path class="st4" d="M229.2,144.7l8.5-4.9c0.6-0.3,1-0.1,1,0.6v9.8c0,0.7-0.4,1.4-1,1.8l-8.5,4.9c-0.6,0.3-1,0.1-1-0.6v-9.8
			C228.2,145.8,228.6,145.1,229.2,144.7z"/>
		<path class="st4" d="M243.3,136.6l8.5-4.9c0.6-0.3,1-0.1,1,0.6v9.8c0,0.7-0.4,1.4-1,1.8l-8.5,4.9c-0.6,0.3-1,0.1-1-0.6v-9.8
			C242.3,137.7,242.7,137,243.3,136.6z"/>
		<path class="st4" d="M257.3,128.5l8.5-4.9c0.6-0.3,1-0.1,1,0.6v9.8c0,0.7-0.4,1.4-1,1.8l-8.5,4.9c-0.6,0.3-1,0.1-1-0.6v-9.8
			C256.4,129.6,256.7,128.9,257.3,128.5z"/>
		<path class="st4" d="M229.2,161l8.5-4.9c0.6-0.3,1-0.1,1,0.6v9.8c0,0.7-0.4,1.4-1,1.8l-8.5,4.9c-0.6,0.3-1,0.1-1-0.6v-9.8
			C228.2,162.1,228.6,161.4,229.2,161z"/>
		<path class="st4" d="M243.3,152.8l8.5-4.9c0.6-0.3,1-0.1,1,0.6v9.8c0,0.7-0.4,1.4-1,1.8l-8.5,4.9c-0.6,0.3-1,0.1-1-0.6v-9.8
			C242.3,153.9,242.7,153.2,243.3,152.8z"/>
		<path class="st4" d="M257.3,144.7l8.5-4.9c0.6-0.3,1-0.1,1,0.6v9.8c0,0.7-0.4,1.4-1,1.8l-8.5,4.9c-0.6,0.3-1,0.1-1-0.6v-9.8
			C256.4,145.8,256.7,145.1,257.3,144.7z"/>
		<path class="st4" d="M229.2,177.2l8.5-4.9c0.6-0.3,1-0.1,1,0.6v9.8c0,0.7-0.4,1.4-1,1.8l-8.5,4.9c-0.6,0.3-1,0.1-1-0.6V179
			C228.2,178.3,228.6,177.6,229.2,177.2z"/>
		<path class="st4" d="M243.3,169.1l8.5-4.9c0.6-0.3,1-0.1,1,0.6v9.8c0,0.7-0.4,1.4-1,1.8l-8.5,4.9c-0.6,0.3-1,0.1-1-0.6v-9.8
			C242.3,170.1,242.7,169.5,243.3,169.1z"/>
		<path class="st4" d="M257.3,161l8.5-4.9c0.6-0.3,1-0.1,1,0.6v9.8c0,0.7-0.4,1.4-1,1.8l-8.5,4.9c-0.6,0.3-1,0.1-1-0.6v-9.8
			C256.4,162.1,256.7,161.4,257.3,161z"/>
		<polygon class="st12" points="111.9,319.9 220.4,257.3 220.4,261.7 111.9,324.4 		"/>
		<polygon class="st4" points="111.9,315.4 111.9,288.6 121.5,294.1 130.7,277 141.7,283.4 146.8,277.4 154.5,281.9 165.8,265 
			174.8,268.8 185.6,246.1 193.1,259.1 203.3,244.2 207.1,251.5 220.4,230.4 220.4,252.8 		"/>
		<polygon class="st4" points="111.9,286.1 120.8,290.8 130.1,273.6 141.1,280 146.1,274.2 153.8,278.7 164.9,262.5 173.9,266.2 
			185.6,241.6 193.3,255 203.6,240.1 207.3,247.4 220.4,226.6 220.4,208 206.7,229.4 201.1,219.2 193.3,232.6 185.6,228.2 
			177.8,241.6 170.1,237.1 158.4,257.3 150.7,250.6 143,261.7 130.9,255 121.1,271.5 111.9,266.2 		"/>
		<polygon class="st16" points="111.9,286.1 120.8,290.8 130.1,273.6 141.1,280 146.1,274.2 153.8,278.7 164.9,262.5 173.9,266.2 
			185.6,241.6 193.3,255 203.6,240.1 207.3,247.4 220.4,226.6 220.4,208 206.7,229.4 201.1,219.2 193.3,232.6 185.6,228.2 
			177.8,241.6 170.1,237.1 158.4,257.3 150.7,250.6 143,261.7 130.9,255 121.1,271.5 111.9,266.2 		"/>
		<g class="st18">
			<path class="st12" d="M228.2,204.5c-0.5-0.1-0.9-0.6-0.9-1.1c0-0.3,0.2-0.5,0.4-0.7l38.8-22.4c0.5-0.2,1.1,0.1,1.2,0.7
				c0.1,0.4,0,0.7-0.2,1l-38.8,22.4C228.5,204.5,228.4,204.5,228.2,204.5z"/>
			<path class="st12" d="M228.2,213.5c-0.5-0.1-0.9-0.6-0.9-1.1c0-0.3,0.2-0.5,0.4-0.7l38.8-22.4c0.5-0.2,1.1,0.1,1.2,0.7
				c0.1,0.4,0,0.7-0.2,1l-38.8,22.4C228.5,213.4,228.4,213.5,228.2,213.5z"/>
			<path class="st12" d="M228.2,222.4c-0.5-0.1-0.9-0.6-0.9-1.1c0-0.3,0.2-0.5,0.4-0.7l38.8-22.4c0.5-0.2,1.1,0.1,1.2,0.7
				c0.1,0.4,0,0.7-0.2,1l-38.8,22.4C228.5,222.4,228.4,222.4,228.2,222.4z"/>
			<path class="st12" d="M228.2,231.4c-0.5-0.1-0.9-0.6-0.9-1.1c0-0.3,0.2-0.5,0.4-0.7l38.8-22.4c0.5-0.2,1-0.1,1.3,0.3
				c0.2,0.5,0.1,1-0.3,1.3l-38.8,22.4C228.5,231.3,228.3,231.4,228.2,231.4z"/>
			<path class="st12" d="M228.2,240.3c-0.5-0.1-0.9-0.6-0.9-1.1c0-0.3,0.2-0.5,0.4-0.7l38.8-22.4c0.5-0.2,1-0.1,1.3,0.3
				c0.2,0.5,0.1,1-0.3,1.3l-38.8,22.4C228.5,240.3,228.3,240.3,228.2,240.3z"/>
			<path class="st12" d="M228.2,249.3c-0.5-0.1-0.9-0.6-0.9-1.1c0-0.3,0.2-0.5,0.4-0.7l38.8-22.4c0.5-0.2,1-0.1,1.3,0.3
				c0.2,0.5,0.1,1-0.3,1.3l-38.8,22.4C228.5,249.2,228.3,249.3,228.2,249.3z"/>
			<path class="st12" d="M228.2,258.2c-0.5-0.1-0.9-0.6-0.9-1.1c0-0.3,0.2-0.5,0.4-0.7l38.8-22.4c0.5-0.2,1.1,0.2,1.2,0.7
				c0.1,0.3,0,0.7-0.2,1l-38.8,22.4C228.5,258.2,228.4,258.2,228.2,258.2z"/>
		</g>
	</g>
</g>
<g id="freepik--clipboard--inject-124">
	<g id="freepik--List--inject-124">
		<path class="st4" d="M110.8,389.9v2.1c0,0.7,0.4,1.4,1,1.8l116.8,67.4c0.7,0.3,1.4,0.3,2.1,0l83.7-48.2c0.6-0.4,1-1.1,1-1.8v-2.1
			c0-0.7-0.4-1.4-1-1.8l-116.8-67.5c-0.7-0.3-1.4-0.3-2.1,0l-83.6,48.3C111.3,388.5,110.9,389.2,110.8,389.9z"/>
		<path class="st19" d="M314.5,407.3c0.4,0.3,0.4,0.8-0.1,1.1l-83.6,48.3c-0.3,0.2-0.7,0.3-1,0.2v4.5c0.3,0,0.7-0.1,1-0.2l83.6-48.2
			c0.6-0.4,1-1.1,1-1.8v-2.1C315.3,408.4,315,407.8,314.5,407.3z"/>
		<path class="st20" d="M111.7,388.2L111.7,388.2L111.7,388.2L111.7,388.2l-0.2,0.2l0,0c-0.3,0.3-0.5,0.7-0.5,1.1c0,0.1,0,0.2,0,0.3
			v2.2c0,0.7,0.4,1.4,1,1.8l116.7,67.4c0.3,0.2,0.7,0.3,1,0.2V457c-0.3,0-0.7-0.1-1-0.2l-116.8-67.4c-0.2-0.1-0.3-0.2-0.4-0.4
			c-0.1-0.2,0-0.4,0.1-0.6C111.7,388.3,111.7,388.3,111.7,388.2z"/>
		<g class="st18">
			<path d="M110.9,389.4c0,0.1-0.1,0.3-0.1,0.4c0,0,0-0.1,0-0.1C110.9,389.6,110.9,389.5,110.9,389.4z"/>
			<path d="M314.4,408.5l-83.6,48.3c-0.3,0.2-0.7,0.3-1,0.2c-0.3,0-0.7-0.1-1-0.2L112,389.3c-0.2-0.1-0.3-0.2-0.4-0.4
				c-0.1-0.2,0-0.4,0.1-0.6c0,0,0.1-0.1,0.1-0.1l0,0l0.2-0.1l83.6-48.3c0.7-0.3,1.4-0.3,2.1,0l116.8,67.4l0.1,0.1l0,0
				C314.9,407.7,314.9,408.1,314.4,408.5z"/>
			<path class="st11" d="M111.5,388.5l-0.1,0.1l0,0C111.4,388.5,111.5,388.5,111.5,388.5z"/>
		</g>
		<path class="st13" d="M142.5,360.1c0,1.9,2.6,3.9,3.3,5.5c0.1,0.1,0.1,0.3,0.2,0.4c-0.4,1.2-1.5,2-1.7,2.8
			c-0.1,0.2-0.1,0.4-0.1,0.5v1.6c0,0.4,0.1,0.7,0.1,1.1c-0.1,0.4-0.1,0.8-0.3,1.2c-0.2,0.6-0.4,1.3-0.4,2v1.5
			c-0.1,0.6,0.2,1.2,0.8,1.4l4.7,2.7l35.1-20.2v-1.5l-4.7-2.7c-0.7-0.4-1.5-0.5-2.4-0.5h-0.3c-0.8,0-1.8,0.1-3.2,0.2
			c-1.7,0.2-3.5,0.2-5.3,0.1c-0.5,0-0.9-0.1-1.4-0.1c-0.3,0-0.7,0-1,0c-2,0.2-4.1,1.5-8.2,0.9h-0.1c-2.9-0.4-6.3-1.9-9.5-1.9h-0.3
			c-1.3,0-2.6,0.4-3.7,1c-1.3,0.7-1.7,1.5-1.7,2.3C142.5,358.8,142.5,359.8,142.5,360.1z M147.8,361.1c0.2-0.3,0.5-0.6,0.8-0.8
			c0.3-0.2,0.6-0.3,0.9-0.4c2.2-0.5,4.5-0.1,6.4,1c0.8,0.4,1.5,1,1.9,1.8c-0.2,0.3-0.5,0.6-0.9,0.8c-1.5,0.7-3.2,0.8-4.8,0.4
			c-0.9-0.2-1.7-0.5-2.5-1C148.9,362.6,148.2,361.9,147.8,361.1L147.8,361.1z"/>
		<path class="st9" d="M177.2,355.9h-0.3c-0.8,0-1.8,0.1-3.2,0.2c-1.8,0.2-3.5,0.2-5.3,0.1c-0.5,0-0.9-0.1-1.4-0.1c-0.3,0-0.7,0-1,0
			c-2,0.2-4.1,1.5-8.2,0.9h-0.1c-2.9-0.4-6.3-1.9-9.5-1.9h-0.3c-1.3,0-2.6,0.4-3.7,1c-4.3,2.5,0.6,5.5,1.6,7.8s-1.2,3.6-1.5,4.8
			s0.6,1.8-0.2,4.4s-0.2,3,0.4,3.4l4.7,2.7l35.1-20.2l-4.7-2.7C178.8,356,178,355.8,177.2,355.9z M150.9,375.6
			c-0.6,0.2-1.3,0.2-1.9-0.2c-0.6-0.4-0.7-0.9-0.3-1.1c0.6-0.3,1.3-0.2,1.9,0.2C151.2,374.9,151.4,375.4,150.9,375.6L150.9,375.6z
			 M157,363.6c-1.5,0.7-3.2,0.8-4.8,0.4c-0.9-0.2-1.7-0.5-2.5-1c-2.3-1.3-2.8-3.2-1-4.2c0.3-0.2,0.6-0.3,0.9-0.4
			c2.2-0.5,4.5-0.1,6.4,1C158.2,360.7,158.7,362.6,157,363.6L157,363.6z M178,360c-0.6,0.2-1.3,0.2-1.9-0.2
			c-0.6-0.4-0.7-0.9-0.3-1.1c0.6-0.3,1.3-0.2,1.9,0.2C178.3,359.2,178.4,359.7,178,360L178,360z"/>
		<path class="st7" d="M226.4,449.4l72.8-42c0.4-0.2,0.6-0.6,0.6-1.1v-0.8c0-0.4-0.3-0.8-0.6-1.1l-96.1-55.5c-0.4-0.2-0.9-0.2-1.2,0
			l-72.8,42c-0.4,0.2-0.6,0.6-0.6,1.1v0.8c0,0.4,0.3,0.8,0.6,1.1l96.2,55.5C225.6,449.6,226,449.6,226.4,449.4z"/>
		<path class="st0" d="M299.4,404.5c0.2,0.2,0.1,0.4-0.1,0.6l-72.8,42c-0.2,0.1-0.4,0.2-0.6,0.1v2.2c0.2,0,0.4,0,0.6-0.1l72.8-42
			c0.4-0.2,0.6-0.6,0.6-1.1v-0.8C299.8,405.1,299.7,404.8,299.4,404.5z"/>
		<path class="st1" d="M128.9,391l-0.2,0.2l-0.1,0.1c-0.1,0.1-0.1,0.2-0.2,0.3c0,0.1,0,0.2-0.1,0.2c0,0.1,0,0.1,0,0.2v0.8
			c0,0.4,0.3,0.8,0.6,1.1l96.2,55.5c0.2,0.1,0.4,0.2,0.6,0.1v-2.2c-0.2,0-0.4,0-0.6-0.1L129,391.6
			C128.8,391.5,128.7,391.2,128.9,391z"/>
		<path class="st9" d="M153.7,380.9v1.6c0,0.8,0.3,1.5,0.8,2.1l42.9-24.7v-1.6c-1.3-0.7-2.7-1-4.2-1h-0.1c-1,0-2,0.2-2.9,0.6
			c-3.1,1.4-4,1.9-5.9,2.7c-1,0.4-2.1,0.2-2.9-0.4l-0.1,0l-1.3-1.2l-3.5-3.2c-0.4-0.4-1-0.6-1.6-0.5h-0.1c-0.3,0-0.5,0-0.8,0.1
			c-1.2,0.2-2.4,0.2-3.6,0c-1.4-0.1-2.7-0.6-3.9-1.5c-1.7-1.4-3.8-2.2-6-2.1h-0.2c-1.4,0-2.8,0.3-4,1c-2.1,1.1-3,2.9-2.6,4.6
			c-0.3,1.5,0.3,3,1.5,4c0.5,0.5,0.9,1.1,1,1.8c-0.1,0.7-0.4,1.4-0.8,2c-0.3,0.3-0.4,0.6-0.5,1c0,0.4,0,1.3,0,1.6
			c0,0.3,0.1,0.6,0.4,0.8l4,3.7l1.3,1.2l0.1,0.1c-0.1,0.1-0.2,0.3-0.3,0.4l-5.2,4C154.4,378.5,153.8,379.6,153.7,380.9z
			 M165.2,357.3c-0.3,0.7-0.8,1.3-1.5,1.6c-1.4,0.7-3,0.8-4.5,0.3c-0.6-0.2-1.2-0.6-1.7-1c-0.4-0.3-0.7-0.7-0.8-1.2
			c0.3-0.7,0.8-1.3,1.5-1.6c0.2-0.1,0.4-0.2,0.6-0.3c1.9-0.7,4-0.3,5.6,1C164.7,356.5,165,356.9,165.2,357.3z"/>
		<path class="st12" d="M193.2,357.2L193.2,357.2c-1,0-2,0.2-2.9,0.6c-3.1,1.4-4,1.9-5.9,2.7c-1,0.4-2.1,0.2-2.9-0.4l-0.1,0
			l-1.3-1.2l-3.5-3.2c-0.4-0.4-1-0.6-1.6-0.5h-0.1c-0.3,0-0.5,0-0.8,0.1c-1.2,0.2-2.4,0.2-3.6,0c-1.4-0.1-2.7-0.6-3.9-1.5
			c-1.7-1.4-3.8-2.2-6-2.1h-0.2c-1.4,0-2.8,0.3-4,1c-3.1,1.6-3.6,4.8-1.1,7.1c1.6,1.4,1.1,4.2,0.1,5.4s-0.1,1.8-0.1,1.8l4,3.7
			l1.3,1.2c1,0.9-0.2,2.1-0.2,2.1l-5.2,4c-2.2,2-2.1,3.7-0.9,5.2l42.9-24.8C196.1,357.6,194.7,357.3,193.2,357.2z M164.3,354.6
			c1.5,1.4,1.2,3.4-0.7,4.4c-1.4,0.7-3,0.8-4.5,0.3c-0.6-0.2-1.2-0.6-1.7-1c-1.5-1.4-1.2-3.4,0.7-4.4c0.2-0.1,0.4-0.2,0.6-0.3
			C160.6,352.9,162.8,353.3,164.3,354.6z"/>
	</g>
	<path class="st21" d="M162.1,403.8l22.8,13.1c0.5,0.2,1,0.2,1.5,0l31.4-18.1c0.4-0.2,0.4-0.6,0-0.9L195,384.8c-0.5-0.2-1-0.2-1.5,0
		l-31.4,18.1c-0.2,0.1-0.3,0.4-0.2,0.6C161.9,403.6,162,403.7,162.1,403.8z"/>
	<polygon class="st4" points="185.6,413.3 168.3,403.4 169.5,402.7 186.8,412.7 	"/>
	<polygon class="st12" points="186.6,414.2 188.3,413.2 188.8,413.5 187.1,414.5 	"/>
	<polygon class="st4" points="187.9,412 174.1,404 175.3,403.4 189.1,411.4 	"/>
	<polygon class="st12" points="188.8,412.9 190.6,411.9 191.1,412.2 189.4,413.2 	"/>
	<polygon class="st4" points="191.4,410 176.3,401.4 177.5,400.7 192.6,409.4 	"/>
	<polygon class="st12" points="192.3,410.9 194,409.9 194.6,410.2 192.8,411.2 	"/>
	<polygon class="st4" points="193.6,408.7 181.2,401.5 182.4,400.9 194.8,408 	"/>
	<polygon class="st12" points="194.6,409.6 196.3,408.6 196.8,408.9 195.1,409.9 	"/>
	<polygon class="st4" points="197.1,406.7 190.2,402.7 191.4,402 198.3,406 	"/>
	<polygon class="st12" points="198,407.6 199.8,406.6 200.3,406.9 198.6,407.9 	"/>
	<polygon class="st4" points="199.4,405.4 191.5,400.9 192.7,400.2 200.6,404.7 	"/>
	<polygon class="st12" points="200.3,406.3 202,405.3 202.6,405.6 200.8,406.6 	"/>
	<polygon class="st4" points="202.8,403.4 193.3,397.9 194.5,397.2 204,402.7 	"/>
	<polygon class="st12" points="203.8,404.3 205.5,403.3 206.1,403.6 204.3,404.6 	"/>
	<polygon class="st4" points="205.1,402.1 198.9,398.5 200.1,397.9 206.3,401.4 	"/>
	<polygon class="st12" points="206.1,403 207.8,402 208.3,402.2 206.6,403.2 	"/>
	<polygon class="st4" points="208.6,400.1 205.9,398.5 207.1,397.9 209.8,399.4 	"/>
	<polygon class="st4" points="185.6,413.3 168.3,403.4 169.5,402.7 186.8,412.7 	"/>
	<polygon class="st4" points="191.4,410 176.3,401.4 177.5,400.7 192.6,409.4 	"/>
	<polygon class="st4" points="197.1,406.7 190.2,402.7 191.4,402 198.3,406 	"/>
	<polygon class="st4" points="202.8,403.4 193.3,397.9 194.5,397.2 204,402.7 	"/>
	<polygon class="st4" points="208.6,400.1 205.9,398.5 207.1,397.9 209.8,399.4 	"/>
	<polygon class="st12" points="209.5,401 211.2,400 211.8,400.2 210,401.2 	"/>
	<polygon class="st4" points="210.8,398.8 209.5,398 210.7,397.3 212,398.1 	"/>
	<polygon class="st12" points="211.8,399.6 213.5,398.6 214,398.9 212.3,399.9 	"/>
	<polygon class="st4" points="185,393 183.7,393.8 185,394.5 186.3,393.8 	"/>
	<polygon class="st22" points="185,393 183.7,393.8 185,394.5 186.3,393.8 	"/>
	<path class="st12" d="M195.3,387.3l-9.3,5.4c-0.2,0.1-0.2,0.3,0,0.4l0.2,0.1c0.2,0.1,0.5,0.1,0.7,0l9.3-5.4c0.1,0,0.2-0.2,0.1-0.3
		c0-0.1-0.1-0.1-0.1-0.1l-0.2-0.1C195.7,387.2,195.5,387.2,195.3,387.3z"/>
	<polygon class="st4" points="187.2,394.3 185.9,395 187.2,395.8 188.5,395 	"/>
	<path class="st12" d="M197.4,388.6l-9.3,5.4c-0.1,0-0.2,0.2-0.1,0.3c0,0.1,0.1,0.1,0.1,0.1l0.3,0.1c0.2,0.1,0.5,0.1,0.7,0l9.3-5.4
		c0.2-0.1,0.2-0.3,0-0.4l-0.2-0.1C197.9,388.4,197.6,388.4,197.4,388.6z"/>
	<polygon class="st4" points="185.6,413.3 168.3,403.4 169.5,402.7 186.8,412.7 	"/>
	<polygon class="st4" points="191.4,410 176.3,401.4 177.5,400.7 192.6,409.4 	"/>
	<polygon class="st4" points="197.1,406.7 190.2,402.7 191.4,402 198.3,406 	"/>
	<polygon class="st4" points="202.8,403.4 193.3,397.9 194.5,397.2 204,402.7 	"/>
	<polygon class="st4" points="185.6,413.3 168.3,403.4 169.5,402.7 186.8,412.7 	"/>
	<polygon class="st4" points="191.4,410 176.3,401.4 177.5,400.7 192.6,409.4 	"/>
	<polygon class="st4" points="197.1,406.7 190.2,402.7 191.4,402 198.3,406 	"/>
	<polygon class="st4" points="202.8,403.4 193.3,397.9 194.5,397.2 204,402.7 	"/>
	<polygon class="st4" points="208.6,400.1 205.9,398.5 207.1,397.9 209.8,399.4 	"/>
	<polygon class="st22" points="185.6,413.3 168.3,403.4 169.5,402.7 186.8,412.7 	"/>
	<polygon class="st22" points="191.4,410 176.3,401.4 177.5,400.7 192.6,409.4 	"/>
	<polygon class="st22" points="197.1,406.7 190.2,402.7 191.4,402 198.3,406 	"/>
	<polygon class="st22" points="202.8,403.4 193.3,397.9 194.5,397.2 204,402.7 	"/>
	<polygon class="st22" points="208.6,400.1 205.9,398.5 207.1,397.9 209.8,399.4 	"/>
	<path class="st21" d="M194.1,422.2l30,17.3c0.6,0.3,1.3,0.3,1.9,0l30.9-17.9c0.3-0.1,0.5-0.5,0.4-0.8c-0.1-0.2-0.2-0.3-0.4-0.4
		l-30-17.3c-0.6-0.3-1.3-0.3-1.9,0l-30.9,17.9c-0.3,0.1-0.5,0.4-0.4,0.7C193.8,422,193.9,422.2,194.1,422.2z"/>
	<polygon class="st4" points="199.4,420.7 197.7,421.7 199.4,422.7 201.1,421.7 	"/>
	<path class="st12" d="M206.2,417.3l-5.6,3.3c-0.1,0.1-0.1,0.2,0,0.3l0.5,0.3c0.2,0.1,0.4,0.1,0.5,0l5.6-3.3c0.1-0.1,0.1-0.2,0-0.3
		l-0.5-0.3C206.5,417.2,206.3,417.2,206.2,417.3z"/>
	<polygon class="st4" points="209.1,415.1 207.4,416.1 209.1,417.1 210.8,416.1 	"/>
	<polygon class="st22" points="209.1,415.1 207.4,416.1 209.1,417.1 210.8,416.1 	"/>
	<path class="st12" d="M215.9,411.7l-5.6,3.3c-0.1,0.1-0.1,0.2,0,0.3l0.5,0.3c0.2,0.1,0.4,0.1,0.5,0l5.6-3.3c0.1-0.1,0.1-0.2,0-0.3
		l-0.5-0.3C216.3,411.7,216.1,411.6,215.9,411.7z"/>
	<polygon class="st4" points="218.8,409.5 217.1,410.5 218.8,411.5 220.5,410.5 	"/>
	<polygon class="st23" points="218.8,409.5 217.1,410.5 218.8,411.5 220.5,410.5 	"/>
	<path class="st12" d="M225.7,406.1l-5.6,3.2c-0.1,0.1-0.1,0.2,0,0.3l0.5,0.3c0.2,0.1,0.4,0.1,0.5,0l5.6-3.3c0.1,0,0.1-0.1,0.1-0.2
		c0,0,0-0.1-0.1-0.1l-0.5-0.3C226.1,406,225.9,406,225.7,406.1z"/>
	<path class="st4" d="M236.6,416.7c-0.1-0.1-0.3-0.1-0.4-0.2l-0.4-0.2c-1-0.4-2.1-0.7-3.2-0.9l-1.1-0.2c-0.7-0.1-1.4-0.2-2.2-0.2
		c-0.4,0-0.7,0-1.1,0s-0.6,0-0.9,0l-0.7,0l-1.1,0.1l-0.6,0.1l-0.4,0.1l-0.5,0.1c-0.6,0.1-1.3,0.3-1.9,0.5l-0.6,0.2
		c-0.3,0.1-0.5,0.2-0.8,0.3c-0.2,0.1-0.5,0.2-0.7,0.3l-0.7,0.4c-5,2.9-5,7.6,0,10.5s13.2,2.9,18.2,0s5-7.6,0-10.5
		C237.2,417,236.9,416.8,236.6,416.7z M235.6,426.6c-2,1.1-4.3,1.7-6.7,1.7c-0.1,0-0.2,0-0.4,0h-0.4h-0.4c-2.2,0-4.4-0.6-6.4-1.7
		c-3.9-2.3-3.9-6,0-8.2c0.4-0.3,0.9-0.5,1.4-0.7c0.4-0.1,0.8-0.3,1.1-0.4l0.6-0.2l0.5-0.1c0.2-0.1,0.4-0.1,0.6-0.1l0.6-0.1h0.2
		l0.8-0.1h0.1c0.3,0,0.6,0,0.8,0c0.2,0,0.5,0,0.7,0c1,0,1.9,0.1,2.9,0.3c1.4,0.2,2.8,0.7,4,1.4C239.5,420.6,239.5,424.3,235.6,426.6
		L235.6,426.6z"/>
	<path class="st22" d="M232.5,415.4l-0.9,1.5c-0.9-0.2-1.9-0.3-2.9-0.3c-0.2,0-0.5,0-0.7,0c-0.3,0-0.6,0-0.8,0h-0.1
		c-0.3,0-0.5,0-0.8,0.1h-0.2l-0.6,0.1c-0.2,0-0.4,0.1-0.6,0.1l-0.5,0.1l-0.6,0.2c-0.4,0.1-0.8,0.2-1.1,0.4c-0.5,0.2-0.9,0.4-1.4,0.7
		l-2-1.1l0.7-0.4c0.2-0.1,0.5-0.2,0.7-0.3c0.2-0.1,0.5-0.2,0.8-0.3l0.6-0.2c0.6-0.2,1.2-0.4,1.9-0.5l0.5-0.1l0.4-0.1l0.6-0.1
		l1.1-0.1l0.7,0c0.3,0,0.6,0,0.9,0s0.7,0,1.1,0c0.7,0,1.4,0.1,2.2,0.2L232.5,415.4z"/>
	<path class="st23" d="M237.6,417.2l-2,1.1c-1.2-0.7-2.6-1.2-4-1.4l0.9-1.5c1.1,0.2,2.2,0.5,3.2,0.9l0.4,0.2
		c0.2,0.1,0.3,0.1,0.4,0.2C236.9,416.8,237.2,417,237.6,417.2z"/>
	<path class="st12" d="M151.3,395.2c0.3-0.2,0.6-0.3,0.9-0.4c0.3-0.1,0.7-0.1,1-0.1c0.3,0,0.7,0.1,1,0.1c0.4,0.1,0.7,0.3,1,0.5
		c0.4,0.2,0.7,0.4,0.9,0.8c0.2,0.2,0.2,0.5,0.1,0.7l3,0.8c0,0,0.1,0,0.1,0c0.1,0,0.1,0.1,0.1,0.1s0,0.1-0.1,0.1l-0.9,0.5
		c-0.1,0-0.2,0.1-0.3,0.1h-0.2l-2.7-0.7l-0.6,0.4l1.9,1.1c0.1,0,0.1,0.1,0.1,0.1c0,0,0,0.1-0.1,0.1l-0.9,0.5c-0.1,0-0.1,0-0.2,0
		c-0.1,0-0.2,0-0.2-0.1l-5.8-3.4c-0.1,0-0.1-0.1-0.1-0.1c0,0,0-0.1,0.1-0.1L151.3,395.2z M153.3,397.2l0.8-0.4
		c0.2-0.1,0.3-0.2,0.3-0.4c0-0.1-0.1-0.3-0.3-0.4c-0.2-0.1-0.5-0.2-0.7-0.2c-0.2,0-0.4,0.1-0.6,0.2l-0.8,0.4L153.3,397.2z"/>
	<path class="st12" d="M162.5,394.3c0.1,0,0.1,0,0.2,0c0.1,0,0.2,0,0.2,0.1l0.9,0.5c0.1,0,0.1,0.1,0.1,0.1c0,0,0,0.1-0.1,0.1
		l-3.2,1.8c-0.1,0-0.1,0-0.2,0c-0.1,0-0.2,0-0.2-0.1l-5.8-3.4c-0.1,0-0.1-0.1-0.1-0.1c0,0,0-0.1,0.1-0.1l3.1-1.8c0.1,0,0.1,0,0.2,0
		c0.1,0,0.2,0,0.2,0.1l0.9,0.5c0.1,0,0.1,0.1,0.1,0.1c0,0,0,0.1-0.1,0.1l-2.1,1.2l1,0.6l1.9-1.1c0.1,0,0.1,0,0.2,0
		c0.1,0,0.2,0,0.2,0.1l0.9,0.5c0.1,0,0.1,0.1,0.1,0.1c0,0,0,0.1-0.1,0.1l-1.9,1.1l1,0.6L162.5,394.3z"/>
	<path class="st12" d="M161.1,389.5c0.3-0.2,0.6-0.3,0.9-0.4c0.3-0.1,0.7-0.1,1-0.1c0.3,0,0.7,0.1,1,0.2c0.4,0.1,0.7,0.3,1.1,0.5
		c0.3,0.2,0.6,0.4,0.8,0.6c0.2,0.2,0.3,0.4,0.3,0.6c0,0.2-0.1,0.4-0.2,0.6c-0.2,0.2-0.4,0.4-0.6,0.5l-0.9,0.5l1.8,1.1
		c0.1,0,0.1,0.1,0.1,0.1c0,0,0,0.1-0.1,0.1l-0.9,0.5c-0.1,0-0.1,0-0.2,0c-0.1,0-0.2,0-0.2-0.1l-5.8-3.4c-0.1,0-0.1-0.1-0.1-0.1
		c0,0,0-0.1,0.1-0.1L161.1,389.5z M163,391.6l0.8-0.5c0.2-0.1,0.3-0.2,0.3-0.4c0-0.1-0.1-0.3-0.4-0.4c-0.2-0.1-0.5-0.2-0.7-0.2
		c-0.2,0-0.4,0.1-0.6,0.2l-0.8,0.5L163,391.6z"/>
	<path class="st12" d="M166.1,389.3c-0.3-0.2-0.6-0.4-0.8-0.6c-0.2-0.2-0.3-0.4-0.4-0.7c0-0.2,0-0.5,0.1-0.7
		c0.2-0.3,0.4-0.5,0.7-0.6c0.3-0.2,0.7-0.3,1.1-0.4c0.4-0.1,0.8-0.1,1.2-0.1c0.4,0,0.8,0.1,1.2,0.2c0.4,0.1,0.8,0.3,1.1,0.5l0.8,0.5
		l0.8,0.5c0.3,0.2,0.6,0.4,0.8,0.6c0.2,0.2,0.3,0.4,0.4,0.7c0,0.2,0,0.5-0.1,0.7c-0.2,0.3-0.4,0.5-0.7,0.6c-0.3,0.2-0.7,0.3-1.1,0.4
		c-0.4,0.1-0.8,0.1-1.2,0.1c-0.4,0-0.8-0.1-1.2-0.2c-0.4-0.1-0.8-0.3-1.1-0.5l-0.8-0.5C166.6,389.6,166.4,389.5,166.1,389.3z
		 M170.7,388.5l-0.4-0.2l-0.4-0.2l-0.4-0.2l-0.4-0.2c-0.2-0.1-0.3-0.1-0.5-0.2c-0.2,0-0.3-0.1-0.5-0.1c-0.2,0-0.3,0-0.5,0
		c-0.2,0-0.3,0.1-0.4,0.2c-0.1,0.1-0.2,0.1-0.3,0.3c0,0.1,0,0.2,0,0.3c0,0.1,0.1,0.2,0.2,0.3c0.1,0.1,0.2,0.2,0.3,0.3l0.3,0.2
		l0.4,0.2l0.4,0.2l0.4,0.2c0.3,0.2,0.7,0.3,1,0.3c0.3,0,0.6,0,0.9-0.2c0.3-0.2,0.4-0.3,0.3-0.5C171.1,388.8,170.9,388.6,170.7,388.5
		L170.7,388.5z"/>
	<path class="st12" d="M171.1,383.7c0.3-0.2,0.6-0.3,0.9-0.4c0.3-0.1,0.7-0.1,1-0.1c0.3,0,0.7,0.1,1,0.1c0.3,0.1,0.7,0.3,1,0.5
		c0.4,0.2,0.7,0.4,0.9,0.8c0.2,0.2,0.2,0.5,0.1,0.7l3,0.8c0,0,0.1,0,0.1,0c0.1,0,0.1,0.1,0.1,0.1s0,0.1-0.1,0.1l-0.9,0.5
		c-0.1,0-0.2,0.1-0.3,0.1h-0.2l-2.7-0.7l-0.6,0.4l1.9,1.1c0.1,0,0.1,0.1,0.1,0.1c0,0,0,0.1-0.1,0.1l-0.9,0.5c-0.1,0-0.1,0-0.2,0
		c-0.1,0-0.2,0-0.2-0.1l-5.8-3.4c-0.1,0-0.1-0.1-0.1-0.1c0,0,0-0.1,0.1-0.1L171.1,383.7z M173.1,385.7l0.8-0.4
		c0.2-0.1,0.3-0.2,0.3-0.4c0-0.1-0.1-0.3-0.3-0.4c-0.2-0.1-0.5-0.2-0.7-0.2c-0.2,0-0.4,0.1-0.6,0.2l-0.8,0.4L173.1,385.7z"/>
	<path class="st12" d="M177.6,380c0.1,0,0.1,0,0.2,0c0.1,0,0.2,0,0.2,0.1l0.9,0.5c0.1,0,0.1,0.1,0.1,0.1c0,0,0,0.1-0.1,0.1l-1.2,0.7
		l4.6,2.7c0.1,0,0.1,0.1,0.1,0.1c0,0,0,0.1-0.1,0.1l-0.9,0.5c-0.1,0-0.1,0-0.2,0c-0.1,0-0.2,0-0.2-0.1l-4.6-2.7l-1.2,0.7
		c-0.1,0-0.1,0-0.2,0c-0.1,0-0.2,0-0.2-0.1l-1-0.5c-0.1,0-0.1-0.1-0.1-0.1s0-0.1,0.1-0.1L177.6,380z"/>
	<polygon class="st4" points="186.9,380.6 216.2,363.8 209.9,360.1 180.7,377 	"/>
	<g class="st18">
		<path class="st12" d="M201.6,383.6c-0.3,0.1-0.6-0.1-0.6-0.4c-0.1-0.3,0.1-0.6,0.4-0.6l24.2-14c0.2-0.1,0.6-0.1,0.7,0.2
			c0.1,0.2,0.1,0.6-0.2,0.7l-24.2,14C201.8,383.5,201.7,383.6,201.6,383.6z"/>
		<path class="st12" d="M205.8,386c-0.3,0.1-0.6-0.1-0.6-0.4s0.1-0.6,0.4-0.6l24.2-14c0.3-0.1,0.6,0,0.7,0.3c0.1,0.2,0,0.5-0.2,0.6
			l-24.2,14C205.9,386,205.9,386,205.8,386z"/>
		<path class="st12" d="M210,388.4c-0.3,0-0.5-0.2-0.6-0.4c0-0.2,0.1-0.5,0.3-0.6l24.2-14c0.2-0.1,0.6-0.1,0.7,0.2
			c0.1,0.2,0.1,0.6-0.2,0.7l-24.2,14C210.2,388.4,210.1,388.4,210,388.4z"/>
		<path class="st12" d="M214.1,390.8c-0.3,0.1-0.6-0.1-0.6-0.4c-0.1-0.3,0.1-0.6,0.4-0.6l24.2-14c0.2-0.1,0.6-0.1,0.7,0.2
			c0.1,0.2,0.1,0.6-0.2,0.7l-24.2,14C214.3,390.8,214.2,390.8,214.1,390.8z"/>
		<path class="st12" d="M218.3,393.2c-0.2,0-0.4-0.1-0.4-0.3c-0.1-0.2-0.1-0.6,0.2-0.7l24.2-14c0.2-0.1,0.6-0.1,0.7,0.2
			c0.1,0.2,0.1,0.6-0.2,0.7l-24.2,14C218.5,393.2,218.4,393.2,218.3,393.2z"/>
	</g>
	<g class="st18">
		<path class="st12" d="M235.1,402.9c-0.2,0-0.4-0.1-0.4-0.3c-0.1-0.2-0.1-0.6,0.2-0.7c0,0,0,0,0,0l24.2-14c0.2-0.1,0.6-0.1,0.7,0.2
			s0.1,0.6-0.2,0.7l-24.2,14C235.2,402.9,235.1,402.9,235.1,402.9z"/>
		<path class="st12" d="M239.2,405.3c-0.3,0.1-0.6-0.1-0.6-0.4c-0.1-0.3,0.1-0.6,0.4-0.6l24.2-14c0.2-0.1,0.6-0.1,0.7,0.2
			s0.1,0.6-0.2,0.7l-24.2,14C239.4,405.3,239.3,405.3,239.2,405.3z"/>
		<path class="st12" d="M243.4,407.7c-0.2,0-0.3-0.1-0.4-0.3c-0.1-0.2-0.1-0.5,0.2-0.7c0,0,0,0,0,0l24.2-14c0.3-0.1,0.6,0,0.7,0.3
			c0.1,0.2,0,0.5-0.2,0.6l-24.2,14C243.6,407.7,243.5,407.7,243.4,407.7z"/>
		<path class="st12" d="M247.6,410.1c-0.2,0-0.4-0.1-0.4-0.3c-0.1-0.2-0.1-0.6,0.2-0.7c0,0,0,0,0,0l24.2-14c0.2-0.2,0.6-0.1,0.7,0.1
			c0.2,0.2,0.1,0.6-0.1,0.7c0,0-0.1,0.1-0.1,0.1l-24.2,14C247.8,410.1,247.7,410.1,247.6,410.1z"/>
		<path class="st12" d="M251.8,412.6c-0.2,0-0.4-0.1-0.4-0.3c-0.1-0.2-0.1-0.6,0.2-0.7c0,0,0,0,0,0l24.2-14c0.2-0.1,0.6-0.1,0.7,0.2
			c0.1,0.2,0.1,0.6-0.2,0.7c0,0,0,0,0,0l-24.2,14C252,412.5,251.9,412.6,251.8,412.6z"/>
		<path class="st12" d="M256,415c-0.2,0-0.3-0.1-0.4-0.2c-0.1-0.2-0.1-0.6,0.2-0.7l24.2-14c0.3-0.1,0.6,0,0.7,0.3
			c0.1,0.2,0,0.5-0.2,0.6l-24.2,14C256.2,415,256.1,415,256,415z"/>
	</g>
</g>
<g id="freepik--character--inject-124">
	<polygon class="st9" points="376.5,195.6 352.2,204 351.5,205.1 374.7,241.9 397.7,231.5 398.4,230.4 	"/>
	<polygon class="st12" points="377.2,194.4 352.2,204 375.4,240.8 398.4,230.4 	"/>
	<polygon class="st0" points="377.4,198.1 356.1,206.9 375.4,236.9 395,227.4 	"/>
	<path class="st11" d="M372.8,201.3l-1.2-1.3c-0.7-0.7-2.6-0.8-4.3-0.2l-3.3,1.2c-1.7,0.6-2.6,1.8-1.9,2.5l1.2,1.3L372.8,201.3z"/>
	<path class="st4" d="M369.5,196.3c-0.6-0.5-1.3-0.6-2-0.3l-1.3,0.5c0,0-2.6-2.9-5.7-2s-0.4,4.2-0.4,4.2l-1.3,0.6
		c-0.7,0.3-1,0.9-0.7,1.4l0.7,0.8l11.5-4.4L369.5,196.3z"/>
	<path class="st11" d="M369.5,196.3c-0.6-0.5-1.3-0.6-2-0.3l-1.3,0.5c0,0-2.6-2.9-5.7-2s-0.4,4.2-0.4,4.2l-1.3,0.6
		c-0.7,0.3-1,0.9-0.7,1.4l0.7,0.8l11.5-4.4L369.5,196.3z"/>
	<path class="st4" d="M368.9,197.7c-1.1,0.4-1.6,0.6-0.6,1.7s2.1,2.2,2.1,2.2l-5.1,1.9c0,0-1.4-1.6-2-2.3c-0.4-0.7-1.3-1-2.1-0.7
		l-0.7-0.5l8.1-2.9L368.9,197.7z"/>
	<path class="st23" d="M368.9,197.7c-1.1,0.4-1.6,0.6-0.6,1.7s2.1,2.2,2.1,2.2l-5.1,1.9c0,0-1.4-1.6-2-2.3c-0.4-0.7-1.3-1-2.1-0.7
		l-0.7-0.5l8.1-2.9L368.9,197.7z"/>
	<path class="st4" d="M373.1,201.4l-1.2-1.3c-0.7-0.7-2.6-0.8-4.3-0.2l-3.3,1.2c-1.7,0.6-2.6,1.8-1.9,2.5l1.2,1.3L373.1,201.4z"/>
	<path class="st11" d="M373.1,201.4l-1.2-1.3c-0.7-0.7-2.6-0.8-4.3-0.2l-3.3,1.2c-1.7,0.6-2.6,1.8-1.9,2.5l1.2,1.3L373.1,201.4z"/>
	<path class="st24" d="M388.6,213.3c0,0,0.3-4.2-1-5.5s-6.4-0.6-9-1.5c-2.8-0.9-2.1,2.1-0.7,3C380.9,211.1,386.7,211.6,388.6,213.3z
		"/>
	<g id="freepik--Boy--inject-124">
		<path class="st13" d="M434,338.9c0.7,0.3,1.2,1.7,1.5,5.1c0.2,2.1,0.9,4.9-2.3,6.6c-2.4,1.2-5.2,1.2-7.6-0.1
			c-2.8-1.7-3.6-5.6-6.9-8.2c-2.9-2.2-7.4-4.5-9-7.9c-1.3-2.9-1.3-6.9,3.4-6.7c5.8,0.3,9,4.8,12.9,4.9
			C428.2,332.6,433.3,338.6,434,338.9z"/>
		<path class="st24" d="M434,337.2v3.4c0,1.7-7.1,4.2-9.1,0.4c-0.1-0.3-0.9-5-0.9-5L434,337.2z"/>
		<path class="st13" d="M403.5,357.4c0,0,1.2,0,1.8,5.1c0.2,2,0.6,6,0,7.4s-4.3,2.1-8.3,2.5c-3,0.3-5.7,1.7-8.5,3.3
			c-2.6,1.5-5.6,2.3-8.7,2.4h-0.2c-2.6,0.1-5.2-0.4-7.6-1.3c-1.9-0.8-4-2.1-4.6-4.2c-0.1-0.3-0.1-0.6-0.1-0.9c0.1-0.5,0.4-1,0.8-1.3
			c0.4-0.3,0.9-0.6,1.3-0.8c2.7-1.3,5.5-2.5,8.2-3.9s5.2-2.7,7.8-4.2c1.2-0.8,2.5-1.6,3.6-2.5c0.5-0.4,1.1-0.8,1.6-1.1
			c0.3-0.2,0.8-1.1,1.2-1.1L403.5,357.4z"/>
		<path class="st24" d="M403.2,353.6c0,0,0,2.6,0,4s-1.7,3.7-6.2,3.5c-3.2-0.1-5.4-0.9-5.3-3.5v-3.7L403.2,353.6z"/>
		<path class="st9" d="M436,295.3c-0.7-5.6-2-11.1-3.8-16.5c0,0,1.1-14.3,1.5-27.8c0.4-13.9,0-27.7-1.1-41.5c0,0-45.9-4.4-46.7,12.5
			s0.1,58.7,0.1,66.8c0,7.4,0.9,14.8,2.3,28.6c1.3,13.2,3.3,37.6,3.3,37.6c5.4,2.9,12-0.3,12-0.3s3.7-33.7,4.7-42.2
			c0.7-6.1,0-12.3-1.8-18.1c0,0,0.5-6.5,2.2-20.8c1.2-10.1,2.2-22.2,2.2-22.2s0.9,16.4,1.9,24.4c0.9,7.4,2,10.3,4.8,24.8
			c2.8,14,5.9,37.3,5.9,37.3c5.4,2.9,10.7-0.5,10.7-0.5S437.5,305.6,436,295.3z"/>
		<path class="st13" d="M410.8,251.4l2.2-14.1c0,0,8.9-2.8,13.5-8.2c0,0-2.4,6.2-10.8,9.5l-3.3,11.9l-0.9,11L410.8,251.4z"/>
		<path class="st9" d="M423,152.9c7.2-1.7,11.7,1.7,14.3,11.5c2.3,8.4,5.6,25.6,6.9,32.1c0.5,2.4,1.4,5.1-3.6,8.1
			c-7.3,4.2-14.8,8-22.5,11.4l-2.8-10.3l11.1-22.7L423,152.9z"/>
		<polygon class="st24" points="403.3,148.4 405.4,163.4 420.3,162.7 419,145.1 		"/>
		<path class="st25" d="M393.5,129.8c0,0-3.6,5.3-3.2,5.9s3,1,3,1L393.5,129.8z"/>
		<path class="st13" d="M394.7,133.2c-2.4,0-4.4-2.1-4.4-4.5c0-2.4,2.1-4.4,4.5-4.4c2.4,0,4.4,2.1,4.4,4.5
			C399.2,131.3,397.2,133.3,394.7,133.2z M394.9,125.4c-1.9,0-3.5,1.5-3.5,3.4s1.5,3.5,3.4,3.5c1.9,0,3.5-1.5,3.5-3.4
			C398.3,127,396.7,125.4,394.9,125.4z"/>
		<path class="st24" d="M403.6,115c-7.2,1.4-9.3,4.5-10.2,15.9c-0.9,11.9,0.3,15.7,1.8,17.3c1,1.1,6.9,1.4,9.9,0.6
			c3.7-1,12.2-3.8,16.2-9.7c4.7-7,6.1-16.6,1.2-20.6C415.7,112.9,406.6,114.4,403.6,115z"/>
		<path class="st25" d="M403.4,149.2c-3.1,0.3-7.3,0-8.1-0.9c2.6,0,5.3-0.5,7.7-1.5L403.4,149.2z"/>
		<path class="st13" d="M392.1,118.6c0,0.2,0,0.3,0,0.4c0.3,1.1,1,2,2,2.6c0.7,0.4,1.5,0.6,2.4,0.7c0.3,0,2.4,0.1,2.5-0.1
			c-0.4,0.7-0.7,1.5-0.8,2.3c0,0.8,0.4,1.6,1.1,2.1c0.4,0.2,0.9,0.4,1.3,0.6c0.7,0.6,0.4,1.8,0.7,2.5c0.1,0.2,1.7,2.4,1.8,2.1
			c0,0,1.3-4.6,5.1-4c3.9,0.6,4.4,5.6,1.9,8.6s-4.8,1.8-4.8,1.8s0,6.6,2.9,10.4c0,0,3.3,1.1,9.5-0.1c3.8-0.7,9.2-5.4,11.5-10.3
			c4.9-10.5,5.4-19.9-1.3-22.9c-0.9-6.9-8.4-8.9-14.3-9.1c-3.8-0.1-7.6,0.3-11.4-0.2c-1.8-0.3-3.6-0.6-5.4-1.1
			c-1.1-0.3-2.2-0.5-3.4-0.4c-2.3,0.5-4,2.5-4.1,4.9c-0.1,1.2,0.1,2.4,0.6,3.5c0.5,1.1,1.4,2.1,2.4,2.7c0.1,0,0.1,0.1,0.1,0.2
			c0,0.1,0,0.2,0,0.2C392.2,117,392.1,117.8,392.1,118.6z"/>
		<path class="st13" d="M427.3,116.2l4.3-2.5c-0.6-1.2-2.1-1.7-3.4-1.1s-1.7,2.1-1.1,3.4C427.2,116.1,427.3,116.2,427.3,116.2z"/>
		<path class="st13" d="M403.1,134.4l0.2-5c-1.4-0.1-2.5,1-2.6,2.4C400.6,133.2,401.7,134.4,403.1,134.4L403.1,134.4z"/>
		<polygon class="st13" points="390.8,127.8 404.1,129.8 403.6,130.7 390.8,128.8 		"/>
		<path class="st12" d="M433.9,160.8c-1.6-6.2-3.8-8.2-9.2-8.4c-2.8,0.2-5.5,0.5-8.3,1.1c-0.6,2.6-7.3,4.4-14.2,3
			c-2,0.6-7.4,2.1-9.1,2.7c-4.8,1.8-7.2,6.8-7.5,22.7c0,0-0.9,37.8,0,44.3c12.2,4.8,24.9,4.5,31.9,3c14.5-3.3,16.3-9.3,16.3-9.3
			s-0.8-15.2-1.2-26.7c0.7-7.4,1.8-12.9,2.2-18.7C435.1,169.9,434.9,165.3,433.9,160.8z"/>
		<path class="st24" d="M337.8,172.4c0.4,0.3,3.7,3,5.1,4.3c0,0,2.8-12.3,2.8-12.3s-1.3-1.2-1.4-1.4c-0.5-0.5-0.9-1-1.3-1.6
			c-0.8-1.4-1.5-2.8-2.1-4.2c-0.7-1.6-1.6-3.1-2.7-4.5c-1-1.4-2.1-2.8-3.1-4.2c-0.2-0.3-0.4-0.5-0.7-0.7c-0.6-0.1-1.1,0.2-1.3,0.7
			c-0.2,0.5-0.2,1.1-0.1,1.6c0.2,1.1,0.4,2.2,0.8,3.2c0.2,0.6,0.9,2.1-0.5,2c-0.4-0.1-0.8-0.3-1.1-0.7c-1.7-1.6-3.3-3.3-4.7-5.1
			c-0.5-0.6-1-1.2-1.6-1.7c-0.6-0.5-1.4-0.6-2.2-0.4c-0.9,0.5-1.5,1.3-1.8,2.3c-0.5,1.1-0.9,2.4-1,3.6c0,0.8,0.1,1.6,0.3,2.4
			c0.8,3,2.5,5.8,4.7,8.1c1.7,1.9,3.7,3.6,5.9,5c0.5,0.3,1.4,0.8,2.3,1.4C335.4,170.9,336.2,171.3,337.8,172.4z"/>
		<path class="st24" d="M365.5,178.7l-21.9-16l-4.3,10.7c0,0,14.6,13.9,21.7,19.9c3,2.6,6.3,2.1,9.5,0.5
			c5.6-2.7,19.8-13.7,19.8-13.7s7.6-13.2,2.8-20.9c-2.5,0.5-4.8,1.6-6.8,3.2c-3.4,2.9-20.5,16.3-20.5,16.3"/>
		<path class="st9" d="M394.1,158.9c-2.4-0.1-4.7,0.5-6.8,1.6c-2.5,1.4-21.5,17.7-21.5,17.7l-15.4-10.9c-4.2,1.1-7.1,6.6-7.5,10.4
			c0,0,8.2,7.6,13.1,12.6c8,8.1,9.8,7.1,14.2,4.8S391,181,391,181s5-3.7,5.9-7.8C399.5,161.7,394.1,158.9,394.1,158.9z"/>
		<path class="st14" d="M365.9,178.2c-1.9,1.5-3.4,3.6-4.1,6c-0.2-2.6,0.9-5.1,2.9-6.9L365.9,178.2z"/>
		<path class="st13" d="M350.5,167.4l-3.8-2.8c-2,1.1-3.7,2.6-5,4.4c-1.2,1.6-2.1,3.4-2.4,5.4l3.7,3.3
			C344.6,173.7,347.2,170.1,350.5,167.4z"/>
		<path class="st4" d="M341,174.4c0.1,0.4,0.5,0.6,0.9,0.4s0.6-0.5,0.4-0.9c-0.1-0.4-0.5-0.5-0.9-0.4
			C341.1,173.6,340.9,174,341,174.4C341,174.4,341,174.4,341,174.4z"/>
		<path class="st13" d="M419.3,149.3l0.1,1.4c-1.7,1.7-3.8,2.7-6.1,3.1c-6.9,1.3-9.3-0.9-9.3-0.9l-0.2-1.2c0,0-0.7-0.3-1.8,0.6
			c-1.7,1.8-3.3,3.6-4.8,5.6c0,0,1.3-0.4,5.6,1.5c4.3,1.7,9.1,1.9,13.5,0.5c3.5-1.1,6.1-4.6,6.2-5.8S420.5,148.8,419.3,149.3z"/>
	</g>
</g>
</svg>
