<?xml version="1.0" encoding="us-ascii" standalone="no"?><svg xmlns="http://www.w3.org/2000/svg" xmlns:xlink="http://www.w3.org/1999/xlink" contentStyleType="text/css" height="191px" preserveAspectRatio="none" style="width:289px;height:191px;background:#FFFFFF;" version="1.1" viewBox="0 0 289 191" width="289px" zoomAndPan="magnify"><defs/><g><line style="stroke:#181818;stroke-width:0.5;stroke-dasharray:5.0,5.0;" x1="39" x2="39" y1="36.2969" y2="156.6953"/><line style="stroke:#181818;stroke-width:0.5;stroke-dasharray:5.0,5.0;" x1="170" x2="170" y1="36.2969" y2="156.6953"/><rect fill="#E2E2F0" height="30.2969" rx="2.5" ry="2.5" style="stroke:#181818;stroke-width:0.5;" width="68" x="5" y="5"/><text fill="#000000" font-family="sans-serif" font-size="14" lengthAdjust="spacing" textLength="54" x="12" y="24.9951">Partner</text><rect fill="#E2E2F0" height="30.2969" rx="2.5" ry="2.5" style="stroke:#181818;stroke-width:0.5;" width="68" x="5" y="155.6953"/><text fill="#000000" font-family="sans-serif" font-size="14" lengthAdjust="spacing" textLength="54" x="12" y="175.6904">Partner</text><rect fill="#E2E2F0" height="30.2969" rx="2.5" ry="2.5" style="stroke:#181818;stroke-width:0.5;" width="50" x="145" y="5"/><text fill="#000000" font-family="sans-serif" font-size="14" lengthAdjust="spacing" textLength="36" x="152" y="24.9951">Bank</text><rect fill="#E2E2F0" height="30.2969" rx="2.5" ry="2.5" style="stroke:#181818;stroke-width:0.5;" width="50" x="145" y="155.6953"/><text fill="#000000" font-family="sans-serif" font-size="14" lengthAdjust="spacing" textLength="36" x="152" y="175.6904">Bank</text><polygon fill="#181818" points="158,63.4297,168,67.4297,158,71.4297,162,67.4297" style="stroke:#181818;stroke-width:1.0;"/><line style="stroke:#181818;stroke-width:1.0;" x1="39" x2="164" y1="67.4297" y2="67.4297"/><text fill="#000000" font-family="sans-serif" font-size="13" lengthAdjust="spacing" textLength="98" x="46" y="62.3638">Submit request</text><line style="stroke:#181818;stroke-width:1.0;" x1="170" x2="212" y1="96.5625" y2="96.5625"/><line style="stroke:#181818;stroke-width:1.0;" x1="212" x2="212" y1="96.5625" y2="109.5625"/><line style="stroke:#181818;stroke-width:1.0;" x1="171" x2="212" y1="109.5625" y2="109.5625"/><polygon fill="#181818" points="181,105.5625,171,109.5625,181,113.5625,177,109.5625" style="stroke:#181818;stroke-width:1.0;"/><text fill="#000000" font-family="sans-serif" font-size="13" lengthAdjust="spacing" textLength="105" x="177" y="91.4966">Build distribution</text><polygon fill="#181818" points="50,134.6953,40,138.6953,50,142.6953,46,138.6953" style="stroke:#181818;stroke-width:1.0;"/><line style="stroke:#181818;stroke-width:1.0;" x1="44" x2="169" y1="138.6953" y2="138.6953"/><text fill="#000000" font-family="sans-serif" font-size="13" lengthAdjust="spacing" textLength="107" x="56" y="133.6294">Fulfill distribution</text><!--SRC=[LOmx3e0W44HxJh4Ny08K5XJM9fu019EDY0YxznUK-AbcCkzbeaw4CqOT2CRIWqkWCyIxYlZ1IeUrCbDIY6P0rr-3X8dDXWJ97UmoYJg-K35w2nOp9JHCk8T7Q4SI1lOBUl-pJW00]--></g></svg>