<?xml version="1.0" encoding="us-ascii" standalone="no"?><svg xmlns="http://www.w3.org/2000/svg" xmlns:xlink="http://www.w3.org/1999/xlink" contentStyleType="text/css" height="257px" preserveAspectRatio="none" style="width:577px;height:257px;background:#FFFFFF;" version="1.1" viewBox="0 0 577 257" width="577px" zoomAndPan="magnify"><defs/><g><!--cluster Bank--><g id="cluster_Bank"><rect fill="none" height="183" rx="2.5" ry="2.5" style="stroke:#181818;stroke-width:1.0;" width="251" x="158" y="68"/><text fill="#000000" font-family="sans-serif" font-size="14" font-weight="bold" lengthAdjust="spacing" textLength="40" x="263.5" y="82.9951">Bank</text></g><!--cluster Partner--><g id="cluster_Partner"><rect fill="none" height="87" rx="2.5" ry="2.5" style="stroke:#181818;stroke-width:1.0;" width="138" x="433" y="68"/><text fill="#000000" font-family="sans-serif" font-size="14" font-weight="bold" lengthAdjust="spacing" textLength="61" x="471.5" y="82.9951">Partner</text></g><!--entity Inventory--><g id="elem_Inventory"><rect fill="#F1F1F1" height="36.2969" rx="2.5" ry="2.5" style="stroke:#181818;stroke-width:0.5;" width="89" x="242.5" y="103"/><text fill="#000000" font-family="sans-serif" font-size="14" lengthAdjust="spacing" textLength="69" x="252.5" y="125.9951">Inventory</text></g><!--entity Adjustment--><g id="elem_Adjustment"><rect fill="#F1F1F1" height="36.2969" rx="2.5" ry="2.5" style="stroke:#181818;stroke-width:0.5;" width="104" x="174" y="199"/><text fill="#000000" font-family="sans-serif" font-size="14" lengthAdjust="spacing" textLength="84" x="184" y="221.9951">Adjustment</text></g><!--entity Transfer--><g id="elem_Transfer"><rect fill="#F1F1F1" height="36.2969" rx="2.5" ry="2.5" style="stroke:#181818;stroke-width:0.5;" width="80" x="313" y="199"/><text fill="#000000" font-family="sans-serif" font-size="14" lengthAdjust="spacing" textLength="60" x="323" y="221.9951">Transfer</text></g><!--entity Distribution--><g id="elem_Distribution"><rect fill="#F1F1F1" height="36.2969" rx="2.5" ry="2.5" style="stroke:#181818;stroke-width:0.5;" width="106" x="449" y="103"/><text fill="#000000" font-family="sans-serif" font-size="14" lengthAdjust="spacing" textLength="86" x="459" y="125.9951">Distribution</text></g><!--entity Purchase--><g id="elem_Purchase"><rect fill="#F1F1F1" height="36.2969" rx="2.5" ry="2.5" style="stroke:#181818;stroke-width:0.5;" width="84" x="7" y="7"/><text fill="#000000" font-family="sans-serif" font-size="14" lengthAdjust="spacing" textLength="64" x="17" y="29.9951">Purchase</text></g><!--entity Intake--><g id="elem_Intake"><rect fill="#F1F1F1" height="36.2969" rx="2.5" ry="2.5" style="stroke:#181818;stroke-width:0.5;" width="66" x="76" y="103"/><text fill="#000000" font-family="sans-serif" font-size="14" lengthAdjust="spacing" textLength="46" x="86" y="125.9951">Intake</text></g><!--entity Donation--><g id="elem_Donation"><rect fill="#F1F1F1" height="36.2969" rx="2.5" ry="2.5" style="stroke:#181818;stroke-width:0.5;" width="86" x="126" y="7"/><text fill="#000000" font-family="sans-serif" font-size="14" lengthAdjust="spacing" textLength="66" x="136" y="29.9951">Donation</text></g><!--entity Recipient--><g id="elem_Recipient"><rect fill="#F1F1F1" height="36.2969" rx="2.5" ry="2.5" style="stroke:#181818;stroke-width:0.5;" width="90" x="457" y="199"/><text fill="#000000" font-family="sans-serif" font-size="14" lengthAdjust="spacing" textLength="70" x="467" y="221.9951">Recipient</text></g><!--link Purchase to Intake--><g id="link_Purchase_Intake"><path d="M83.5,43.057 C83.5,60.112 83.5,79.563 83.5,96.698 " fill="none" id="Purchase-to-Intake" style="stroke:#181818;stroke-width:1.0;"/><polygon fill="#181818" points="83.5,102.698,87.5,93.698,83.5,97.698,79.5,93.698,83.5,102.698" style="stroke:#181818;stroke-width:1.0;"/></g><!--link Donation to Intake--><g id="link_Donation_Intake"><path d="M134,43.057 C134,60.112 134,79.563 134,96.698 " fill="none" id="Donation-to-Intake" style="stroke:#181818;stroke-width:1.0;"/><polygon fill="#181818" points="134,102.698,138,93.698,134,97.698,130,93.698,134,102.698" style="stroke:#181818;stroke-width:1.0;"/></g><!--link Inventory to Adjustment--><g id="link_Inventory_Adjustment"><path d="M260.25,139.057 C260.25,156.112 260.25,175.5631 260.25,192.6977 " fill="none" id="Inventory-to-Adjustment" style="stroke:#181818;stroke-width:1.0;"/><polygon fill="#181818" points="260.25,198.6977,264.25,189.6977,260.25,193.6977,256.25,189.6977,260.25,198.6977" style="stroke:#181818;stroke-width:1.0;"/></g><!--link Inventory to Transfer--><g id="link_Inventory_Transfer"><path d="M322.25,139.057 C322.25,156.112 322.25,175.5631 322.25,192.6977 " fill="none" id="Inventory-to-Transfer" style="stroke:#181818;stroke-width:1.0;"/><polygon fill="#181818" points="322.25,198.6977,326.25,189.6977,322.25,193.6977,318.25,189.6977,322.25,198.6977" style="stroke:#181818;stroke-width:1.0;"/></g><!--link Intake to Inventory--><g id="link_Intake_Inventory"><path d="M142.063,121 C170.315,121 205.213,121 236.366,121 " fill="none" id="Intake-to-Inventory" style="stroke:#181818;stroke-width:1.0;"/><polygon fill="#181818" points="242.366,121,233.366,117,237.366,121,233.366,125,242.366,121" style="stroke:#181818;stroke-width:1.0;"/></g><!--link Inventory to Distribution--><g id="link_Inventory_Distribution"><path d="M331.548,121 C365.619,121 406.715,121 442.77,121 " fill="none" id="Inventory-to-Distribution" style="stroke:#181818;stroke-width:1.0;"/><polygon fill="#181818" points="448.77,121,439.77,117,443.77,121,439.77,125,448.77,121" style="stroke:#181818;stroke-width:1.0;"/></g><!--link Distribution to Recipient--><g id="link_Distribution_Recipient"><path d="M502,139.057 C502,156.112 502,175.5631 502,192.6977 " fill="none" id="Distribution-to-Recipient" style="stroke:#181818;stroke-width:1.0;"/><polygon fill="#181818" points="502,198.6977,506,189.6977,502,193.6977,498,189.6977,502,198.6977" style="stroke:#181818;stroke-width:1.0;"/></g><!--SRC=[ROxB3e9034NtynMDUtw1HCF67L5tX4KTgun0XtIA2J7-ko2F1EAojxUd9vIE6nIimVgwyKoiP-qg0Y6ho8-AJ5WgbMFIhY7meeKt9ajRiGK6oY6AOiYEh5XIRhB4CwhplCdD0eNT0RdSmTl0i7xrRxrqKtr_UxP1wpxB_wqlWXpk9Bdvh8WfYZB914rSK77NzgSnD6SB68rcfbdnu-tXUXm5JcHTumQzBm00]--></g></svg>