<?xml version="1.0" encoding="UTF-8"?>
<!DOCTYPE svg PUBLIC "-//W3C//DTD SVG 1.1//EN" "http://www.w3.org/Graphics/SVG/1.1/DTD/svg11.dtd">
<svg version="1.1" xmlns="http://www.w3.org/2000/svg" xmlns:xlink="http://www.w3.org/1999/xlink" x="0" y="0" width="396.48" height="90" viewBox="0, 0, 396.48, 90">
  <defs>
    <style type="text/css"><![CDATA[
      g#DropShadow {
        fill-opacity: 0;
        stroke: #7A7A7A;
        stroke-width: 5;
        stroke-linecap: round;
        stroke-linejoin: round;
      }
      path.lines {
        fill-opacity: 0;
        stroke: #7A7A7A; 
        stroke-width: 2; 
        stroke-linecap: round;
        stroke-linejoin: round;
      }
      g.blue-fill, path.blue-fill {
        fill: #5E87FF;
      }
      g.white-fill, path.white-fill {
        fill: #FFFBFB;
      }
    ]]></style>
  </defs>
  <g id="DiaperBase_Full">
    <g class="white-fill" id="DiaperBase_Text">
      <path alt="D" d="M10.45,59.383 Q16.228,59.383 20.318,55.293 Q22.387,53.224 23.41,50.786 Q24.432,48.349 24.432,45.4 Q24.432,39.645 20.318,35.532 Q16.204,31.418 10.45,31.418 L5.646,31.418 L5.646,59.383 z M10.45,26.376 Q18.297,26.376 23.885,31.965 Q26.691,34.771 28.082,38.088 Q29.474,41.405 29.474,45.4 Q29.474,53.271 23.885,58.86 Q18.321,64.424 10.45,64.424 L3.125,64.424 Q2.602,64.424 2.138,64.222 Q1.675,64.02 1.33,63.687 Q0.985,63.354 0.783,62.89 Q0.581,62.427 0.581,61.904 L0.581,28.897 Q0.581,28.374 0.783,27.91 Q0.985,27.446 1.33,27.113 Q1.675,26.781 2.138,26.578 Q2.602,26.376 3.125,26.376 z"/>
      <path alt="i" d="M39.747,33.058 Q39.747,34.271 38.89,35.127 Q38.034,35.983 36.822,35.983 Q35.609,35.983 34.753,35.127 Q33.897,34.271 33.897,33.058 Q33.897,31.846 34.753,30.99 Q35.609,30.134 36.822,30.134 Q38.034,30.134 38.89,30.99 Q39.747,31.846 39.747,33.058 z M34.348,61.927 L34.348,40.288 Q34.348,39.241 35.074,38.516 Q35.799,37.791 36.822,37.791 Q37.844,37.791 38.569,38.516 Q39.295,39.241 39.318,40.288 L39.318,61.927 Q39.295,62.974 38.569,63.699 Q37.844,64.424 36.822,64.424 Q35.799,64.424 35.074,63.699 Q34.348,62.974 34.348,61.927 z"/>
      <path alt="a" d="M57.748,42.761 Q55.988,42.761 54.466,43.427 Q52.944,44.092 51.827,45.222 Q50.709,46.351 50.055,47.873 Q49.401,49.395 49.401,51.107 Q49.401,52.82 50.055,54.342 Q50.709,55.863 51.827,56.993 Q52.944,58.123 54.466,58.788 Q55.988,59.454 57.748,59.454 Q59.484,59.454 61.006,58.788 Q62.528,58.123 63.657,56.981 Q64.787,55.84 65.441,54.33 Q66.095,52.82 66.095,51.107 Q66.095,49.395 65.441,47.885 Q64.787,46.375 63.657,45.234 Q62.528,44.092 61.006,43.427 Q59.484,42.761 57.748,42.761 z M66.095,61.951 L66.095,61.476 Q64.311,62.902 62.219,63.663 Q60.126,64.424 57.748,64.424 Q52.231,64.424 48.331,60.524 Q44.431,56.624 44.431,51.107 Q44.431,45.591 48.331,41.691 Q52.231,37.791 57.748,37.791 Q63.217,37.791 67.165,41.691 Q71.065,45.591 71.065,51.107 L71.065,61.951 Q71.065,62.974 70.339,63.699 Q69.614,64.424 68.592,64.424 Q67.545,64.424 66.82,63.699 Q66.095,62.974 66.095,61.951 z"/>
      <path alt="p" d="M79.84,51.107 Q79.84,52.82 80.493,54.342 Q81.147,55.863 82.265,56.993 Q83.383,58.123 84.905,58.788 Q86.427,59.454 88.186,59.454 Q89.922,59.454 91.444,58.788 Q92.966,58.123 94.096,56.981 Q95.225,55.84 95.879,54.33 Q96.533,52.82 96.533,51.107 Q96.533,49.395 95.879,47.885 Q95.225,46.375 94.096,45.234 Q92.966,44.092 91.444,43.427 Q89.922,42.761 88.186,42.761 Q86.427,42.761 84.905,43.427 Q83.383,44.092 82.265,45.222 Q81.147,46.351 80.493,47.873 Q79.84,49.395 79.84,51.107 z M88.186,64.424 Q83.407,64.424 79.84,61.499 L79.84,73.366 Q79.84,74.436 79.114,75.137 Q78.389,75.839 77.343,75.839 Q76.273,75.839 75.571,75.137 Q74.87,74.436 74.87,73.366 L74.87,51.107 Q74.87,45.59 78.769,41.691 Q82.669,37.791 88.186,37.791 Q93.656,37.791 97.603,41.691 Q99.553,43.617 100.528,45.983 Q101.503,48.349 101.503,51.107 Q101.503,56.672 97.603,60.524 Q95.606,62.498 93.263,63.461 Q90.921,64.424 88.186,64.424 z"/>
      <path alt="e" d="M126.639,48.634 Q126.234,47.326 125.438,46.244 Q124.641,45.162 123.583,44.39 Q122.525,43.617 121.252,43.189 Q119.98,42.761 118.625,42.761 Q117.269,42.761 115.985,43.189 Q114.701,43.617 113.631,44.39 Q112.561,45.162 111.776,46.244 Q110.991,47.326 110.611,48.634 z M125.568,56.934 Q126.639,56.934 127.34,57.635 Q128.042,58.337 128.042,59.407 Q128.042,60.453 127.328,61.19 Q123.642,64.424 118.625,64.424 Q113.108,64.424 109.208,60.524 Q105.308,56.624 105.308,51.107 Q105.308,45.591 109.208,41.691 Q113.108,37.791 118.625,37.791 Q124.094,37.791 128.042,41.691 Q129.991,43.617 130.966,45.983 Q131.941,48.349 131.941,51.107 Q131.941,52.178 131.216,52.879 Q130.491,53.581 129.445,53.581 L110.611,53.581 Q111.015,54.888 111.8,55.97 Q112.585,57.052 113.643,57.825 Q114.701,58.598 115.973,59.026 Q117.245,59.454 118.625,59.454 Q120.194,59.454 121.502,58.979 Q122.81,58.503 123.928,57.552 Q124.641,56.957 125.568,56.934 z"/>
      <path alt="r" d="M140.621,40.264 L140.621,40.739 Q142.405,39.313 144.497,38.552 Q146.59,37.791 148.968,37.791 Q150.014,37.791 151.215,37.933 Q152.416,38.076 153.427,38.445 Q154.437,38.813 155.103,39.455 Q155.769,40.097 155.769,41.12 Q155.769,41.643 155.567,42.095 Q155.365,42.547 155.032,42.891 Q154.699,43.236 154.247,43.427 Q153.795,43.617 153.272,43.617 Q152.82,43.617 152.226,43.355 Q150.728,42.761 148.968,42.761 Q147.232,42.761 145.71,43.415 Q144.188,44.069 143.059,45.198 Q141.929,46.328 141.275,47.85 Q140.621,49.372 140.621,51.107 L140.621,61.951 Q140.621,62.974 139.896,63.699 Q139.171,64.424 138.148,64.424 Q137.102,64.424 136.376,63.699 Q135.651,62.974 135.651,61.951 L135.651,40.264 Q135.651,39.241 136.376,38.516 Q137.102,37.791 138.148,37.791 Q139.171,37.791 139.896,38.516 Q140.621,39.241 140.621,40.264 z"/>
      <path alt="B" d="M291.886,31.418 L291.886,41.048 L296.713,41.048 Q297.712,41.048 298.58,40.668 Q299.448,40.288 300.102,39.622 Q300.755,38.956 301.136,38.088 Q301.516,37.22 301.516,36.221 Q301.516,35.246 301.136,34.378 Q300.755,33.51 300.09,32.844 Q299.424,32.179 298.556,31.798 Q297.688,31.418 296.713,31.418 z M291.886,46.09 L291.886,59.383 L298.544,59.383 Q299.923,59.383 301.136,58.86 Q302.349,58.337 303.24,57.433 Q304.132,56.529 304.655,55.316 Q305.179,54.104 305.179,52.724 Q305.179,51.369 304.655,50.156 Q304.132,48.943 303.229,48.04 Q302.325,47.136 301.112,46.613 Q299.899,46.09 298.544,46.09 z M296.713,26.376 Q298.734,26.376 300.53,27.149 Q302.325,27.922 303.669,29.266 Q305.012,30.609 305.785,32.404 Q306.558,34.2 306.558,36.221 Q306.558,39.836 304.322,42.523 Q305.773,43.379 306.867,44.497 Q307.961,45.614 308.71,46.934 Q309.459,48.254 309.839,49.716 Q310.22,51.179 310.22,52.724 Q310.22,55.126 309.293,57.255 Q308.365,59.383 306.784,60.976 Q305.202,62.569 303.074,63.497 Q300.946,64.424 298.544,64.424 L289.365,64.424 Q288.842,64.424 288.39,64.222 Q287.938,64.02 287.593,63.687 Q287.248,63.354 287.046,62.89 Q286.844,62.427 286.844,61.904 L286.844,28.897 Q286.844,28.374 287.046,27.91 Q287.248,27.446 287.593,27.113 Q287.938,26.781 288.39,26.578 Q288.842,26.376 289.365,26.376 z"/>
      <path alt="a" d="M326.937,42.761 Q325.178,42.761 323.656,43.427 Q322.134,44.092 321.016,45.222 Q319.898,46.351 319.244,47.873 Q318.59,49.395 318.59,51.107 Q318.59,52.82 319.244,54.342 Q319.898,55.863 321.016,56.993 Q322.134,58.123 323.656,58.788 Q325.178,59.454 326.937,59.454 Q328.673,59.454 330.195,58.788 Q331.717,58.123 332.847,56.981 Q333.976,55.84 334.63,54.33 Q335.284,52.82 335.284,51.107 Q335.284,49.395 334.63,47.885 Q333.976,46.375 332.847,45.234 Q331.717,44.092 330.195,43.427 Q328.673,42.761 326.937,42.761 z M335.284,61.951 L335.284,61.476 Q333.5,62.902 331.408,63.663 Q329.315,64.424 326.937,64.424 Q321.42,64.424 317.52,60.524 Q313.62,56.624 313.62,51.107 Q313.62,45.591 317.52,41.691 Q321.42,37.791 326.937,37.791 Q332.407,37.791 336.354,41.691 Q340.254,45.591 340.254,51.107 L340.254,61.951 Q340.254,62.974 339.529,63.699 Q338.803,64.424 337.781,64.424 Q336.735,64.424 336.009,63.699 Q335.284,62.974 335.284,61.951 z"/>
      <path alt="s" d="M348.91,51.75 Q346.675,50.893 345.771,49.99 L345.795,49.99 Q343.987,48.159 343.987,45.686 Q343.987,43.878 344.951,42.416 Q345.914,40.953 347.459,39.931 Q349.005,38.908 350.943,38.349 Q352.881,37.791 354.831,37.791 Q360.776,37.791 365.033,42.57 Q365.532,43.189 365.532,44.069 Q365.532,45.139 364.831,45.84 Q364.129,46.542 363.059,46.542 Q362.298,46.542 361.763,46.114 Q361.228,45.686 360.729,45.186 Q358.303,42.761 354.831,42.761 Q351.407,42.761 349.362,44.853 Q348.981,45.234 348.981,45.9 Q348.981,46.565 349.6,46.803 L360.729,50.465 Q363.059,51.369 363.868,52.225 L363.844,52.225 Q365.651,54.056 365.651,56.529 Q365.651,58.36 364.688,59.811 Q363.725,61.262 362.179,62.296 Q360.633,63.33 358.707,63.877 Q356.781,64.424 354.831,64.424 Q348.839,64.424 344.63,59.692 Q344.106,59.002 344.106,58.146 Q344.106,57.076 344.808,56.375 Q345.509,55.673 346.579,55.673 Q347.364,55.673 347.911,56.137 Q348.458,56.601 348.91,57.029 Q351.335,59.454 354.831,59.454 Q358.232,59.454 360.301,57.314 Q360.657,56.91 360.657,56.339 Q360.657,55.673 360.015,55.412 z"/>
      <path alt="e" d="M390.596,48.634 Q390.192,47.326 389.395,46.244 Q388.599,45.162 387.54,44.39 Q386.482,43.617 385.21,43.189 Q383.938,42.761 382.582,42.761 Q381.227,42.761 379.943,43.189 Q378.659,43.617 377.589,44.39 Q376.518,45.162 375.734,46.244 Q374.949,47.326 374.569,48.634 z M389.526,56.934 Q390.596,56.934 391.298,57.635 Q391.999,58.337 391.999,59.407 Q391.999,60.453 391.286,61.19 Q387.6,64.424 382.582,64.424 Q377.065,64.424 373.165,60.524 Q369.266,56.624 369.266,51.107 Q369.266,45.591 373.165,41.691 Q377.065,37.791 382.582,37.791 Q388.052,37.791 391.999,41.691 Q393.949,43.617 394.924,45.983 Q395.899,48.349 395.899,51.107 Q395.899,52.178 395.174,52.879 Q394.449,53.581 393.402,53.581 L374.569,53.581 Q374.973,54.888 375.758,55.97 Q376.542,57.052 377.6,57.825 Q378.659,58.598 379.931,59.026 Q381.203,59.454 382.582,59.454 Q384.152,59.454 385.46,58.979 Q386.768,58.503 387.885,57.552 Q388.599,56.957 389.526,56.934 z"/>
    </g>
    <g id="DiaperBase_Icon">
      <g>
        <g id="diaper">
          <path class="white-fill" d="M218.751,17.807 C231.574,18.664 244.312,20.856 256.609,24.752 C257.44,26.693 257.687,28.777 258.114,30.792 C258.114,30.792 259.946,42.485 257.594,49.774 C255.81,59.419 249.355,67.336 239.06,75.113 C233.054,79.902 226.035,82.083 218.751,83.18 C211.467,82.083 204.447,79.902 198.442,75.113 C188.147,67.336 181.692,59.419 179.908,49.774 C177.556,42.485 179.387,30.792 179.387,30.792 C179.815,28.777 180.062,26.693 180.893,24.752 C193.19,20.856 205.928,18.664 218.751,17.807"/>
          <path class="lines" d="M218.751,17.807 C231.574,18.664 244.312,20.856 256.609,24.752 C257.44,26.693 257.687,28.777 258.114,30.792 C258.114,30.792 259.946,42.485 257.594,49.774 C255.81,59.419 249.355,67.336 239.06,75.113 C233.054,79.902 226.035,82.083 218.751,83.18 C211.467,82.083 204.447,79.902 198.442,75.113 C188.147,67.336 181.692,59.419 179.908,49.774 C177.556,42.485 179.387,30.792 179.387,30.792 C179.815,28.777 180.062,26.693 180.893,24.752 C193.19,20.856 205.928,18.664 218.751,17.807"/>
        </g>
        <g id="TopHole">
          <path class="blue-fill" d="M219.423,30.746 C208.801,30.742 199.184,28.978 188.946,25.945 C191.39,25.354 193.802,24.594 196.278,24.173 C209.452,21.934 208.3,22.238 218.751,21.982 C229.277,22.238 228.117,21.934 241.386,24.173 C243.88,24.594 246.309,25.354 248.77,25.945 C238.459,28.978 228.772,30.742 218.074,30.746"/>
          <path class="lines" d="M219.423,30.746 C208.801,30.742 199.184,28.978 188.946,25.945 C191.39,25.354 193.802,24.594 196.278,24.173 C209.452,21.934 208.3,22.238 218.751,21.982 C229.277,22.238 228.117,21.934 241.386,24.173 C243.88,24.594 246.309,25.354 248.77,25.945 C238.459,28.978 228.772,30.742 218.074,30.746"/>
        </g>
        
        <g id="LegHoles">
          <g class="lines">
            <path d="M210.651,77.459 C205.191,67.768 198.11,59.486 186.476,57.847"/>
            <path d="M226.851,77.459 C232.311,67.768 239.392,59.486 251.026,57.847"/>
          </g>
          <g>
            <path class="blue-fill" d="M209.362,75.416 C199.199,75.416 193.538,64.955 189.62,58.531 C189.62,58.531 200.956,60.407 209.362,75.416 z"/>
            <path class="lines" d="M209.362,75.416 C199.199,75.416 193.538,64.955 189.62,58.531 C189.62,58.531 200.956,60.407 209.362,75.416 z"/>
          </g>
          <g>
            <path class="blue-fill" d="M228.14,75.416 C238.302,75.416 243.964,64.955 247.882,58.531 C247.882,58.531 236.546,60.407 228.14,75.416 z"/>
            <path class="lines" d="M228.14,75.416 C238.302,75.416 243.964,64.955 247.882,58.531 C247.882,58.531 236.546,60.407 228.14,75.416 z"/>
          </g>
        </g>
        <g id="Arrows">
          <g>
            <path class="blue-fill" d="M189.43,36.534 C184.209,36.02 178.759,32.96 176.737,31.414 C173.63,33.485 173.745,43.516 175.774,46.837 C176.498,47.799 184.077,51.571 187.618,51.026 C187.279,53.76 187.263,54.979 187.586,55.046 C187.909,55.113 208.947,47.223 209.049,45.441 C209.15,43.659 191.917,29.194 191.206,29.256 C190.495,29.319 189.627,33.499 189.43,36.534 z"/>
            <path class="lines" d="M189.43,36.534 C184.209,36.02 178.759,32.96 176.737,31.414 C173.63,33.485 173.745,43.516 175.774,46.837 C176.498,47.799 184.077,51.571 187.618,51.026 C187.279,53.76 187.263,54.979 187.586,55.046 C187.909,55.113 208.947,47.223 209.049,45.441 C209.15,43.659 191.917,29.194 191.206,29.256 C190.495,29.319 189.627,33.499 189.43,36.534 z"/>
          </g>
          <g>
            <path class="blue-fill" d="M248.072,36.534 C253.293,36.02 258.743,32.96 260.765,31.414 C263.872,33.485 263.757,43.516 261.728,46.837 C261.003,47.799 253.425,51.571 249.883,51.026 C250.223,53.76 250.238,54.979 249.916,55.046 C249.593,55.113 228.555,47.223 228.453,45.441 C228.352,43.659 245.585,29.194 246.296,29.256 C247.007,29.319 247.875,33.499 248.072,36.534 z"/>
            <path class="lines" d="M248.072,36.534 C253.293,36.02 258.743,32.96 260.765,31.414 C263.872,33.485 263.757,43.516 261.728,46.837 C261.003,47.799 253.425,51.571 249.883,51.026 C250.223,53.76 250.238,54.979 249.916,55.046 C249.593,55.113 228.555,47.223 228.453,45.441 C228.352,43.659 245.585,29.194 246.296,29.256 C247.007,29.319 247.875,33.499 248.072,36.534 z"/>
          </g>
        </g>
      </g>
      <g id="DropShadow">
        <path d="M220.099,84.319 C232.223,82.514 254.708,69.473 259.589,50.326"/>
        <path d="M259.642,50.198 C263.364,52.411 269.494,31.18 259.736,30.708"/>
        <path d="M259.17,29.622 C259.75,31.857 258.682,27.136 257.565,24.243"/>
        <path d="M256.389,23.04 C243.54,16.335 203.741,12.453 180.939,23.854"/>
        <path d="M180.454,24.286 C180.618,23.803 179.516,27.252 178.685,30.222"/>
        <path d="M178.491,30.332 C169.786,32.792 171.609,46.329 178.792,50.197"/>
        <path d="M209.341,81.562 C195.751,75.486 182.666,65.178 179.094,50.046"/>
        <path d="M256.905,23.312 C256.981,23.362 257.077,23.369 257.162,23.398"/>
        <path d="M220.676,84.391 C216.697,83.958 212.816,83.047 209.206,81.489"/>
      </g>
    </g>
  </g>
</svg>
