<?xml version="1.0" encoding="UTF-8"?>
<!DOCTYPE svg PUBLIC "-//W3C//DTD SVG 1.1//EN" "http://www.w3.org/Graphics/SVG/1.1/DTD/svg11.dtd">
<svg version="1.1" xmlns="http://www.w3.org/2000/svg" xmlns:xlink="http://www.w3.org/1999/xlink" x="0" y="0" width="93" height="70" viewBox="170, 15, 93, 70">
  <defs>
    <style type="text/css"><![CDATA[
      g#DropShadow {
        fill-opacity: 0;
        stroke: #7A7A7A;
        stroke-width: 1;
        stroke-linecap: round;
        stroke-linejoin: round;
      }
      path.lines {
        fill-opacity: 0;
        stroke: #7A7A7A; 
        stroke-width: 2; 
        stroke-linecap: round;
        stroke-linejoin: round;
      }
      g.blue-fill, path.blue-fill {
        fill: #5E87FF;
      }
      g.white-fill, path.white-fill {
        fill: #FFFBFB;
      }
    ]]></style>
  </defs>
  <g id="DiaperBase_Icon">
    <g id="foreground">
      <g id="diaper">
        <path d="M218.751,17.807 C231.574,18.664 244.312,20.856 256.609,24.752 C257.44,26.693 257.687,28.777 258.114,30.792 C258.114,30.792 259.946,42.485 257.594,49.774 C255.81,59.419 249.355,67.336 239.06,75.113 C233.054,79.902 226.035,82.083 218.751,83.18 C211.467,82.083 204.447,79.902 198.442,75.113 C188.147,67.336 181.692,59.419 179.908,49.774 C177.556,42.485 179.387,30.792 179.387,30.792 C179.815,28.777 180.062,26.693 180.893,24.752 C193.19,20.856 205.928,18.664 218.751,17.807" fill="#FFFBFB"/>
        <path d="M218.751,17.807 C231.574,18.664 244.312,20.856 256.609,24.752 C257.44,26.693 257.687,28.777 258.114,30.792 C258.114,30.792 259.946,42.485 257.594,49.774 C255.81,59.419 249.355,67.336 239.06,75.113 C233.054,79.902 226.035,82.083 218.751,83.18 C211.467,82.083 204.447,79.902 198.442,75.113 C188.147,67.336 181.692,59.419 179.908,49.774 C177.556,42.485 179.387,30.792 179.387,30.792 C179.815,28.777 180.062,26.693 180.893,24.752 C193.19,20.856 205.928,18.664 218.751,17.807" fill-opacity="0" stroke="#7A7A7A" stroke-width="2" stroke-linecap="round" stroke-linejoin="round"/>
      </g>
      <g id="TopHole">
        <path d="M219.423,30.746 C208.801,30.742 199.184,28.978 188.946,25.945 C191.39,25.354 193.802,24.594 196.278,24.173 C209.452,21.934 208.3,22.238 218.751,21.982 C229.277,22.238 228.117,21.934 241.386,24.173 C243.88,24.594 246.309,25.354 248.77,25.945 C238.459,28.978 228.772,30.742 218.074,30.746" fill="#5E87FF"/>
        <path d="M219.423,30.746 C208.801,30.742 199.184,28.978 188.946,25.945 C191.39,25.354 193.802,24.594 196.278,24.173 C209.452,21.934 208.3,22.238 218.751,21.982 C229.277,22.238 228.117,21.934 241.386,24.173 C243.88,24.594 246.309,25.354 248.77,25.945 C238.459,28.978 228.772,30.742 218.074,30.746" fill-opacity="0" stroke="#7A7A7A" stroke-width="2" stroke-linecap="round" stroke-linejoin="round"/>
      </g>
      
      <g id="LegHoles">
        <g fill-opacity="0" stroke="#7A7A7A" stroke-width="2" stroke-linecap="round" stroke-linejoin="round">
          <path d="M210.651,77.459 C205.191,67.768 198.11,59.486 186.476,57.847"/>
          <path d="M226.851,77.459 C232.311,67.768 239.392,59.486 251.026,57.847"/>
        </g>
        <g>
          <path d="M209.362,75.416 C199.199,75.416 193.538,64.955 189.62,58.531 C189.62,58.531 200.956,60.407 209.362,75.416 z" fill="#5E87FF"/>
          <path d="M209.362,75.416 C199.199,75.416 193.538,64.955 189.62,58.531 C189.62,58.531 200.956,60.407 209.362,75.416 z" fill-opacity="0" stroke="#7A7A7A" stroke-width="2" stroke-linecap="round" stroke-linejoin="round"/>
        </g>
        <g>
          <path d="M228.14,75.416 C238.302,75.416 243.964,64.955 247.882,58.531 C247.882,58.531 236.546,60.407 228.14,75.416 z" fill="#5E87FF"/>
          <path d="M228.14,75.416 C238.302,75.416 243.964,64.955 247.882,58.531 C247.882,58.531 236.546,60.407 228.14,75.416 z" fill-opacity="0" stroke="#7A7A7A" stroke-width="2" stroke-linecap="round" stroke-linejoin="round"/>
        </g>
      </g>
      <g id="Arrows">
        <g>
          <path d="M189.43,36.534 C184.209,36.02 178.759,32.96 176.737,31.414 C173.63,33.485 173.745,43.516 175.774,46.837 C176.498,47.799 184.077,51.571 187.618,51.026 C187.279,53.76 187.263,54.979 187.586,55.046 C187.909,55.113 208.947,47.223 209.049,45.441 C209.15,43.659 191.917,29.194 191.206,29.256 C190.495,29.319 189.627,33.499 189.43,36.534 z" fill="#5E87FF"/>
          <path d="M189.43,36.534 C184.209,36.02 178.759,32.96 176.737,31.414 C173.63,33.485 173.745,43.516 175.774,46.837 C176.498,47.799 184.077,51.571 187.618,51.026 C187.279,53.76 187.263,54.979 187.586,55.046 C187.909,55.113 208.947,47.223 209.049,45.441 C209.15,43.659 191.917,29.194 191.206,29.256 C190.495,29.319 189.627,33.499 189.43,36.534 z" fill-opacity="0" stroke="#7A7A7A" stroke-width="2" stroke-linecap="round" stroke-linejoin="round"/>
        </g>
        <g>
          <path d="M248.072,36.534 C253.293,36.02 258.743,32.96 260.765,31.414 C263.872,33.485 263.757,43.516 261.728,46.837 C261.003,47.799 253.425,51.571 249.883,51.026 C250.223,53.76 250.238,54.979 249.916,55.046 C249.593,55.113 228.555,47.223 228.453,45.441 C228.352,43.659 245.585,29.194 246.296,29.256 C247.007,29.319 247.875,33.499 248.072,36.534 z" fill="#5E87FF"/>
          <path d="M248.072,36.534 C253.293,36.02 258.743,32.96 260.765,31.414 C263.872,33.485 263.757,43.516 261.728,46.837 C261.003,47.799 253.425,51.571 249.883,51.026 C250.223,53.76 250.238,54.979 249.916,55.046 C249.593,55.113 228.555,47.223 228.453,45.441 C228.352,43.659 245.585,29.194 246.296,29.256 C247.007,29.319 247.875,33.499 248.072,36.534 z" fill-opacity="0" stroke="#7A7A7A" stroke-width="2" stroke-linecap="round" stroke-linejoin="round"/>
        </g>
      </g>
    </g>
    <g id="DropShadow">
      <path d="M220.099,84.319 C232.223,82.514 254.708,69.473 259.589,50.326"/>
      <path d="M259.642,50.198 C263.364,52.411 269.494,31.18 259.736,30.708"/>
      <path d="M259.17,29.622 C259.75,31.857 258.682,27.136 257.565,24.243"/>
      <path d="M256.389,23.04 C243.54,16.335 203.741,12.453 180.939,23.854"/>
      <path d="M180.454,24.286 C180.618,23.803 179.516,27.252 178.685,30.222"/>
      <path d="M178.491,30.332 C169.786,32.792 171.609,46.329 178.792,50.197"/>
      <path d="M209.341,81.562 C195.751,75.486 182.666,65.178 179.094,50.046"/>
      <path d="M256.905,23.312 C256.981,23.362 257.077,23.369 257.162,23.398"/>
      <path d="M220.676,84.391 C216.697,83.958 212.816,83.047 209.206,81.489"/>
    </g>
  </g>

</svg>
