<?xml version="1.0" encoding="UTF-8"?>
<!DOCTYPE svg PUBLIC "-//W3C//DTD SVG 1.1//EN" "http://www.w3.org/Graphics/SVG/1.1/DTD/svg11.dtd">
<svg version="1.1" xmlns="http://www.w3.org/2000/svg" xmlns:xlink="http://www.w3.org/1999/xlink" x="0" y="0" width="396.48" height="90" viewBox="0, 0, 396.48, 90">
  <g id="Layer_1">
    <g>
      <g>
        <path d="M45.239,11.297 C59.885,11.29 71.763,20.942 71.769,32.855 C71.612,40.885 66.322,48.039 57.899,51.829 L55.001,52.789 C52.522,52.712 50.704,51.06 50.443,49.057 C50.501,47.585 50.945,46.86 52.131,45.83 C57.749,43.387 60.679,39.803 61.021,34.47 C61.019,31.698 59.198,28.634 56.306,27.121 C57.387,26.241 57.853,24.989 57.881,23.747 C57.539,21.003 55.785,19.226 52.586,18.471 L51.251,18.362 C47.591,18.364 44.625,20.777 44.626,23.753 C44.831,25.402 44.588,24.505 45.568,26.395 C41.921,27.65 39.725,30.879 39.63,34.094 C39.713,35.42 39.613,34.685 39.764,35.395 L28.736,35.426 C29.243,45.632 37.234,47.526 42.889,47.566 C43.616,47.571 44.009,49.164 44.044,50 C44.129,51.969 42.372,53.206 40.317,53.953 L40.33,82.443 C40.333,86.98 36.239,90.66 31.186,90.663 C26.134,90.665 22.036,86.989 22.034,82.451 L22.015,42.945 C19.816,39.915 19.101,36.354 18.729,32.88 C18.723,20.967 30.592,11.303 45.239,11.297 L45.239,11.297 z" fill="#E19A37"/>
        <path d="M45.239,11.297 C59.885,11.29 71.763,20.942 71.769,32.855 C71.612,40.885 66.322,48.039 57.899,51.829 L55.001,52.789 C52.522,52.712 50.704,51.06 50.443,49.057 C50.501,47.585 50.945,46.86 52.131,45.83 C57.749,43.387 60.679,39.803 61.021,34.47 C61.019,31.698 59.198,28.634 56.306,27.121 C57.387,26.241 57.853,24.989 57.881,23.747 C57.539,21.003 55.785,19.226 52.586,18.471 L51.251,18.362 C47.591,18.364 44.625,20.777 44.626,23.753 C44.831,25.402 44.588,24.505 45.568,26.395 C41.921,27.65 39.725,30.879 39.63,34.094 C39.713,35.42 39.613,34.685 39.764,35.395 L28.736,35.426 C29.243,45.632 37.234,47.526 42.889,47.566 C43.616,47.571 44.009,49.164 44.044,50 C44.129,51.969 42.372,53.206 40.317,53.953 L40.33,82.443 C40.333,86.98 36.239,90.66 31.186,90.663 C26.134,90.665 22.036,86.989 22.034,82.451 L22.015,42.945 C19.816,39.915 19.101,36.354 18.729,32.88 C18.723,20.967 30.592,11.303 45.239,11.297 L45.239,11.297 z" fill-opacity="0" stroke="#7A7A7A" stroke-width="2.5"/>
      </g>
      <g>
        <path d="M48.695,0.571 C51.418,0.57 54.838,2.257 55.666,4.512 C56.639,7.165 54.758,12.616 53.224,15.609 C52.732,16.497 52.256,17.491 51.561,18.272 L51.101,18.234 C48.995,18.343 46.402,19.075 45.479,20.859 C44.743,20.566 45.092,20.744 44.435,20.323 C40.675,17.6 38.302,16.738 38.617,10.928 C38.928,5.217 43.127,0.574 48.695,0.572 z" fill="#E19A37"/>
        <path d="M48.695,0.571 C51.418,0.57 54.838,2.257 55.666,4.512 C56.639,7.165 54.758,12.616 53.224,15.609 C52.732,16.497 52.256,17.491 51.561,18.272 L51.101,18.234 C48.995,18.343 46.402,19.075 45.479,20.859 C44.743,20.566 45.092,20.744 44.435,20.323 C40.675,17.6 38.302,16.738 38.617,10.928 C38.928,5.217 43.127,0.574 48.695,0.572 z" fill-opacity="0" stroke="#7A7A7A" stroke-width="2.5"/>
      </g>
    </g>
    <path d="M74.402,63.833 Q72.487,63.834 70.83,64.49 Q69.173,65.147 67.957,66.259 Q66.741,67.372 66.03,68.871 Q65.318,70.37 65.319,72.056 Q65.32,73.742 66.033,75.24 Q66.745,76.738 67.963,77.85 Q69.18,78.962 70.837,79.617 Q72.494,80.271 74.41,80.271 Q76.3,80.27 77.957,79.613 Q79.613,78.957 80.842,77.832 Q82.072,76.708 82.783,75.221 Q83.494,73.733 83.493,72.047 Q83.493,70.362 82.78,68.875 Q82.067,67.388 80.837,66.265 Q79.607,65.142 77.95,64.487 Q76.292,63.832 74.402,63.833 z M83.498,82.725 L83.498,82.257 Q81.557,83.662 79.279,84.413 Q77.001,85.163 74.412,85.164 Q68.406,85.167 64.158,81.329 Q59.911,77.491 59.908,72.058 Q59.906,66.626 64.15,62.784 Q68.394,58.942 74.4,58.939 Q80.355,58.936 84.654,62.774 Q88.902,66.613 88.904,72.045 L88.909,82.722 Q88.91,83.729 88.12,84.444 Q87.331,85.158 86.218,85.159 Q85.079,85.159 84.289,84.446 Q83.499,83.732 83.498,82.725 z" fill="#E19A37"/>
    <path d="M99.453,61.363 L99.454,61.831 Q101.395,60.425 103.673,59.675 Q105.95,58.924 108.539,58.923 Q109.678,58.923 110.986,59.062 Q112.293,59.202 113.394,59.565 Q114.494,59.927 115.22,60.559 Q115.945,61.191 115.945,62.198 Q115.945,62.713 115.726,63.158 Q115.506,63.603 115.143,63.943 Q114.781,64.282 114.289,64.47 Q113.798,64.657 113.228,64.658 Q112.736,64.658 112.089,64.401 Q110.457,63.816 108.542,63.817 Q106.652,63.818 104.995,64.462 Q103.339,65.107 102.109,66.22 Q100.88,67.333 100.169,68.832 Q99.458,70.331 99.458,72.04 L99.463,82.717 Q99.464,83.724 98.675,84.439 Q97.885,85.153 96.772,85.154 Q95.633,85.154 94.843,84.441 Q94.053,83.727 94.053,82.72 L94.043,61.365 Q94.042,60.358 94.831,59.644 Q95.621,58.929 96.76,58.929 Q97.873,58.928 98.663,59.642 Q99.453,60.356 99.453,61.363 z" fill="#E19A37"/>
    <path d="M122.64,58.916 L123.857,58.916 L123.853,50.112 Q123.853,49.105 124.642,48.39 Q125.431,47.676 126.57,47.675 Q127.684,47.675 128.473,48.388 Q129.263,49.102 129.264,50.109 L129.268,58.913 L132.504,58.912 Q133.617,58.911 134.394,59.625 Q135.171,60.339 135.172,61.346 Q135.172,62.376 134.396,63.091 Q133.62,63.805 132.506,63.806 L129.27,63.807 L129.276,75.585 Q129.278,80.245 134.456,80.242 Q135.569,80.242 136.346,80.956 Q137.123,81.669 137.124,82.676 Q137.124,83.707 136.348,84.421 Q135.571,85.136 134.458,85.136 Q123.869,85.141 123.865,75.588 L123.859,63.81 L122.643,63.81 Q121.555,63.811 120.765,63.097 Q119.975,62.383 119.975,61.353 Q119.974,60.346 120.764,59.632 Q121.553,58.917 122.64,58.916 z" fill="#E19A37"/>
    <path d="M147.305,61.317 Q150.747,58.903 155.408,58.901 Q158.126,58.9 160.573,59.859 Q163.02,60.818 164.885,62.468 Q166.749,64.117 167.838,66.353 Q168.926,68.589 168.927,71.118 L168.933,82.661 Q168.933,83.692 168.144,84.406 Q167.355,85.121 166.241,85.121 Q165.102,85.122 164.312,84.408 Q163.522,83.694 163.522,82.664 L163.517,71.12 Q163.516,69.622 162.868,68.287 Q162.22,66.953 161.119,65.958 Q160.019,64.964 158.543,64.379 Q157.067,63.794 155.41,63.795 Q153.727,63.796 152.265,64.37 Q150.802,64.944 149.689,65.952 Q148.577,66.959 147.943,68.294 Q147.309,69.629 147.31,71.128 L147.315,82.672 Q147.316,83.702 146.527,84.416 Q145.737,85.131 144.624,85.131 Q143.485,85.132 142.695,84.418 Q141.905,83.704 141.904,82.674 L141.894,61.366 Q141.894,60.359 142.683,59.633 Q143.473,58.907 144.612,58.906 Q145.725,58.906 146.515,59.631 Q147.305,60.357 147.305,61.317 z" fill="#E19A37"/>
    <path d="M197.319,69.559 Q196.878,68.271 196.01,67.206 Q195.142,66.141 193.99,65.381 Q192.837,64.62 191.452,64.2 Q190.067,63.779 188.591,63.779 Q187.115,63.78 185.718,64.202 Q184.32,64.624 183.155,65.386 Q181.991,66.147 181.137,67.213 Q180.283,68.279 179.869,69.567 z M196.157,77.731 Q197.322,77.731 198.086,78.421 Q198.85,79.112 198.851,80.165 Q198.851,81.196 198.075,81.922 Q194.064,85.108 188.601,85.111 Q182.595,85.114 178.347,81.276 Q174.1,77.437 174.097,72.005 Q174.094,66.573 178.339,62.73 Q182.583,58.888 188.589,58.886 Q194.543,58.883 198.843,62.721 Q200.967,64.617 202.029,66.946 Q203.092,69.275 203.093,71.991 Q203.093,73.045 202.304,73.736 Q201.515,74.427 200.376,74.428 L179.871,74.438 Q180.312,75.725 181.167,76.79 Q182.022,77.855 183.174,78.616 Q184.327,79.376 185.712,79.797 Q187.097,80.218 188.599,80.217 Q190.308,80.216 191.731,79.747 Q193.155,79.278 194.371,78.341 Q195.148,77.755 196.157,77.731 z" fill="#E19A37"/>
    <path d="M213.642,61.309 L213.642,61.777 Q215.583,60.372 217.861,59.621 Q220.139,58.871 222.728,58.87 Q223.867,58.869 225.175,59.009 Q226.482,59.149 227.583,59.511 Q228.683,59.874 229.408,60.506 Q230.134,61.137 230.134,62.144 Q230.134,62.659 229.914,63.104 Q229.695,63.549 229.332,63.889 Q228.97,64.229 228.478,64.416 Q227.986,64.604 227.417,64.604 Q226.925,64.604 226.278,64.347 Q224.646,63.763 222.73,63.763 Q220.841,63.764 219.184,64.409 Q217.527,65.054 216.298,66.167 Q215.069,67.279 214.358,68.778 Q213.646,70.277 213.647,71.986 L213.652,82.664 Q213.653,83.671 212.863,84.385 Q212.074,85.1 210.961,85.1 Q209.822,85.101 209.032,84.387 Q208.242,83.673 208.241,82.666 L208.231,61.312 Q208.231,60.305 209.02,59.59 Q209.809,58.876 210.949,58.875 Q212.062,58.875 212.852,59.588 Q213.642,60.302 213.642,61.309 z" fill="#E19A37"/>
    <path d="M256.26,52.579 L256.265,62.062 L261.52,62.059 Q262.608,62.059 263.552,61.684 Q264.497,61.309 265.209,60.653 Q265.921,59.997 266.334,59.142 Q266.748,58.287 266.748,57.304 Q266.747,56.344 266.333,55.489 Q265.918,54.635 265.193,53.979 Q264.468,53.324 263.523,52.95 Q262.577,52.576 261.516,52.576 z M256.267,67.026 L256.273,80.115 L263.522,80.112 Q265.024,80.111 266.344,79.595 Q267.664,79.079 268.635,78.189 Q269.605,77.299 270.174,76.105 Q270.743,74.91 270.742,73.552 Q270.742,72.217 270.172,71.023 Q269.601,69.829 268.617,68.94 Q267.633,68.051 266.312,67.536 Q264.992,67.022 263.516,67.022 z M261.514,47.612 Q263.714,47.611 265.669,48.371 Q267.624,49.131 269.088,50.453 Q270.551,51.776 271.393,53.543 Q272.235,55.311 272.236,57.301 Q272.238,60.86 269.806,63.507 Q271.385,64.349 272.577,65.449 Q273.768,66.549 274.584,67.849 Q275.4,69.148 275.815,70.588 Q276.23,72.027 276.231,73.549 Q276.232,75.914 275.223,78.011 Q274.215,80.107 272.494,81.676 Q270.773,83.246 268.456,84.16 Q266.139,85.075 263.525,85.076 L253.531,85.08 Q252.962,85.081 252.47,84.882 Q251.978,84.683 251.602,84.355 Q251.227,84.028 251.006,83.571 Q250.786,83.115 250.786,82.6 L250.771,50.099 Q250.77,49.584 250.99,49.127 Q251.21,48.671 251.585,48.343 Q251.961,48.015 252.452,47.815 Q252.944,47.616 253.514,47.616 z" fill="#E19A37"/>
    <path d="M295.531,63.729 Q293.615,63.73 291.959,64.387 Q290.302,65.043 289.086,66.156 Q287.869,67.269 287.158,68.768 Q286.447,70.266 286.448,71.952 Q286.448,73.638 287.161,75.137 Q287.874,76.635 289.091,77.746 Q290.308,78.858 291.966,79.513 Q293.623,80.168 295.539,80.167 Q297.429,80.166 299.085,79.51 Q300.742,78.853 301.971,77.729 Q303.2,76.604 303.911,75.117 Q304.623,73.63 304.622,71.944 Q304.621,70.258 303.909,68.771 Q303.196,67.285 301.966,66.162 Q300.735,65.038 299.078,64.383 Q297.421,63.728 295.531,63.729 z M304.627,82.621 L304.627,82.153 Q302.686,83.559 300.408,84.309 Q298.13,85.06 295.541,85.061 Q289.535,85.064 285.287,81.225 Q281.039,77.387 281.037,71.955 Q281.034,66.523 285.278,62.68 Q289.522,58.838 295.529,58.836 Q301.483,58.833 305.783,62.671 Q310.03,66.509 310.033,71.941 L310.038,82.619 Q310.038,83.626 309.249,84.34 Q308.46,85.055 307.346,85.055 Q306.207,85.056 305.417,84.342 Q304.627,83.628 304.627,82.621 z" fill="#E19A37"/>
    <path d="M320.561,72.569 Q318.127,71.727 317.143,70.838 L317.169,70.837 Q315.201,69.035 315.199,66.6 Q315.199,64.821 316.246,63.38 Q317.294,61.94 318.977,60.932 Q320.659,59.924 322.769,59.373 Q324.878,58.822 327.001,58.821 Q333.474,58.818 338.11,63.522 Q338.654,64.131 338.654,64.997 Q338.655,66.051 337.891,66.742 Q337.128,67.433 335.963,67.433 Q335.135,67.434 334.552,67.013 Q333.969,66.591 333.425,66.1 Q330.783,63.713 327.004,63.715 Q323.276,63.716 321.05,65.778 Q320.636,66.153 320.636,66.808 Q320.637,67.464 321.31,67.698 L333.428,71.298 Q335.965,72.187 336.846,73.029 L336.82,73.029 Q338.788,74.831 338.79,77.267 Q338.79,79.07 337.743,80.498 Q336.695,81.927 335.012,82.947 Q333.33,83.966 331.233,84.506 Q329.137,85.045 327.014,85.046 Q320.49,85.049 315.905,80.392 Q315.335,79.713 315.335,78.87 Q315.334,77.816 316.098,77.125 Q316.861,76.434 318.026,76.433 Q318.88,76.433 319.476,76.889 Q320.072,77.346 320.564,77.767 Q323.206,80.154 327.011,80.152 Q330.714,80.15 332.965,78.042 Q333.353,77.644 333.353,77.082 Q333.352,76.426 332.653,76.169 z" fill="#E19A37"/>
    <path d="M367.048,69.479 Q366.608,68.192 365.74,67.127 Q364.872,66.062 363.72,65.301 Q362.567,64.541 361.182,64.12 Q359.797,63.699 358.321,63.7 Q356.845,63.701 355.447,64.123 Q354.05,64.545 352.885,65.306 Q351.72,66.068 350.867,67.134 Q350.013,68.2 349.599,69.488 z M365.887,77.652 Q367.052,77.651 367.816,78.342 Q368.58,79.032 368.581,80.086 Q368.581,81.116 367.805,81.842 Q363.794,85.029 358.331,85.031 Q352.325,85.034 348.077,81.196 Q343.829,77.358 343.827,71.926 Q343.824,66.493 348.068,62.651 Q352.312,58.809 358.319,58.806 Q364.273,58.803 368.573,62.641 Q370.696,64.537 371.759,66.866 Q372.822,69.196 372.823,71.912 Q372.823,72.966 372.034,73.657 Q371.245,74.348 370.106,74.348 L349.601,74.358 Q350.042,75.646 350.897,76.711 Q351.752,77.776 352.904,78.536 Q354.057,79.297 355.442,79.717 Q356.827,80.138 358.329,80.138 Q360.037,80.137 361.461,79.668 Q362.885,79.199 364.101,78.262 Q364.878,77.676 365.887,77.652 z" fill="#E19A37"/>
  </g>
</svg>
