<?xml version="1.0" encoding="us-ascii" standalone="no"?><svg xmlns="http://www.w3.org/2000/svg" xmlns:xlink="http://www.w3.org/1999/xlink" contentStyleType="text/css" height="145px" preserveAspectRatio="none" style="width:262px;height:145px;background:#FFFFFF;" version="1.1" viewBox="0 0 262 145" width="262px" zoomAndPan="magnify"><defs/><g><!--entity Base Item--><g id="elem_Base Item"><rect fill="#F1F1F1" height="36.2969" rx="2.5" ry="2.5" style="stroke:#181818;stroke-width:0.5;" width="89" x="7" y="7"/><text fill="#000000" font-family="sans-serif" font-size="14" lengthAdjust="spacing" textLength="69" x="17" y="29.9951">Base Item</text></g><!--entity Item--><g id="elem_Item"><rect fill="#F1F1F1" height="36.2969" rx="2.5" ry="2.5" style="stroke:#181818;stroke-width:0.5;" width="50" x="38.5" y="103.29"/><text fill="#000000" font-family="sans-serif" font-size="14" lengthAdjust="spacing" textLength="30" x="48.5" y="126.2851">Item</text></g><!--entity Global Barcode--><g id="elem_Global Barcode"><rect fill="#F1F1F1" height="36.2969" rx="2.5" ry="2.5" style="stroke:#181818;stroke-width:0.5;" width="125" x="131" y="7"/><text fill="#000000" font-family="sans-serif" font-size="14" lengthAdjust="spacing" textLength="105" x="141" y="29.9951">Global Barcode</text></g><!--entity Bank Barcode--><g id="elem_Bank Barcode"><rect fill="#F1F1F1" height="36.2969" rx="2.5" ry="2.5" style="stroke:#181818;stroke-width:0.5;" width="117" x="129" y="103.29"/><text fill="#000000" font-family="sans-serif" font-size="14" lengthAdjust="spacing" textLength="97" x="139" y="126.2851">Bank Barcode</text></g><!--reverse link Base Item to Item--><g id="link_Base Item_Item"><path d="M63.5,49.71 C63.5,66.76 63.5,85.9 63.5,102.93 " fill="none" id="Base Item-backto-Item" style="stroke:#181818;stroke-width:1.0;"/><polygon fill="#181818" points="63.5,43.71,59.5,52.71,63.5,48.71,67.5,52.71,63.5,43.71" style="stroke:#181818;stroke-width:1.0;"/><text fill="#000000" font-family="sans-serif" font-size="13" lengthAdjust="spacing" textLength="51" x="11.5" y="69.3869">Fallback</text></g><!--reverse link Base Item to Global Barcode--><g id="link_Base Item_Global Barcode"><path d="M102.43,25.59 C113.32,25.59 119.16,25.59 130.7,25.59 " fill="none" id="Base Item-backto-Global Barcode" style="stroke:#181818;stroke-width:1.0;stroke-dasharray:7.0,7.0;"/><polygon fill="#181818" points="96.43,25.59,105.43,29.59,101.43,25.59,105.43,21.59,96.43,25.59" style="stroke:#181818;stroke-width:1.0;"/></g><!--reverse link Item to Bank Barcode--><g id="link_Item_Bank Barcode"><path d="M94.89,121.59 C106.44,121.59 114.63,121.59 128.61,121.59 " fill="none" id="Item-backto-Bank Barcode" style="stroke:#181818;stroke-width:1.0;stroke-dasharray:7.0,7.0;"/><polygon fill="#181818" points="88.89,121.59,97.89,125.59,93.89,121.59,97.89,117.59,88.89,121.59" style="stroke:#181818;stroke-width:1.0;"/></g><!--reverse link Global Barcode to Bank Barcode--><g id="link_Global Barcode_Bank Barcode"><path d="M188.5,49.71 C188.5,66.76 188.5,85.9 188.5,102.93 " fill="none" id="Global Barcode-backto-Bank Barcode" style="stroke:#181818;stroke-width:1.0;"/><polygon fill="#181818" points="188.5,43.71,184.5,52.71,188.5,48.71,192.5,52.71,188.5,43.71" style="stroke:#181818;stroke-width:1.0;"/><text fill="#000000" font-family="sans-serif" font-size="13" lengthAdjust="spacing" textLength="51" x="136.5" y="69.3869">Fallback</text></g><!--SRC=[NSqn3eCm30NGFQVm1UW1AgOCHSmT8mQJMe3Ys57YXTjtG6g1xKl_wV-MDYbOCKFKN5H8x6qx4rIAXh8mkVOZl0dPNWYqsghE1O-DO3JA4_HT1-68JtWXyumnNSK3mi0w8uF76lL3aml_ogEaKt6Jn_x5d7w-]--></g></svg>