<?xml version="1.0" encoding="UTF-8" standalone="no"?><svg xmlns="http://www.w3.org/2000/svg" xmlns:xlink="http://www.w3.org/1999/xlink" contentStyleType="text/css" height="145px" preserveAspectRatio="none" style="width:269px;height:145px;background:#FFFFFF;" version="1.1" viewBox="0 0 269 145" width="269px" zoomAndPan="magnify"><defs/><g><!--MD5=[7c8ed3e918941aadc35e778d43c16835]
entity Base Item--><g id="elem_Base Item"><rect fill="#F1F1F1" height="36.2969" rx="2.5" ry="2.5" style="stroke:#181818;stroke-width:0.5;" width="92" x="7" y="7"/><text fill="#000000" font-family="sans-serif" font-size="14" lengthAdjust="spacing" textLength="72" x="17" y="29.9951">Base Item</text></g><!--MD5=[ab59c2c83936ce77a0901c710a4c2b89]
entity Item--><g id="elem_Item"><rect fill="#F1F1F1" height="36.2969" rx="2.5" ry="2.5" style="stroke:#181818;stroke-width:0.5;" width="54" x="32" y="103"/><text fill="#000000" font-family="sans-serif" font-size="14" lengthAdjust="spacing" textLength="34" x="42" y="125.9951">Item</text></g><!--MD5=[a46926e0e89e651cf4d5992cfcc03d33]
entity Global Barcode--><g id="elem_Global Barcode"><rect fill="#F1F1F1" height="36.2969" rx="2.5" ry="2.5" style="stroke:#181818;stroke-width:0.5;" width="129" x="134.5" y="7"/><text fill="#000000" font-family="sans-serif" font-size="14" lengthAdjust="spacing" textLength="109" x="144.5" y="29.9951">Global Barcode</text></g><!--MD5=[65a9df7d7860786c727c4bab75e72373]
entity Bank Barcode--><g id="elem_Bank Barcode"><rect fill="#F1F1F1" height="36.2969" rx="2.5" ry="2.5" style="stroke:#181818;stroke-width:0.5;" width="119" x="133.5" y="103"/><text fill="#000000" font-family="sans-serif" font-size="14" lengthAdjust="spacing" textLength="99" x="143.5" y="125.9951">Bank Barcode</text></g><!--MD5=[1051fa75e9464cf5440b116ec9ecd0b3]
reverse link Base Item to Item--><g id="link_Base Item_Item"><path d="M59,48.0569 C59,48.0569 59,102.6977 59,102.6977 " fill="none" id="Base Item-backto-Item" style="stroke:#181818;stroke-width:1.0;"/><polygon fill="#181818" points="59,43.0569,55,52.0569,59,48.0569,63,52.0569,59,43.0569" style="stroke:#181818;stroke-width:1.0;"/><text fill="#000000" font-family="sans-serif" font-size="13" lengthAdjust="spacing" textLength="51" x="7" y="71.4442">Fallback</text></g><!--MD5=[8633b71d8ad21f6ab113f656e9eb578a]
reverse link Base Item to Global Barcode--><g id="link_Base Item_Global Barcode"><path d="M104.1953,25 C104.1953,25 134.431,25 134.431,25 " fill="none" id="Base Item-backto-Global Barcode" style="stroke:#181818;stroke-width:1.0;stroke-dasharray:7.0,7.0;"/><polygon fill="#181818" points="99.1953,25,108.1953,29,104.1953,25,108.1953,21,99.1953,25" style="stroke:#181818;stroke-width:1.0;"/></g><!--MD5=[6611c17df21b7c54b667c8db64b5a81d]
reverse link Item to Bank Barcode--><g id="link_Item_Bank Barcode"><path d="M91.1169,121 C91.1169,121 133.268,121 133.268,121 " fill="none" id="Item-backto-Bank Barcode" style="stroke:#181818;stroke-width:1.0;stroke-dasharray:7.0,7.0;"/><polygon fill="#181818" points="86.1169,121,95.1169,125,91.1169,121,95.1169,117,86.1169,121" style="stroke:#181818;stroke-width:1.0;"/></g><!--MD5=[20d151f8ec4af36bd02d7aef4e6e4a3e]
reverse link Global Barcode to Bank Barcode--><g id="link_Global Barcode_Bank Barcode"><path d="M193.5,48.0569 C193.5,48.0569 193.5,102.6977 193.5,102.6977 " fill="none" id="Global Barcode-backto-Bank Barcode" style="stroke:#181818;stroke-width:1.0;"/><polygon fill="#181818" points="193.5,43.0569,189.5,52.0569,193.5,48.0569,197.5,52.0569,193.5,43.0569" style="stroke:#181818;stroke-width:1.0;"/><text fill="#000000" font-family="sans-serif" font-size="13" lengthAdjust="spacing" textLength="51" x="141.5" y="71.4442">Fallback</text></g><!--MD5=[3b693908fee68762fcc444fbe6e4c5a1]
@startuml
skinparam componentStyle rectangle
skinparam linetype ortho

[Base Item] <- - [Item] : Fallback
[Base Item] <. [Global Barcode]
[Item] <. [Bank Barcode]
[Global Barcode] <- - [Bank Barcode] : Fallback
@enduml

PlantUML version 1.2022.13beta5(Unknown compile time)
(GPL source distribution)
Java Runtime: Java(TM) SE Runtime Environment
JVM: Java HotSpot(TM) 64-Bit Server VM
Default Encoding: UTF-8
Language: en
Country: US
--></g></svg>