<?xml version="1.0" encoding="us-ascii" standalone="no"?><svg xmlns="http://www.w3.org/2000/svg" xmlns:xlink="http://www.w3.org/1999/xlink" contentStyleType="text/css" height="145px" preserveAspectRatio="none" style="width:269px;height:145px;background:#FFFFFF;" version="1.1" viewBox="0 0 269 145" width="269px" zoomAndPan="magnify"><defs/><g><!--entity Base Item--><g id="elem_Base Item"><rect fill="#F1F1F1" height="36.2969" rx="2.5" ry="2.5" style="stroke:#181818;stroke-width:0.5;" width="92" x="7" y="7"/><text fill="#000000" font-family="sans-serif" font-size="14" lengthAdjust="spacing" textLength="72" x="17" y="29.9951">Base Item</text></g><!--entity Item--><g id="elem_Item"><rect fill="#F1F1F1" height="36.2969" rx="2.5" ry="2.5" style="stroke:#181818;stroke-width:0.5;" width="54" x="32" y="103"/><text fill="#000000" font-family="sans-serif" font-size="14" lengthAdjust="spacing" textLength="34" x="42" y="125.9951">Item</text></g><!--entity Global Barcode--><g id="elem_Global Barcode"><rect fill="#F1F1F1" height="36.2969" rx="2.5" ry="2.5" style="stroke:#181818;stroke-width:0.5;" width="129" x="134.5" y="7"/><text fill="#000000" font-family="sans-serif" font-size="14" lengthAdjust="spacing" textLength="109" x="144.5" y="29.9951">Global Barcode</text></g><!--entity Bank Barcode--><g id="elem_Bank Barcode"><rect fill="#F1F1F1" height="36.2969" rx="2.5" ry="2.5" style="stroke:#181818;stroke-width:0.5;" width="119" x="133.5" y="103"/><text fill="#000000" font-family="sans-serif" font-size="14" lengthAdjust="spacing" textLength="99" x="143.5" y="125.9951">Bank Barcode</text></g><!--reverse link Base Item to Item--><g id="link_Base Item_Item"><path d="M59,49.0569 C59,66.1115 59,85.5631 59,102.6977 " fill="none" id="Base Item-backto-Item" style="stroke:#181818;stroke-width:1.0;"/><polygon fill="#181818" points="59,43.0569,55,52.0569,59,48.0569,63,52.0569,59,43.0569" style="stroke:#181818;stroke-width:1.0;"/><text fill="#000000" font-family="sans-serif" font-size="13" lengthAdjust="spacing" textLength="51" x="7" y="68.9442">Fallback</text></g><!--reverse link Base Item to Global Barcode--><g id="link_Base Item_Global Barcode"><path d="M105.1953,25 C116.39,25 122.561,25 134.431,25 " fill="none" id="Base Item-backto-Global Barcode" style="stroke:#181818;stroke-width:1.0;stroke-dasharray:7.0,7.0;"/><polygon fill="#181818" points="99.1953,25,108.1953,29,104.1953,25,108.1953,21,99.1953,25" style="stroke:#181818;stroke-width:1.0;"/></g><!--reverse link Item to Bank Barcode--><g id="link_Item_Bank Barcode"><path d="M92.1169,121 C105.7294,121 116.795,121 133.268,121 " fill="none" id="Item-backto-Bank Barcode" style="stroke:#181818;stroke-width:1.0;stroke-dasharray:7.0,7.0;"/><polygon fill="#181818" points="86.1169,121,95.1169,125,91.1169,121,95.1169,117,86.1169,121" style="stroke:#181818;stroke-width:1.0;"/></g><!--reverse link Global Barcode to Bank Barcode--><g id="link_Global Barcode_Bank Barcode"><path d="M193.5,49.0569 C193.5,66.1115 193.5,85.5631 193.5,102.6977 " fill="none" id="Global Barcode-backto-Bank Barcode" style="stroke:#181818;stroke-width:1.0;"/><polygon fill="#181818" points="193.5,43.0569,189.5,52.0569,193.5,48.0569,197.5,52.0569,193.5,43.0569" style="stroke:#181818;stroke-width:1.0;"/><text fill="#000000" font-family="sans-serif" font-size="13" lengthAdjust="spacing" textLength="51" x="141.5" y="68.9442">Fallback</text></g><!--SRC=[NSqn3eCm30NGFQVm1UW1AgOCHSmT8mQJMe3Ys57YXTjtG6g1xKl_wV-MDYbOCKFKN5H8x6qx4rIAXh8mkVOZl0dPNWYqsghE1O-DO3JA4_HT1-68JtWXyumnNSK3mi0w8uF76lL3aml_ogEaKt6Jn_x5d7w-]--></g></svg>