<?xml version="1.0" encoding="us-ascii" standalone="no"?><svg xmlns="http://www.w3.org/2000/svg" xmlns:xlink="http://www.w3.org/1999/xlink" contentStyleType="text/css" height="434px" preserveAspectRatio="none" style="width:386px;height:434px;background:#FFFFFF;" version="1.1" viewBox="0 0 386 434" width="386px" zoomAndPan="magnify"><defs/><g><!--cluster humanessentials.app--><g id="cluster_humanessentials.app"><path d="M28.4555,135.0032 C35.6263,124.1033 45.172,120.2186 53.8741,133.386 C60.3732,121.9994 70.1155,121.0109 77.1611,132.8379 C84.3013,120.2523 93.0854,121.1249 101.3116,131.7057 C107.0043,121.6628 114.2819,119.8284 121.4822,130.2173 C127.0761,119.9151 137.5719,117.098 144.1401,129.2335 C150.8006,116.8127 162.4764,115.9466 169.3127,129.06 C174.9011,118.758 182.2373,118.8772 189.5907,127.1311 C198.0528,116.0606 208.1187,116.5184 215.4639,128.3906 C222.5081,118.9656 232.3584,121.4894 236.498,131.5294 C242.8153,120.4662 254.6568,117.5653 262.7084,129.5578 C270.4504,121.5324 276.8606,123.4501 282.0834,132.4283 C290.7435,120.1358 302.3962,120.4705 308.8649,134.6457 C315.4624,124.6838 325.5698,122.7589 331.9592,134.8635 C342.081,122.2005 352.4728,125.999 358.4921,139.09 C360.9588,138.8242 362.531,140.6042 361.5606,143.0212 C374.0914,147.8045 375.9172,160.302 365.011,168.2861 C376.6131,177.3699 376.7006,185.718 364.5796,194.4101 C375.0274,200.7766 376.1172,211.0706 366.286,218.8529 C376.8507,226.4938 379.2279,236.4129 366.1651,243.9398 C377.452,252.9046 375.5224,260.1339 365.0543,268.0985 C376.8411,282.5316 368.7186,297.7061 351.4921,299.68 C352.0078,299.3917 352.4359,299.5136 352.5141,300.1589 C347.7547,312.2106 339.763,312.52 331.4176,303.8011 C324.8195,314.6942 317.91,316.8336 309.0512,306.1438 C303.5474,319.1424 292.2336,320.7716 284.5593,308.2248 C276.5615,320.0019 264.892,319.0192 258.9736,306.0729 C254.3133,316.3374 246.9802,317.3097 239.5997,308.8941 C234.2633,322.5708 223.5608,321.2659 215.7985,311.3405 C208.7638,322.2086 197.0607,323.2782 190.037,311.3281 C184.6517,321.3725 175.2034,322.8937 167.9533,313.4403 C158.3629,322.2303 150.0215,320.5299 143.7293,309.4246 C134.783,320.1372 127.0853,319.0061 120.253,307.2189 C112.5213,316.2958 105.2051,319.0179 97.5559,307.1295 C89.6,317.5607 81.02,314.3167 76.447,303.7317 C68.7772,315.7451 57.3071,316.7858 50.9846,302.4308 C38.1368,314.1116 24.2974,309.2767 20.4921,292.68 C22.072,292.898 22.7258,294.1676 21.5532,295.4428 C11.4741,287.696 10.6862,277.4236 22.8902,270.8903 C11.0005,265.1653 6.8874,254.6311 19.0345,245.2864 C6.5834,237.0255 8.5705,227.957 19.5562,220.1833 C6,212.2556 10.4885,199.2586 21.8469,193.4671 C11.3202,187.2952 9.2361,175.3249 21.388,168.7322 C6.3448,154.9942 7.4872,139.9894 27.4921,132.09 C29.0863,132.5511 29.4483,133.6866 28.4555,135.0032 " fill="none" style="stroke:#181818;stroke-width:1.0;"/><text fill="#000000" font-family="sans-serif" font-size="14" font-weight="bold" lengthAdjust="spacing" textLength="167" x="105.9921" y="150.0851">humanessentials.app</text></g><!--entity Bank A--><g id="elem_Bank A"><rect fill="#F1F1F1" height="36.2969" rx="2.5" ry="2.5" style="stroke:#181818;stroke-width:0.5;" width="68" x="155.4921" y="159.09"/><text fill="#000000" font-family="sans-serif" font-size="14" lengthAdjust="spacing" textLength="48" x="165.4921" y="182.0851">Bank A</text></g><!--entity Partner A--><g id="elem_Partner A"><rect fill="#F1F1F1" height="36.2969" rx="2.5" ry="2.5" style="stroke:#181818;stroke-width:0.5;" width="83" x="266.9921" y="255.39"/><text fill="#000000" font-family="sans-serif" font-size="14" lengthAdjust="spacing" textLength="63" x="276.9921" y="278.3851">Partner A</text></g><!--entity Partner B--><g id="elem_Partner B"><rect fill="#F1F1F1" height="36.2969" rx="2.5" ry="2.5" style="stroke:#181818;stroke-width:0.5;" width="84" x="147.4921" y="255.39"/><text fill="#000000" font-family="sans-serif" font-size="14" lengthAdjust="spacing" textLength="64" x="157.4921" y="278.3851">Partner B</text></g><!--entity Partner C--><g id="elem_Partner C"><rect fill="#F1F1F1" height="36.2969" rx="2.5" ry="2.5" style="stroke:#181818;stroke-width:0.5;" width="84" x="28.4921" y="255.39"/><text fill="#000000" font-family="sans-serif" font-size="14" lengthAdjust="spacing" textLength="64" x="38.4921" y="278.3851">Partner C</text></g><!--entity Bank B--><g id="elem_Bank B"><rect fill="#F1F1F1" height="36.2969" rx="2.5" ry="2.5" style="stroke:#181818;stroke-width:0.5;" width="69" x="42.9921" y="159.09"/><text fill="#000000" font-family="sans-serif" font-size="14" lengthAdjust="spacing" textLength="49" x="52.9921" y="182.0851">Bank B</text></g><!--entity user_a--><g id="elem_user_a"><ellipse cx="189.4921" cy="22" fill="#F1F1F1" rx="16" ry="16" style="stroke:#181818;stroke-width:0.5;"/><path d="M189.4921,42 C193.4921,42 196.4921,42 200.4921,38 C208.4921,38 216.4921,46 216.4921,54 L216.4921,58 C216.4921,62 212.4921,66 208.4921,66 L170.4921,66 C166.4921,66 162.4921,62 162.4921,58 L162.4921,54 C162.4921,46 170.4921,38 178.4921,38 C182.4921,42 185.4921,42 189.4921,42 " fill="#F1F1F1" style="stroke:#181818;stroke-width:0.5;"/><text fill="#000000" font-family="sans-serif" font-size="14" lengthAdjust="spacing" textLength="45" x="162.9921" y="79.4951">User A</text><text fill="#000000" font-family="sans-serif" font-size="14" lengthAdjust="spacing" textLength="53" x="162.9921" y="95.792">(Admin)</text></g><!--entity user_b--><g id="elem_user_b"><ellipse cx="85.4921" cy="30.14" fill="#F1F1F1" rx="16" ry="16" style="stroke:#181818;stroke-width:0.5;"/><path d="M85.4921,50.14 C89.4921,50.14 92.4921,50.14 96.4921,46.14 C104.4921,46.14 112.4921,54.14 112.4921,62.14 L112.4921,66.14 C112.4921,70.14 108.4921,74.14 104.4921,74.14 L66.4921,74.14 C62.4921,74.14 58.4921,70.14 58.4921,66.14 L58.4921,62.14 C58.4921,54.14 66.4921,46.14 74.4921,46.14 C78.4921,50.14 81.4921,50.14 85.4921,50.14 " fill="#F1F1F1" style="stroke:#181818;stroke-width:0.5;"/><text fill="#000000" font-family="sans-serif" font-size="14" lengthAdjust="spacing" textLength="46" x="62.4921" y="87.6351">User B</text></g><!--entity user_c--><g id="elem_user_c"><ellipse cx="308.4921" cy="368.18" fill="#F1F1F1" rx="16" ry="16" style="stroke:#181818;stroke-width:0.5;"/><path d="M308.4921,388.18 C312.4921,388.18 315.4921,388.18 319.4921,384.18 C327.4921,384.18 335.4921,392.18 335.4921,400.18 L335.4921,404.18 C335.4921,408.18 331.4921,412.18 327.4921,412.18 L289.4921,412.18 C285.4921,412.18 281.4921,408.18 281.4921,404.18 L281.4921,400.18 C281.4921,392.18 289.4921,384.18 297.4921,384.18 C301.4921,388.18 304.4921,388.18 308.4921,388.18 " fill="#F1F1F1" style="stroke:#181818;stroke-width:0.5;"/><text fill="#000000" font-family="sans-serif" font-size="14" lengthAdjust="spacing" textLength="46" x="285.4921" y="425.6751">User C</text></g><!--entity user_d--><g id="elem_user_d"><ellipse cx="286.4921" cy="30.14" fill="#F1F1F1" rx="16" ry="16" style="stroke:#181818;stroke-width:0.5;"/><path d="M286.4921,50.14 C290.4921,50.14 293.4921,50.14 297.4921,46.14 C305.4921,46.14 313.4921,54.14 313.4921,62.14 L313.4921,66.14 C313.4921,70.14 309.4921,74.14 305.4921,74.14 L267.4921,74.14 C263.4921,74.14 259.4921,70.14 259.4921,66.14 L259.4921,62.14 C259.4921,54.14 267.4921,46.14 275.4921,46.14 C279.4921,50.14 282.4921,50.14 286.4921,50.14 " fill="#F1F1F1" style="stroke:#181818;stroke-width:0.5;"/><text fill="#000000" font-family="sans-serif" font-size="14" lengthAdjust="spacing" textLength="47" x="262.9921" y="87.6351">User D</text></g><!--link user_a to Bank A--><g id="link_user_a_Bank A"><path d="M189.4921,99.42 C189.4921,120.14 189.4921,137.33 189.4921,152.76 " fill="none" id="user_a-to-Bank A" style="stroke:#181818;stroke-width:1.0;"/><polygon fill="#181818" points="189.4921,158.76,193.4921,149.76,189.4921,153.76,185.4921,149.76,189.4921,158.76" style="stroke:#181818;stroke-width:1.0;"/></g><!--link user_b to Bank A--><g id="link_user_b_Bank A"><path d="M113.3621,86.24 C133.1021,109.57 154.9171,135.3591 170.8371,154.1791 " fill="none" id="user_b-to-Bank A" style="stroke:#181818;stroke-width:1.0;"/><polygon fill="#181818" points="174.7121,158.76,171.9535,149.3054,171.483,154.9426,165.8457,154.472,174.7121,158.76" style="stroke:#181818;stroke-width:1.0;"/></g><!--link Bank A to Partner A--><g id="link_Bank A_Partner A"><path d="M211.5921,195.75 C232.9721,212.69 260.4693,234.4839 281.7993,251.3839 " fill="none" id="Bank A-to-Partner A" style="stroke:#181818;stroke-width:1.0;"/><polygon fill="#181818" points="286.5021,255.11,281.932,246.3857,282.5831,252.0049,276.9639,252.6561,286.5021,255.11" style="stroke:#181818;stroke-width:1.0;"/></g><!--link Bank A to Partner B--><g id="link_Bank A_Partner B"><path d="M189.4921,195.53 C189.4921,212.44 189.4921,232.05 189.4921,249.03 " fill="none" id="Bank A-to-Partner B" style="stroke:#181818;stroke-width:1.0;"/><polygon fill="#181818" points="189.4921,255.03,193.4921,246.03,189.4921,250.03,185.4921,246.03,189.4921,255.03" style="stroke:#181818;stroke-width:1.0;"/></g><!--link Bank A to Partner C--><g id="link_Bank A_Partner C"><path d="M167.3921,195.75 C146.0121,212.69 118.5149,234.4839 97.1849,251.3839 " fill="none" id="Bank A-to-Partner C" style="stroke:#181818;stroke-width:1.0;"/><polygon fill="#181818" points="92.4821,255.11,102.0204,252.6561,96.4011,252.0049,97.0523,246.3857,92.4821,255.11" style="stroke:#181818;stroke-width:1.0;"/></g><!--link user_b to Bank B--><g id="link_user_b_Bank B"><path d="M83.0221,91.18 C81.5621,113.76 80.1519,135.3527 79.0119,152.8627 " fill="none" id="user_b-to-Bank B" style="stroke:#181818;stroke-width:1.0;"/><polygon fill="#181818" points="78.6221,158.85,83.1984,150.1289,78.947,153.8606,75.2153,149.6091,78.6221,158.85" style="stroke:#181818;stroke-width:1.0;"/></g><!--link Bank B to Partner C--><g id="link_Bank B_Partner C"><path d="M76.2121,195.53 C74.9521,212.44 73.4961,232.0665 72.2361,249.0465 " fill="none" id="Bank B-to-Partner C" style="stroke:#181818;stroke-width:1.0;"/><polygon fill="#181818" points="71.7921,255.03,76.4472,246.3507,72.1621,250.0437,68.4691,245.7587,71.7921,255.03" style="stroke:#181818;stroke-width:1.0;"/></g><!--reverse link Partner A to user_c--><g id="link_Partner A_user_c"><path d="M308.4921,297.97 C308.4921,313.65 308.4921,331.23 308.4921,351.26 " fill="none" id="Partner A-backto-user_c" style="stroke:#181818;stroke-width:1.0;"/><polygon fill="#181818" points="308.4921,291.97,304.4921,300.97,308.4921,296.97,312.4921,300.97,308.4921,291.97" style="stroke:#181818;stroke-width:1.0;"/></g><!--link user_d to Bank A--><g id="link_user_d_Bank A"><path d="M258.6921,88.52 C240.5621,111.51 221.379,135.8199 207.009,154.0299 " fill="none" id="user_d-to-Bank A" style="stroke:#181818;stroke-width:1.0;"/><polygon fill="#181818" points="203.2921,158.74,212.0075,154.1528,206.3895,154.8149,205.7274,149.197,203.2921,158.74" style="stroke:#181818;stroke-width:1.0;"/></g><!--link user_d to Partner A--><g id="link_user_d_Partner A"><path d="M290.2721,90.98 C295.0821,138.85 302.5741,213.5199 306.1241,248.9599 " fill="none" id="user_d-to-Partner A" style="stroke:#181818;stroke-width:1.0;"/><polygon fill="#181818" points="306.7221,254.93,309.8052,245.5761,306.2238,249.9549,301.845,246.3735,306.7221,254.93" style="stroke:#181818;stroke-width:1.0;"/></g><!--SRC=[TOzD2i8m48NtSugX6tLHZo2qUW11N6cHCHsqc4n2aY8YtjsVeALgTyFxFdXlmgaHHvuCAckS5PQuYXVDw5b5aeDc21-5LBG-OJfpi8O1HXtMZN2yE4Rhuz42l7JCre4z5biP5xLfP98X1MmVsOvwHjc1VG_CEw1wOD616a1fszQO7Lj3mY4y7cb8Xoavb-4L83LYdizmKvASiAXIjkzdyBvIl2GVvRc_6W3b49XNy5lmiSiXMs7UVXMd3_zChtystku0]--></g></svg>