<?xml version="1.0" encoding="UTF-8" standalone="no"?><svg xmlns="http://www.w3.org/2000/svg" xmlns:xlink="http://www.w3.org/1999/xlink" contentStyleType="text/css" height="436px" preserveAspectRatio="none" style="width:403px;height:436px;background:#FFFFFF;" version="1.1" viewBox="0 0 403 436" width="403px" zoomAndPan="magnify"><defs/><g><!--MD5=[d529b433d82a876f0addfca393d1ca18]
cluster humanessentials.app--><g id="cluster_humanessentials.app"><path d="M31.4482,136.9378 C36.8049,127.8668 46.9822,124.7655 53.0447,136.1943 C61.0972,123.475 70.2205,123.9451 78.0503,136.4153 C83.039,123.296 92.3367,125.0928 100.409,133.1614 C106.784,120.0625 118.8432,123.0825 124.9758,133.4156 C134.1048,120.5415 142.535,118.5665 152.1467,132.9341 C158.5533,120.9932 168.2982,121.1836 176.6141,130.7634 C182.7023,119.6242 192.3315,120.8448 198.5825,130.592 C205.0038,121.1829 215.6818,122.7686 220.4839,132.4497 C228.149,122.475 237.9036,120.4856 245.0551,133.0106 C253.8501,118.1871 263.1769,118.3924 272.2264,132.7739 C279.2534,121.7118 288.9368,122.8152 295.842,132.9098 C304.3085,124.4766 311.9098,124.205 317.1009,136.3015 C323.4644,123.7292 332.9082,124.46 341.2879,134.1067 C353.9476,122.7277 364.7885,123.1969 371.3479,140.5 C371.8822,140.6688 372.0284,141.1367 371.6415,141.5605 C389.0893,146.6144 389.4285,155.7623 379.498,168.7324 C393.5435,175.4465 393.2552,184.1577 382.5061,193.8421 C394.9848,199.6658 396.9288,207.7851 386.7318,217.6359 C395.8089,229.7007 394.2617,238.4176 379.519,243.9545 C389.7676,252.3528 389.6087,264.5349 376.1182,269.8109 C386.8737,285.7507 380.8072,294.998 364.3479,300.5 C365.7115,301.1585 365.9789,302.39 364.5394,303.2441 C357.5261,311.9244 351.0443,311.9187 344.5734,302.641 C335.86,317.4885 324.3572,315.9164 316.883,301.4695 C310.4942,312.3357 300.0286,310.869 293.7305,301.3664 C287.65,312.1357 279.1888,312.1506 272.6634,301.8103 C264.4777,313.4766 256.2757,315.3085 247.7272,302.1752 C241.9293,316.8393 229.204,317.3545 220.8204,304.7243 C214.4019,316.5383 204.8156,316.6639 198.3246,304.7932 C191.6508,316.663 180.6037,314.5199 174.6057,304.0748 C166.1901,315.1149 158.7116,314.2433 152.032,302.3649 C145.0898,311.5396 135.1942,314.2132 128.903,301.6716 C120.5393,315.6573 111.1545,315.0972 102.2155,302.2437 C95.9278,311.8033 87.593,312.9287 80.7539,302.846 C72.8767,314.2377 61.014,317.784 53.0594,302.9277 C40.3812,315.9424 24.5723,312.2845 21.3479,293.5 C23.2365,293.5795 23.6263,294.5606 22.7404,296.1166 C10.2869,288.7655 9.0148,277.2659 22.4258,269.6078 C11.5995,261.9876 13.0764,252.3415 24.3537,246.5711 C11.1002,240.7494 10.9505,228.644 21.9248,220.5599 C7.3008,212.1101 8.6698,200.2037 22.4322,192.2629 C11.7679,185.1071 10.015,174.4922 21.9698,166.9235 C6,152.8813 10.7661,141.1398 28.3479,133.5 C30.9244,132.975 32.1269,134.5271 31.4482,136.9378 " fill="none" style="stroke:#181818;stroke-width:1.0;"/><text fill="#000000" font-family="sans-serif" font-size="14" font-weight="bold" lengthAdjust="spacing" textLength="173" x="109.8479" y="151.4951">humanessentials.app</text></g><!--MD5=[eb5686b57e425e26339f9c393997ef46]
entity Bank A--><g id="elem_Bank A"><rect fill="#F1F1F1" height="36.2969" rx="2.5" ry="2.5" style="stroke:#181818;stroke-width:0.5;" width="70" x="161.3479" y="160.5"/><text fill="#000000" font-family="sans-serif" font-size="14" lengthAdjust="spacing" textLength="50" x="171.3479" y="183.4951">Bank A</text></g><!--MD5=[9d9404db4c0a0c35dd43550828422a1d]
entity Partner A--><g id="elem_Partner A"><rect fill="#F1F1F1" height="36.2969" rx="2.5" ry="2.5" style="stroke:#181818;stroke-width:0.5;" width="88" x="275.3479" y="256.5"/><text fill="#000000" font-family="sans-serif" font-size="14" lengthAdjust="spacing" textLength="68" x="285.3479" y="279.4951">Partner A</text></g><!--MD5=[86583435f03fe8e571e708e69cda2dda]
entity Partner B--><g id="elem_Partner B"><rect fill="#F1F1F1" height="36.2969" rx="2.5" ry="2.5" style="stroke:#181818;stroke-width:0.5;" width="88" x="152.3479" y="256.5"/><text fill="#000000" font-family="sans-serif" font-size="14" lengthAdjust="spacing" textLength="68" x="162.3479" y="279.4951">Partner B</text></g><!--MD5=[d3eaa945430fa68626db745dfdf179d7]
entity Partner C--><g id="elem_Partner C"><rect fill="#F1F1F1" height="36.2969" rx="2.5" ry="2.5" style="stroke:#181818;stroke-width:0.5;" width="88" x="29.3479" y="256.5"/><text fill="#000000" font-family="sans-serif" font-size="14" lengthAdjust="spacing" textLength="68" x="39.3479" y="279.4951">Partner C</text></g><!--MD5=[d0b43670f4bfd43302db6b49a9d5d727]
entity Bank B--><g id="elem_Bank B"><rect fill="#F1F1F1" height="36.2969" rx="2.5" ry="2.5" style="stroke:#181818;stroke-width:0.5;" width="70" x="47.3479" y="160.5"/><text fill="#000000" font-family="sans-serif" font-size="14" lengthAdjust="spacing" textLength="50" x="57.3479" y="183.4951">Bank B</text></g><!--MD5=[a40b4e8b3a69138f6b839ae57f59dbe1]
entity user_a--><g id="elem_user_a"><ellipse cx="196.3479" cy="22" fill="#F1F1F1" rx="16" ry="16" style="stroke:#181818;stroke-width:1.5;"/><path d="M196.3479,42 C200.3479,42 203.3479,42 207.3479,38 C215.3479,38 223.3479,46 223.3479,54 L223.3479,58 C223.3479,62 219.3479,66 215.3479,66 L177.3479,66 C173.3479,66 169.3479,62 169.3479,58 L169.3479,54 C169.3479,46 177.3479,38 185.3479,38 C189.3479,42 192.3479,42 196.3479,42 " fill="#F1F1F1" style="stroke:#181818;stroke-width:1.5;"/><text fill="#000000" font-family="sans-serif" font-size="14" lengthAdjust="spacing" textLength="45" x="168.3479" y="80.4951">User A</text><text fill="#000000" font-family="sans-serif" font-size="14" lengthAdjust="spacing" textLength="56" x="168.3479" y="96.792">(Admin)</text></g><!--MD5=[007960cb7fc3eaecc4fe0a216fea83c9]
entity user_b--><g id="elem_user_b"><ellipse cx="93.3479" cy="30.5" fill="#F1F1F1" rx="16" ry="16" style="stroke:#181818;stroke-width:1.5;"/><path d="M93.3479,50.5 C97.3479,50.5 100.3479,50.5 104.3479,46.5 C112.3479,46.5 120.3479,54.5 120.3479,62.5 L120.3479,66.5 C120.3479,70.5 116.3479,74.5 112.3479,74.5 L74.3479,74.5 C70.3479,74.5 66.3479,70.5 66.3479,66.5 L66.3479,62.5 C66.3479,54.5 74.3479,46.5 82.3479,46.5 C86.3479,50.5 89.3479,50.5 93.3479,50.5 " fill="#F1F1F1" style="stroke:#181818;stroke-width:1.5;"/><text fill="#000000" font-family="sans-serif" font-size="14" lengthAdjust="spacing" textLength="45" x="70.8479" y="88.9951">User B</text></g><!--MD5=[eb2873226f06c79f3c5bdba0866040df]
entity user_c--><g id="elem_user_c"><ellipse cx="319.3479" cy="370" fill="#F1F1F1" rx="16" ry="16" style="stroke:#181818;stroke-width:1.5;"/><path d="M319.3479,390 C323.3479,390 326.3479,390 330.3479,386 C338.3479,386 346.3479,394 346.3479,402 L346.3479,406 C346.3479,410 342.3479,414 338.3479,414 L300.3479,414 C296.3479,414 292.3479,410 292.3479,406 L292.3479,402 C292.3479,394 300.3479,386 308.3479,386 C312.3479,390 315.3479,390 319.3479,390 " fill="#F1F1F1" style="stroke:#181818;stroke-width:1.5;"/><text fill="#000000" font-family="sans-serif" font-size="14" lengthAdjust="spacing" textLength="45" x="296.8479" y="428.4951">User C</text></g><!--MD5=[13a9007eb7cc97696f2a4bd54fe41a6c]
entity user_d--><g id="elem_user_d"><ellipse cx="296.3479" cy="30.5" fill="#F1F1F1" rx="16" ry="16" style="stroke:#181818;stroke-width:1.5;"/><path d="M296.3479,50.5 C300.3479,50.5 303.3479,50.5 307.3479,46.5 C315.3479,46.5 323.3479,54.5 323.3479,62.5 L323.3479,66.5 C323.3479,70.5 319.3479,74.5 315.3479,74.5 L277.3479,74.5 C273.3479,74.5 269.3479,70.5 269.3479,66.5 L269.3479,62.5 C269.3479,54.5 277.3479,46.5 285.3479,46.5 C289.3479,50.5 292.3479,50.5 296.3479,50.5 " fill="#F1F1F1" style="stroke:#181818;stroke-width:1.5;"/><text fill="#000000" font-family="sans-serif" font-size="14" lengthAdjust="spacing" textLength="46" x="273.3479" y="88.9951">User D</text></g><!--MD5=[13b1309435dcd9d5737d1ee22fa9b0ed]
link user_a to Bank A--><g id="link_user_a_Bank A"><path d="M196.3479,100.733 C196.3479,119.385 196.3479,139.931 196.3479,155.07 " fill="none" id="user_a-to-Bank A" style="stroke:#181818;stroke-width:1.0;"/><polygon fill="#181818" points="196.3479,160.39,200.3479,151.39,196.3479,155.39,192.3479,151.39,196.3479,160.39" style="stroke:#181818;stroke-width:1.0;"/></g><!--MD5=[886eb995e8de7bc88315e36319a26ae4]
link user_b to Bank A--><g id="link_user_b_Bank A"><path d="M122.0389,88.041 C140.1909,109.893 163.0789,137.448 178.6239,156.162 " fill="none" id="user_b-to-Bank A" style="stroke:#181818;stroke-width:1.0;"/><polygon fill="#181818" points="182.0199,160.25,179.3481,150.7705,178.8259,156.4032,173.1932,155.8809,182.0199,160.25" style="stroke:#181818;stroke-width:1.0;"/></g><!--MD5=[818d58794c1da310be4354ec8192ae02]
link Bank A to Partner A--><g id="link_Bank A_Partner A"><path d="M218.6219,196.523 C239.4779,212.461 270.6609,236.292 292.7999,253.211 " fill="none" id="Bank A-to-Partner A" style="stroke:#181818;stroke-width:1.0;"/><polygon fill="#181818" points="296.8239,256.286,292.1032,247.6422,292.8516,253.2493,287.2445,253.9978,296.8239,256.286" style="stroke:#181818;stroke-width:1.0;"/></g><!--MD5=[90134e521453825728e8476174369ab1]
link Bank A to Partner B--><g id="link_Bank A_Partner B"><path d="M196.3479,196.741 C196.3479,211.979 196.3479,234.307 196.3479,250.958 " fill="none" id="Bank A-to-Partner B" style="stroke:#181818;stroke-width:1.0;"/><polygon fill="#181818" points="196.3479,256.368,200.3479,247.368,196.3479,251.368,192.3479,247.368,196.3479,256.368" style="stroke:#181818;stroke-width:1.0;"/></g><!--MD5=[b203e5544c86468c176383786466801a]
link Bank A to Partner C--><g id="link_Bank A_Partner C"><path d="M174.0739,196.523 C153.2179,212.461 122.0349,236.292 99.8959,253.211 " fill="none" id="Bank A-to-Partner C" style="stroke:#181818;stroke-width:1.0;"/><polygon fill="#181818" points="95.8722,256.286,105.4515,253.9978,99.8444,253.2493,100.5929,247.6422,95.8722,256.286" style="stroke:#181818;stroke-width:1.0;"/></g><!--MD5=[a463ebd5fdc9ecdae5bfb56037fc5c86]
link user_b to Bank B--><g id="link_user_b_Bank B"><path d="M89.9277,92.055 C88.0873,112.801 85.8826,137.655 84.3266,155.195 " fill="none" id="user_b-to-Bank B" style="stroke:#181818;stroke-width:1.0;"/><polygon fill="#181818" points="83.8657,160.391,88.6471,151.7807,84.3085,155.4107,80.6785,151.0721,83.8657,160.391" style="stroke:#181818;stroke-width:1.0;"/></g><!--MD5=[ddae6e51f0527536f1b90be6ca7d7b9d]
link Bank B to Partner C--><g id="link_Bank B_Partner C"><path d="M80.6972,196.741 C79.2255,212.112 77.0632,234.696 75.4648,251.391 " fill="none" id="Bank B-to-Partner C" style="stroke:#181818;stroke-width:1.0;"/><polygon fill="#181818" points="74.9882,256.368,79.8288,247.7908,75.4653,251.3908,71.8653,247.0274,74.9882,256.368" style="stroke:#181818;stroke-width:1.0;"/></g><!--MD5=[fc67e957c7bad148044abde6b2ff5f89]
reverse link Partner A to user_c--><g id="link_Partner A_user_c"><path d="M319.3479,297.562 C319.3479,313.036 319.3479,334.1328 319.3479,352.3645 " fill="none" id="Partner A-backto-user_c" style="stroke:#181818;stroke-width:1.0;"/><polygon fill="#181818" points="319.3479,292.542,315.3479,301.542,319.3479,297.542,323.3479,301.542,319.3479,292.542" style="stroke:#181818;stroke-width:1.0;"/></g><!--MD5=[a6d3e078ff6203f2da04ea6c23f41238]
link user_d to Bank A--><g id="link_user_d_Bank A"><path d="M267.6919,89.033 C250.1999,110.723 228.4179,137.734 213.5529,156.165 " fill="none" id="user_d-to-Bank A" style="stroke:#181818;stroke-width:1.0;"/><polygon fill="#181818" points="210.3039,160.194,219.0685,155.7017,213.4437,156.3028,212.8426,150.678,210.3039,160.194" style="stroke:#181818;stroke-width:1.0;"/></g><!--MD5=[8f991931f0abc38d5560a690ec4368de]
link user_d to Partner A--><g id="link_user_d_Partner A"><path d="M300.3809,92.073 C305.1939,138.116 313.0829,213.573 316.9949,250.997 " fill="none" id="user_d-to-Partner A" style="stroke:#181818;stroke-width:1.0;"/><polygon fill="#181818" points="317.5429,256.234,320.5852,246.8668,317.0229,251.2611,312.6286,247.6988,317.5429,256.234" style="stroke:#181818;stroke-width:1.0;"/></g><!--MD5=[92cdac32f7c805a6998444fa9c7dd472]
@startuml
skinparam componentStyle rectangle
skinparam actorStyle awesome

'skinparam linetype ortho

actor "User A\n(Admin)" as user_a
actor "User B" as user_b
actor "User C" as user_c
actor "User D" as user_d

cloud "humanessentials.app" {

user_a - -> [Bank A]
user_b - -> [Bank A]

[Bank A] - -> [Partner A]
[Bank A] - -> [Partner B]
[Bank A] - -> [Partner C]

user_b - -> [Bank B]
[Bank B] - -> [Partner C]

user_c -u-> [Partner A]
user_d - -> [Bank A]
user_d - -> [Partner A]
}
@enduml

@startuml
skinparam componentStyle rectangle
skinparam actorStyle awesome


actor "User A\n(Admin)" as user_a
actor "User B" as user_b
actor "User C" as user_c
actor "User D" as user_d

cloud "humanessentials.app" {

user_a - -> [Bank A]
user_b - -> [Bank A]

[Bank A] - -> [Partner A]
[Bank A] - -> [Partner B]
[Bank A] - -> [Partner C]

user_b - -> [Bank B]
[Bank B] - -> [Partner C]

user_c -u-> [Partner A]
user_d - -> [Bank A]
user_d - -> [Partner A]
}
@enduml

PlantUML version 1.2022.13beta5(Unknown compile time)
(GPL source distribution)
Java Runtime: Java(TM) SE Runtime Environment
JVM: Java HotSpot(TM) 64-Bit Server VM
Default Encoding: UTF-8
Language: en
Country: US
--></g></svg>