<?xml version="1.0" encoding="us-ascii" standalone="no"?><svg xmlns="http://www.w3.org/2000/svg" xmlns:xlink="http://www.w3.org/1999/xlink" contentStyleType="text/css" height="191px" preserveAspectRatio="none" style="width:287px;height:191px;background:#FFFFFF;" version="1.1" viewBox="0 0 287 191" width="287px" zoomAndPan="magnify"><defs/><g><line style="stroke:#181818;stroke-width:0.5;stroke-dasharray:5.0,5.0;" x1="37" x2="37" y1="36.2969" y2="156.6953"/><line style="stroke:#181818;stroke-width:0.5;stroke-dasharray:5.0,5.0;" x1="166.5" x2="166.5" y1="36.2969" y2="156.6953"/><rect fill="#E2E2F0" height="30.2969" rx="2.5" ry="2.5" style="stroke:#181818;stroke-width:0.5;" width="64" x="5" y="5"/><text fill="#000000" font-family="sans-serif" font-size="14" lengthAdjust="spacing" textLength="50" x="12" y="24.9951">Partner</text><rect fill="#E2E2F0" height="30.2969" rx="2.5" ry="2.5" style="stroke:#181818;stroke-width:0.5;" width="64" x="5" y="155.6953"/><text fill="#000000" font-family="sans-serif" font-size="14" lengthAdjust="spacing" textLength="50" x="12" y="175.6904">Partner</text><rect fill="#E2E2F0" height="30.2969" rx="2.5" ry="2.5" style="stroke:#181818;stroke-width:0.5;" width="49" x="142.5" y="5"/><text fill="#000000" font-family="sans-serif" font-size="14" lengthAdjust="spacing" textLength="35" x="149.5" y="24.9951">Bank</text><rect fill="#E2E2F0" height="30.2969" rx="2.5" ry="2.5" style="stroke:#181818;stroke-width:0.5;" width="49" x="142.5" y="155.6953"/><text fill="#000000" font-family="sans-serif" font-size="14" lengthAdjust="spacing" textLength="35" x="149.5" y="175.6904">Bank</text><polygon fill="#181818" points="155,63.4297,165,67.4297,155,71.4297,159,67.4297" style="stroke:#181818;stroke-width:1.0;"/><line style="stroke:#181818;stroke-width:1.0;" x1="37" x2="161" y1="67.4297" y2="67.4297"/><text fill="#000000" font-family="sans-serif" font-size="13" lengthAdjust="spacing" textLength="99" x="44" y="62.3638">Submit request</text><line style="stroke:#181818;stroke-width:1.0;" x1="167" x2="209" y1="96.5625" y2="96.5625"/><line style="stroke:#181818;stroke-width:1.0;" x1="209" x2="209" y1="96.5625" y2="109.5625"/><line style="stroke:#181818;stroke-width:1.0;" x1="168" x2="209" y1="109.5625" y2="109.5625"/><polygon fill="#181818" points="178,105.5625,168,109.5625,178,113.5625,174,109.5625" style="stroke:#181818;stroke-width:1.0;"/><text fill="#000000" font-family="sans-serif" font-size="13" lengthAdjust="spacing" textLength="106" x="174" y="91.4966">Build distribution</text><polygon fill="#181818" points="48,134.6953,38,138.6953,48,142.6953,44,138.6953" style="stroke:#181818;stroke-width:1.0;"/><line style="stroke:#181818;stroke-width:1.0;" x1="42" x2="166" y1="138.6953" y2="138.6953"/><text fill="#000000" font-family="sans-serif" font-size="13" lengthAdjust="spacing" textLength="106" x="54" y="133.6294">Fulfill distribution</text><!--SRC=[LOmx3e0W44HxJh4Ny08K5XJM9fu019EDY0YxznUK-AbcCkzbeaw4CqOT2CRIWqkWCyIxYlZ1IeUrCbDIY6P0rr-3X8dDXWJ97UmoYJg-K35w2nOp9JHCk8T7Q4SI1lOBUl-pJW00]--></g></svg>