<?xml version="1.0" encoding="UTF-8" standalone="no"?><svg xmlns="http://www.w3.org/2000/svg" xmlns:xlink="http://www.w3.org/1999/xlink" contentStyleType="text/css" height="257px" preserveAspectRatio="none" style="width:577px;height:257px;background:#FFFFFF;" version="1.1" viewBox="0 0 577 257" width="577px" zoomAndPan="magnify"><defs/><g><!--MD5=[1227421aeba4bbe741b7452f03bd54a3]
cluster Bank--><g id="cluster_Bank"><rect fill="none" height="183" rx="2.5" ry="2.5" style="stroke:#181818;stroke-width:1.0;" width="251" x="158" y="68"/><text fill="#000000" font-family="sans-serif" font-size="14" font-weight="bold" lengthAdjust="spacing" textLength="40" x="263.5" y="82.9951">Bank</text></g><!--MD5=[f50342722640e20e656bc6160b7d8a8f]
cluster Partner--><g id="cluster_Partner"><rect fill="none" height="87" rx="2.5" ry="2.5" style="stroke:#181818;stroke-width:1.0;" width="138" x="433" y="68"/><text fill="#000000" font-family="sans-serif" font-size="14" font-weight="bold" lengthAdjust="spacing" textLength="61" x="471.5" y="82.9951">Partner</text></g><!--MD5=[c3a82e844d23968b7ce72d3a5f9fb6d3]
entity Inventory--><g id="elem_Inventory"><rect fill="#F1F1F1" height="36.2969" rx="2.5" ry="2.5" style="stroke:#181818;stroke-width:0.5;" width="89" x="242.5" y="103"/><text fill="#000000" font-family="sans-serif" font-size="14" lengthAdjust="spacing" textLength="69" x="252.5" y="125.9951">Inventory</text></g><!--MD5=[9bf3b22f7eb7794160c3997198ab9618]
entity Adjustment--><g id="elem_Adjustment"><rect fill="#F1F1F1" height="36.2969" rx="2.5" ry="2.5" style="stroke:#181818;stroke-width:0.5;" width="104" x="174" y="199"/><text fill="#000000" font-family="sans-serif" font-size="14" lengthAdjust="spacing" textLength="84" x="184" y="221.9951">Adjustment</text></g><!--MD5=[4156da6071bf92001fefd15cc451a321]
entity Transfer--><g id="elem_Transfer"><rect fill="#F1F1F1" height="36.2969" rx="2.5" ry="2.5" style="stroke:#181818;stroke-width:0.5;" width="80" x="313" y="199"/><text fill="#000000" font-family="sans-serif" font-size="14" lengthAdjust="spacing" textLength="60" x="323" y="221.9951">Transfer</text></g><!--MD5=[ceee3b82fc31ccb679fa80752de3782f]
entity Distribution--><g id="elem_Distribution"><rect fill="#F1F1F1" height="36.2969" rx="2.5" ry="2.5" style="stroke:#181818;stroke-width:0.5;" width="106" x="449" y="103"/><text fill="#000000" font-family="sans-serif" font-size="14" lengthAdjust="spacing" textLength="86" x="459" y="125.9951">Distribution</text></g><!--MD5=[4a08bf92db6959de21c2531e3d3a7543]
entity Purchase--><g id="elem_Purchase"><rect fill="#F1F1F1" height="36.2969" rx="2.5" ry="2.5" style="stroke:#181818;stroke-width:0.5;" width="84" x="7" y="7"/><text fill="#000000" font-family="sans-serif" font-size="14" lengthAdjust="spacing" textLength="64" x="17" y="29.9951">Purchase</text></g><!--MD5=[8dd9ee0f844f52d7f0b3f942cacc48dd]
entity Intake--><g id="elem_Intake"><rect fill="#F1F1F1" height="36.2969" rx="2.5" ry="2.5" style="stroke:#181818;stroke-width:0.5;" width="66" x="76" y="103"/><text fill="#000000" font-family="sans-serif" font-size="14" lengthAdjust="spacing" textLength="46" x="86" y="125.9951">Intake</text></g><!--MD5=[3a15f13e3b1234e64700acb9e3b3e8a8]
entity Donation--><g id="elem_Donation"><rect fill="#F1F1F1" height="36.2969" rx="2.5" ry="2.5" style="stroke:#181818;stroke-width:0.5;" width="86" x="126" y="7"/><text fill="#000000" font-family="sans-serif" font-size="14" lengthAdjust="spacing" textLength="66" x="136" y="29.9951">Donation</text></g><!--MD5=[4123fcd7795bcaf721e2249b804eb70c]
entity Recipient--><g id="elem_Recipient"><rect fill="#F1F1F1" height="36.2969" rx="2.5" ry="2.5" style="stroke:#181818;stroke-width:0.5;" width="90" x="457" y="199"/><text fill="#000000" font-family="sans-serif" font-size="14" lengthAdjust="spacing" textLength="70" x="467" y="221.9951">Recipient</text></g><!--MD5=[074430279a0a9f91208af4b036dcbf51]
link Purchase to Intake--><g id="link_Purchase_Intake"><path d="M83.5,43.057 C83.5,43.057 83.5,97.698 83.5,97.698 " fill="none" id="Purchase-to-Intake" style="stroke:#181818;stroke-width:1.0;"/><polygon fill="#181818" points="83.5,102.698,87.5,93.698,83.5,97.698,79.5,93.698,83.5,102.698" style="stroke:#181818;stroke-width:1.0;"/></g><!--MD5=[76b39e26d3632d5fd1d4e6ceafb5bafa]
link Donation to Intake--><g id="link_Donation_Intake"><path d="M134,43.057 C134,43.057 134,97.698 134,97.698 " fill="none" id="Donation-to-Intake" style="stroke:#181818;stroke-width:1.0;"/><polygon fill="#181818" points="134,102.698,138,93.698,134,97.698,130,93.698,134,102.698" style="stroke:#181818;stroke-width:1.0;"/></g><!--MD5=[643041ef7f1c42569f30e9f52c7c6220]
link Inventory to Adjustment--><g id="link_Inventory_Adjustment"><path d="M260.25,139.057 C260.25,139.057 260.25,193.6977 260.25,193.6977 " fill="none" id="Inventory-to-Adjustment" style="stroke:#181818;stroke-width:1.0;"/><polygon fill="#181818" points="260.25,198.6977,264.25,189.6977,260.25,193.6977,256.25,189.6977,260.25,198.6977" style="stroke:#181818;stroke-width:1.0;"/></g><!--MD5=[6ab8a6415b24c1fdc1b1456da8999392]
link Inventory to Transfer--><g id="link_Inventory_Transfer"><path d="M322.25,139.057 C322.25,139.057 322.25,193.6977 322.25,193.6977 " fill="none" id="Inventory-to-Transfer" style="stroke:#181818;stroke-width:1.0;"/><polygon fill="#181818" points="322.25,198.6977,326.25,189.6977,322.25,193.6977,318.25,189.6977,322.25,198.6977" style="stroke:#181818;stroke-width:1.0;"/></g><!--MD5=[d329248e3bd629ebdcae1edadee8f64d]
link Intake to Inventory--><g id="link_Intake_Inventory"><path d="M142.063,121 C142.063,121 237.366,121 237.366,121 " fill="none" id="Intake-to-Inventory" style="stroke:#181818;stroke-width:1.0;"/><polygon fill="#181818" points="242.366,121,233.366,117,237.366,121,233.366,125,242.366,121" style="stroke:#181818;stroke-width:1.0;"/></g><!--MD5=[e8e5c7de64f3e297703f06dcf3fb9c60]
link Inventory to Distribution--><g id="link_Inventory_Distribution"><path d="M331.548,121 C331.548,121 443.77,121 443.77,121 " fill="none" id="Inventory-to-Distribution" style="stroke:#181818;stroke-width:1.0;"/><polygon fill="#181818" points="448.77,121,439.77,117,443.77,121,439.77,125,448.77,121" style="stroke:#181818;stroke-width:1.0;"/></g><!--MD5=[07ae58daa9348388c585bd083d2e07e0]
link Distribution to Recipient--><g id="link_Distribution_Recipient"><path d="M502,139.057 C502,139.057 502,193.6977 502,193.6977 " fill="none" id="Distribution-to-Recipient" style="stroke:#181818;stroke-width:1.0;"/><polygon fill="#181818" points="502,198.6977,506,189.6977,502,193.6977,498,189.6977,502,198.6977" style="stroke:#181818;stroke-width:1.0;"/></g><!--MD5=[5a9df4036797a161a69530d10427e018]
@startuml
skinparam componentStyle rectangle
skinparam linetype ortho

[Purchase] - -> [Intake]
[Donation] - -> [Intake]

rectangle "Bank" {
  [Inventory] - -> [Adjustment]
  [Inventory] - -> [Transfer]
}

rectangle "Partner" {
  [Distribution]
}

[Intake] -> [Inventory]
[Inventory] -> [Distribution]
[Distribution] - -> [Recipient]
@enduml

PlantUML version 1.2022.13beta5(Unknown compile time)
(GPL source distribution)
Java Runtime: Java(TM) SE Runtime Environment
JVM: Java HotSpot(TM) 64-Bit Server VM
Default Encoding: UTF-8
Language: en
Country: US
--></g></svg>