<?xml version="1.0" encoding="us-ascii" standalone="no"?><svg xmlns="http://www.w3.org/2000/svg" xmlns:xlink="http://www.w3.org/1999/xlink" contentStyleType="text/css" height="257px" preserveAspectRatio="none" style="width:560px;height:257px;background:#FFFFFF;" version="1.1" viewBox="0 0 560 257" width="560px" zoomAndPan="magnify"><defs/><g><!--cluster Bank--><g id="cluster_Bank"><rect fill="none" height="183.59" rx="2.5" ry="2.5" style="stroke:#181818;stroke-width:1.0;" width="243" x="155.5" y="68.3"/><text fill="#000000" font-family="sans-serif" font-size="14" font-weight="bold" lengthAdjust="spacing" textLength="38" x="258" y="83.2951">Bank</text></g><!--cluster Partner--><g id="cluster_Partner"><rect fill="none" height="87.29" rx="2.5" ry="2.5" style="stroke:#181818;stroke-width:1.0;" width="132" x="422.5" y="68.3"/><text fill="#000000" font-family="sans-serif" font-size="14" font-weight="bold" lengthAdjust="spacing" textLength="59" x="459" y="83.2951">Partner</text></g><!--entity Inventory--><g id="elem_Inventory"><rect fill="#F1F1F1" height="36.2969" rx="2.5" ry="2.5" style="stroke:#181818;stroke-width:0.5;" width="83" x="239" y="103.3"/><text fill="#000000" font-family="sans-serif" font-size="14" lengthAdjust="spacing" textLength="63" x="249" y="126.2951">Inventory</text></g><!--entity Adjustment--><g id="elem_Adjustment"><rect fill="#F1F1F1" height="36.2969" rx="2.5" ry="2.5" style="stroke:#181818;stroke-width:0.5;" width="99" x="172" y="199.59"/><text fill="#000000" font-family="sans-serif" font-size="14" lengthAdjust="spacing" textLength="79" x="182" y="222.5851">Adjustment</text></g><!--entity Transfer--><g id="elem_Transfer"><rect fill="#F1F1F1" height="36.2969" rx="2.5" ry="2.5" style="stroke:#181818;stroke-width:0.5;" width="77" x="306" y="199.59"/><text fill="#000000" font-family="sans-serif" font-size="14" lengthAdjust="spacing" textLength="57" x="316" y="222.5851">Transfer</text></g><!--entity Distribution--><g id="elem_Distribution"><rect fill="#F1F1F1" height="36.2969" rx="2.5" ry="2.5" style="stroke:#181818;stroke-width:0.5;" width="99" x="439" y="103.3"/><text fill="#000000" font-family="sans-serif" font-size="14" lengthAdjust="spacing" textLength="79" x="449" y="126.2951">Distribution</text></g><!--entity Purchase--><g id="elem_Purchase"><rect fill="#F1F1F1" height="36.2969" rx="2.5" ry="2.5" style="stroke:#181818;stroke-width:0.5;" width="85" x="7" y="7"/><text fill="#000000" font-family="sans-serif" font-size="14" lengthAdjust="spacing" textLength="65" x="17" y="29.9951">Purchase</text></g><!--entity Intake--><g id="elem_Intake"><rect fill="#F1F1F1" height="36.2969" rx="2.5" ry="2.5" style="stroke:#181818;stroke-width:0.5;" width="62" x="77.5" y="103.3"/><text fill="#000000" font-family="sans-serif" font-size="14" lengthAdjust="spacing" textLength="42" x="87.5" y="126.2951">Intake</text></g><!--entity Donation--><g id="elem_Donation"><rect fill="#F1F1F1" height="36.2969" rx="2.5" ry="2.5" style="stroke:#181818;stroke-width:0.5;" width="83" x="127" y="7"/><text fill="#000000" font-family="sans-serif" font-size="14" lengthAdjust="spacing" textLength="63" x="137" y="29.9951">Donation</text></g><!--entity Recipient--><g id="elem_Recipient"><rect fill="#F1F1F1" height="36.2969" rx="2.5" ry="2.5" style="stroke:#181818;stroke-width:0.5;" width="85" x="446" y="199.59"/><text fill="#000000" font-family="sans-serif" font-size="14" lengthAdjust="spacing" textLength="65" x="456" y="222.5851">Recipient</text></g><!--link Purchase to Intake--><g id="link_Purchase_Intake"><path d="M84.75,43.71 C84.75,60.77 84.75,79.9 84.75,96.93 " fill="none" id="Purchase-to-Intake" style="stroke:#181818;stroke-width:1.0;"/><polygon fill="#181818" points="84.75,102.93,88.75,93.93,84.75,97.93,80.75,93.93,84.75,102.93" style="stroke:#181818;stroke-width:1.0;"/></g><!--link Donation to Intake--><g id="link_Donation_Intake"><path d="M133.25,43.71 C133.25,60.77 133.25,79.9 133.25,96.93 " fill="none" id="Donation-to-Intake" style="stroke:#181818;stroke-width:1.0;"/><polygon fill="#181818" points="133.25,102.93,137.25,93.93,133.25,97.93,129.25,93.93,133.25,102.93" style="stroke:#181818;stroke-width:1.0;"/></g><!--link Inventory to Adjustment--><g id="link_Inventory_Adjustment"><path d="M255,140.01 C255,157.06 255,176.2 255,193.23 " fill="none" id="Inventory-to-Adjustment" style="stroke:#181818;stroke-width:1.0;"/><polygon fill="#181818" points="255,199.23,259,190.23,255,194.23,251,190.23,255,199.23" style="stroke:#181818;stroke-width:1.0;"/></g><!--link Inventory to Transfer--><g id="link_Inventory_Transfer"><path d="M314,140.01 C314,157.06 314,176.2 314,193.23 " fill="none" id="Inventory-to-Transfer" style="stroke:#181818;stroke-width:1.0;"/><polygon fill="#181818" points="314,199.23,318,190.23,314,194.23,310,190.23,314,199.23" style="stroke:#181818;stroke-width:1.0;"/></g><!--link Intake to Inventory--><g id="link_Intake_Inventory"><path d="M139.65,121.89 C167.33,121.89 202.04,121.89 232.58,121.89 " fill="none" id="Intake-to-Inventory" style="stroke:#181818;stroke-width:1.0;"/><polygon fill="#181818" points="238.58,121.89,229.58,117.89,233.58,121.89,229.58,125.89,238.58,121.89" style="stroke:#181818;stroke-width:1.0;"/></g><!--link Inventory to Distribution--><g id="link_Inventory_Distribution"><path d="M322.09,121.89 C355.64,121.89 396.94,121.89 432.55,121.89 " fill="none" id="Inventory-to-Distribution" style="stroke:#181818;stroke-width:1.0;"/><polygon fill="#181818" points="438.55,121.89,429.55,117.89,433.55,121.89,429.55,125.89,438.55,121.89" style="stroke:#181818;stroke-width:1.0;"/></g><!--link Distribution to Recipient--><g id="link_Distribution_Recipient"><path d="M488.5,140.01 C488.5,157.06 488.5,176.2 488.5,193.23 " fill="none" id="Distribution-to-Recipient" style="stroke:#181818;stroke-width:1.0;"/><polygon fill="#181818" points="488.5,199.23,492.5,190.23,488.5,194.23,484.5,190.23,488.5,199.23" style="stroke:#181818;stroke-width:1.0;"/></g><!--SRC=[ROxB3e9034NtynMDUtw1HCF67L5tX4KTgun0XtIA2J7-ko2F1EAojxUd9vIE6nIimVgwyKoiP-qg0Y6ho8-AJ5WgbMFIhY7meeKt9ajRiGK6oY6AOiYEh5XIRhB4CwhplCdD0eNT0RdSmTl0i7xrRxrqKtr_UxP1wpxB_wqlWXpk9Bdvh8WfYZB914rSK77NzgSnD6SB68rcfbdnu-tXUXm5JcHTumQzBm00]--></g></svg>