<?xml version="1.0" encoding="UTF-8" standalone="no"?>
<!DOCTYPE svg PUBLIC "-//W3C//DTD SVG 1.1//EN"
 "http://www.w3.org/Graphics/SVG/1.1/DTD/svg11.dtd">
<!-- Generated by graphviz version 2.38.0 (20140413.2041)
 -->
<!-- Title: g Pages: 1 -->
<svg width="619pt" height="152pt"
 viewBox="0.00 0.00 619.00 152.00" xmlns="http://www.w3.org/2000/svg" xmlns:xlink="http://www.w3.org/1999/xlink">
<g id="graph0" class="graph" transform="scale(1 1) rotate(0) translate(4 148)">
<title>g</title>
<polygon fill="white" stroke="none" points="-4,4 -4,-148 615,-148 615,4 -4,4"/>
<!-- donor -->
<g id="node1" class="node"><title>donor</title>
<path fill="none" stroke="black" d="M42,-117C42,-117 12,-117 12,-117 6,-117 0,-111 0,-105 0,-105 0,-93 0,-93 0,-87 6,-81 12,-81 12,-81 42,-81 42,-81 48,-81 54,-87 54,-93 54,-93 54,-105 54,-105 54,-111 48,-117 42,-117"/>
<text text-anchor="middle" x="27" y="-95.3" font-family="Times,serif" font-size="14.00">donor</text>
</g>
<!-- donation_site -->
<g id="node2" class="node"><title>donation_site</title>
<path fill="none" stroke="black" d="M171.5,-144C171.5,-144 106.5,-144 106.5,-144 100.5,-144 94.5,-138 94.5,-132 94.5,-132 94.5,-120 94.5,-120 94.5,-114 100.5,-108 106.5,-108 106.5,-108 171.5,-108 171.5,-108 177.5,-108 183.5,-114 183.5,-120 183.5,-120 183.5,-132 183.5,-132 183.5,-138 177.5,-144 171.5,-144"/>
<text text-anchor="middle" x="139" y="-122.3" font-family="Times,serif" font-size="14.00">donation_site</text>
</g>
<!-- donor&#45;&gt;donation_site -->
<g id="edge1" class="edge"><title>donor&#45;&gt;donation_site</title>
<path fill="none" stroke="black" d="M54.0685,-105.399C63.3104,-107.667 74.076,-110.31 84.7534,-112.93"/>
<polygon fill="black" stroke="black" points="83.942,-116.335 94.4881,-115.32 85.6107,-109.537 83.942,-116.335"/>
</g>
<!-- donation_drive -->
<g id="node7" class="node"><title>donation_drive</title>
<path fill="none" stroke="black" d="M176,-90C176,-90 102,-90 102,-90 96,-90 90,-84 90,-78 90,-78 90,-66 90,-66 90,-60 96,-54 102,-54 102,-54 176,-54 176,-54 182,-54 188,-60 188,-66 188,-66 188,-78 188,-78 188,-84 182,-90 176,-90"/>
<text text-anchor="middle" x="139" y="-68.3" font-family="Times,serif" font-size="14.00">donation_drive</text>
</g>
<!-- donor&#45;&gt;donation_drive -->
<g id="edge6" class="edge"><title>donor&#45;&gt;donation_drive</title>
<path fill="none" stroke="black" d="M54.0685,-92.6014C61.9068,-90.6774 70.841,-88.4845 79.8879,-86.2639"/>
<polygon fill="black" stroke="black" points="80.825,-89.6378 89.7024,-83.8549 79.1563,-82.8396 80.825,-89.6378"/>
</g>
<!-- bank -->
<g id="node3" class="node"><title>bank</title>
<path fill="none" stroke="black" d="M266,-90C266,-90 236,-90 236,-90 230,-90 224,-84 224,-78 224,-78 224,-66 224,-66 224,-60 230,-54 236,-54 236,-54 266,-54 266,-54 272,-54 278,-60 278,-66 278,-66 278,-78 278,-78 278,-84 272,-90 266,-90"/>
<text text-anchor="middle" x="251" y="-68.3" font-family="Times,serif" font-size="14.00">bank</text>
</g>
<!-- donation_site&#45;&gt;bank -->
<g id="edge2" class="edge"><title>donation_site&#45;&gt;bank</title>
<path fill="none" stroke="black" d="M176.934,-107.869C189.05,-101.921 202.48,-95.3278 214.488,-89.4332"/>
<polygon fill="black" stroke="black" points="216.326,-92.4299 223.76,-84.8813 213.241,-86.1462 216.326,-92.4299"/>
</g>
<!-- storage_location -->
<g id="node4" class="node"><title>storage_location</title>
<path fill="none" stroke="black" d="M408,-90C408,-90 326,-90 326,-90 320,-90 314,-84 314,-78 314,-78 314,-66 314,-66 314,-60 320,-54 326,-54 326,-54 408,-54 408,-54 414,-54 420,-60 420,-66 420,-66 420,-78 420,-78 420,-84 414,-90 408,-90"/>
<text text-anchor="middle" x="367" y="-68.3" font-family="Times,serif" font-size="14.00">storage_location</text>
</g>
<!-- bank&#45;&gt;storage_location -->
<g id="edge3" class="edge"><title>bank&#45;&gt;storage_location</title>
<path fill="none" stroke="black" d="M278.154,-72C285.891,-72 294.714,-72 303.713,-72"/>
<polygon fill="black" stroke="black" points="303.901,-75.5001 313.901,-72 303.901,-68.5001 303.901,-75.5001"/>
</g>
<!-- partner -->
<g id="node5" class="node"><title>partner</title>
<path fill="none" stroke="black" d="M499,-90C499,-90 468,-90 468,-90 462,-90 456,-84 456,-78 456,-78 456,-66 456,-66 456,-60 462,-54 468,-54 468,-54 499,-54 499,-54 505,-54 511,-60 511,-66 511,-66 511,-78 511,-78 511,-84 505,-90 499,-90"/>
<text text-anchor="middle" x="483.5" y="-68.3" font-family="Times,serif" font-size="14.00">partner</text>
</g>
<!-- storage_location&#45;&gt;partner -->
<g id="edge4" class="edge"><title>storage_location&#45;&gt;partner</title>
<path fill="none" stroke="black" d="M420.224,-72C428.836,-72 437.601,-72 445.731,-72"/>
<polygon fill="black" stroke="black" points="445.988,-75.5001 455.988,-72 445.987,-68.5001 445.988,-75.5001"/>
</g>
<!-- recipient -->
<g id="node6" class="node"><title>recipient</title>
<path fill="none" stroke="black" d="M599,-90C599,-90 559,-90 559,-90 553,-90 547,-84 547,-78 547,-78 547,-66 547,-66 547,-60 553,-54 559,-54 559,-54 599,-54 599,-54 605,-54 611,-60 611,-66 611,-66 611,-78 611,-78 611,-84 605,-90 599,-90"/>
<text text-anchor="middle" x="579" y="-68.3" font-family="Times,serif" font-size="14.00">recipient</text>
</g>
<!-- partner&#45;&gt;recipient -->
<g id="edge5" class="edge"><title>partner&#45;&gt;recipient</title>
<path fill="none" stroke="black" d="M511.043,-72C519.037,-72 528.007,-72 536.72,-72"/>
<polygon fill="black" stroke="black" points="536.756,-75.5001 546.756,-72 536.756,-68.5001 536.756,-75.5001"/>
</g>
<!-- donation_drive&#45;&gt;bank -->
<g id="edge7" class="edge"><title>donation_drive&#45;&gt;bank</title>
<path fill="none" stroke="black" d="M188.248,-72C196.757,-72 205.485,-72 213.6,-72"/>
<polygon fill="black" stroke="black" points="213.847,-75.5001 223.847,-72 213.847,-68.5001 213.847,-75.5001"/>
</g>
<!-- purchase -->
<g id="node8" class="node"><title>purchase</title>
<path fill="none" stroke="black" d="M159.5,-36C159.5,-36 118.5,-36 118.5,-36 112.5,-36 106.5,-30 106.5,-24 106.5,-24 106.5,-12 106.5,-12 106.5,-6 112.5,-0 118.5,-0 118.5,-0 159.5,-0 159.5,-0 165.5,-0 171.5,-6 171.5,-12 171.5,-12 171.5,-24 171.5,-24 171.5,-30 165.5,-36 159.5,-36"/>
<text text-anchor="middle" x="139" y="-14.3" font-family="Times,serif" font-size="14.00">purchase</text>
</g>
<!-- purchase&#45;&gt;bank -->
<g id="edge8" class="edge"><title>purchase&#45;&gt;bank</title>
<path fill="none" stroke="black" d="M171.522,-33.4742C184.933,-40.058 200.637,-47.7674 214.459,-54.5527"/>
<polygon fill="black" stroke="black" points="213.157,-57.8125 223.676,-59.0775 216.242,-51.5288 213.157,-57.8125"/>
</g>
</g>
</svg>
